<svg width="461" height="512" viewBox="0 0 461 512" fill="none" xmlns="http://www.w3.org/2000/svg">
<path d="M291.16 283.675L292.276 276.942H321.336C327.303 276.942 333.026 274.571 337.246 270.352C341.465 266.132 343.836 260.409 343.836 254.442C343.836 248.475 341.465 242.752 337.246 238.532C333.026 234.313 327.303 231.942 321.336 231.942H273.196C267.862 231.927 262.698 233.814 258.63 237.263C254.562 240.713 251.856 245.5 250.999 250.764L241.463 308.325C240.773 312.434 241.239 316.654 242.808 320.514C244.378 324.373 246.99 327.721 250.352 330.182C253.714 332.643 257.694 334.121 261.847 334.451C266.001 334.781 270.164 333.95 273.873 332.051C273.978 331.999 274.214 331.887 274.559 331.731C278.903 329.776 281.779 328.669 290.333 328.669C292.601 328.671 294.845 329.135 296.928 330.033C299.011 330.931 300.89 332.244 302.449 333.891C304.008 335.539 305.216 337.486 305.997 339.616C306.779 341.745 307.119 344.011 306.997 346.276C306.811 349.64 305.611 352.869 303.556 355.538C301.5 358.208 298.684 360.192 295.479 361.231C292.274 362.27 288.83 362.315 285.599 361.36C282.368 360.404 279.502 358.493 277.378 355.878C275.517 353.572 273.219 351.656 270.616 350.24C268.013 348.825 265.156 347.937 262.209 347.629C259.262 347.32 256.283 347.597 253.443 348.443C250.603 349.289 247.958 350.688 245.66 352.559C243.363 354.43 241.457 356.736 240.053 359.346C238.649 361.955 237.774 364.816 237.479 367.765C237.184 370.713 237.474 373.691 238.333 376.527C239.191 379.363 240.602 382.002 242.483 384.291C248.255 391.411 255.547 397.15 263.825 401.087C272.102 405.024 281.155 407.059 290.321 407.044C290.741 407.044 291.161 407.04 291.595 407.031C307.158 406.67 322.013 400.455 333.197 389.626C344.382 378.798 351.073 364.151 351.937 348.608C352.407 340.238 351.152 331.862 348.25 323.997C345.348 316.133 340.861 308.949 335.067 302.891C329.391 296.933 322.585 292.166 315.046 288.866C307.508 285.567 299.388 283.802 291.16 283.675ZM336.957 347.83C336.303 359.589 331.24 370.67 322.78 378.863C314.319 387.055 303.081 391.758 291.307 392.034C290.978 392.04 290.649 392.044 290.321 392.044C283.384 392.055 276.532 390.514 270.267 387.534C264.002 384.554 258.484 380.21 254.115 374.821C252.859 373.279 252.267 371.3 252.47 369.321C252.673 367.343 253.653 365.525 255.195 364.27C256.738 363.014 258.716 362.422 260.695 362.624C262.674 362.827 264.491 363.808 265.747 365.35C269.122 369.498 273.492 372.725 278.449 374.73C283.407 376.734 288.792 377.451 294.101 376.814C299.411 376.177 304.473 374.206 308.816 371.086C313.159 367.965 316.641 363.796 318.938 358.967C321.236 354.138 322.274 348.806 321.955 343.467C321.636 338.129 319.972 332.958 317.116 328.437C314.261 323.915 310.307 320.19 305.624 317.608C300.941 315.026 295.681 313.671 290.333 313.67C279.015 313.67 274.104 315.487 268.398 318.055C267.678 318.379 267.218 318.607 267.043 318.696C265.807 319.331 264.419 319.608 263.034 319.498C261.649 319.387 260.322 318.893 259.203 318.07C258.083 317.248 257.215 316.13 256.695 314.841C256.175 313.553 256.025 312.145 256.261 310.776L265.797 253.216C266.083 251.461 266.985 249.865 268.341 248.716C269.697 247.566 271.419 246.937 273.197 246.942H321.337C323.326 246.942 325.234 247.732 326.64 249.139C328.047 250.545 328.837 252.453 328.837 254.442C328.837 256.431 328.047 258.339 326.64 259.745C325.234 261.152 323.326 261.942 321.337 261.942H285.916C284.139 261.942 282.421 262.573 281.066 263.722C279.711 264.871 278.807 266.463 278.517 268.216L274.869 290.236C274.683 291.359 274.755 292.509 275.08 293.6C275.404 294.691 275.973 295.693 276.742 296.532C277.512 297.37 278.462 298.023 279.521 298.439C280.58 298.856 281.719 299.027 282.854 298.938C285.343 298.75 287.837 298.661 290.333 298.669C296.667 298.682 302.932 299.978 308.751 302.478C314.57 304.979 319.822 308.633 324.19 313.219C328.575 317.806 331.972 323.245 334.168 329.199C336.364 335.152 337.313 341.494 336.957 347.83ZM423.197 34.274H391.131V22.807C391.124 16.7603 388.719 10.9633 384.443 6.68762C380.168 2.41196 374.371 0.00688146 368.324 0L364.881 0C358.834 0.00688146 353.037 2.41196 348.762 6.68762C344.486 10.9633 342.081 16.7603 342.074 22.807V34.274H254.904V22.807C254.897 16.7601 252.492 10.9629 248.216 6.68726C243.94 2.41158 238.143 0.00661683 232.096 0L228.652 0C222.605 0.00688146 216.808 2.41196 212.533 6.68762C208.257 10.9633 205.852 16.7603 205.845 22.807V34.274H118.674V22.807C118.667 16.7603 116.262 10.9633 111.986 6.68762C107.711 2.41196 101.914 0.00688146 95.867 0L92.424 0C86.3773 0.00688146 80.5803 2.41196 76.3046 6.68762C72.029 10.9633 69.6239 16.7603 69.617 22.807V34.274H37.55C27.5946 34.2854 18.0502 38.2452 11.0107 45.2847C3.97119 52.3242 0.0113808 61.8686 0 71.824V474.5C0.0111166 484.442 3.96557 493.974 10.9958 501.004C18.026 508.034 27.5578 511.989 37.5 512H423.248C433.19 511.989 442.722 508.034 449.752 501.004C456.782 493.974 460.737 484.442 460.748 474.5V71.824C460.737 61.8686 456.777 52.3242 449.737 45.2847C442.698 38.2452 433.153 34.2854 423.198 34.274H423.197ZM357.074 22.807C357.076 20.7371 357.899 18.7526 359.363 17.289C360.827 15.8253 362.811 15.0021 364.881 15H368.324C370.394 15.0024 372.378 15.8257 373.842 17.2892C375.305 18.7528 376.129 20.7372 376.131 22.807V34.274H357.074V22.807ZM220.845 22.807C220.847 20.7372 221.671 18.7528 223.134 17.2892C224.598 15.8257 226.582 15.0024 228.652 15H232.096C234.166 15.0024 236.15 15.8257 237.614 17.2892C239.077 18.7528 239.901 20.7372 239.903 22.807V34.274H220.844L220.845 22.807ZM84.617 22.807C84.6194 20.7372 85.4427 18.7528 86.9062 17.2892C88.3698 15.8257 90.3542 15.0024 92.424 15H95.867C97.9369 15.0021 99.9214 15.8253 101.385 17.289C102.849 18.7526 103.672 20.7371 103.674 22.807V34.274H84.617V22.807ZM445.748 141.454H381.603C379.614 141.454 377.706 142.244 376.3 143.651C374.893 145.057 374.103 146.965 374.103 148.954C374.103 150.943 374.893 152.851 376.3 154.257C377.706 155.664 379.614 156.454 381.603 156.454H445.748V474.5C445.741 480.465 443.368 486.184 439.15 490.402C434.932 494.62 429.213 496.993 423.248 497H37.5C31.5347 496.993 25.8158 494.62 21.5977 490.402C17.3796 486.184 15.0069 480.465 15 474.5V156.454H351.603C353.592 156.454 355.5 155.664 356.906 154.257C358.313 152.851 359.103 150.943 359.103 148.954C359.103 146.965 358.313 145.057 356.906 143.651C355.5 142.244 353.592 141.454 351.603 141.454H15V71.824C15.0069 65.8455 17.3849 60.1138 21.6123 55.8863C25.8398 51.6589 31.5715 49.2809 37.55 49.274H69.617V71.326C69.6239 77.3727 72.029 83.1697 76.3046 87.4454C80.5803 91.721 86.3773 94.1261 92.424 94.133C94.4131 94.133 96.3208 93.3428 97.7273 91.9363C99.1338 90.5298 99.924 88.6221 99.924 86.633C99.924 84.6439 99.1338 82.7362 97.7273 81.3297C96.3208 79.9232 94.4131 79.133 92.424 79.133C90.3542 79.1306 88.3698 78.3073 86.9062 76.8438C85.4427 75.3802 84.6194 73.3958 84.617 71.326V49.274H205.844V71.326C205.851 77.3727 208.256 83.1697 212.532 87.4454C216.807 91.721 222.604 94.1261 228.651 94.133C230.64 94.133 232.548 93.3428 233.954 91.9363C235.361 90.5298 236.151 88.6221 236.151 86.633C236.151 84.6439 235.361 82.7362 233.954 81.3297C232.548 79.9232 230.64 79.133 228.651 79.133C226.581 79.1306 224.597 78.3073 223.133 76.8438C221.67 75.3802 220.846 73.3958 220.844 71.326V49.274H342.074V71.326C342.081 77.3725 344.486 83.1694 348.761 87.445C353.037 91.7207 358.833 94.1259 364.88 94.133C366.869 94.133 368.777 93.3428 370.183 91.9363C371.59 90.5298 372.38 88.6221 372.38 86.633C372.38 84.6439 371.59 82.7362 370.183 81.3297C368.777 79.9232 366.869 79.133 364.88 79.133C362.81 79.1309 360.826 78.3077 359.362 76.844C357.898 75.3804 357.075 73.3959 357.073 71.326V49.274H423.197C429.176 49.2809 434.907 51.6589 439.135 55.8863C443.362 60.1138 445.74 65.8455 445.747 71.824L445.748 141.454ZM201.685 361.75L179.805 361.683C185.781 353.183 192.661 343.374 200.363 332.369C209.139 319.829 214.894 307.84 217.47 296.733C217.64 296 217.774 295.251 217.87 294.503L218.503 289.547C218.624 288.601 218.685 287.649 218.685 286.696C218.683 272.963 213.571 259.723 204.344 249.552C195.116 239.381 182.434 233.008 168.766 231.674C155.099 230.34 141.424 234.14 130.404 242.334C119.384 250.529 111.807 262.531 109.15 276.004C108.581 278.903 108.588 281.887 109.171 284.783C109.755 287.68 110.903 290.433 112.55 292.886C114.198 295.339 116.312 297.443 118.773 299.079C121.234 300.715 123.993 301.85 126.892 302.419C129.791 302.988 132.775 302.981 135.671 302.398C138.568 301.814 141.321 300.666 143.774 299.019C146.227 297.371 148.331 295.257 149.967 292.796C151.603 290.335 152.738 287.576 153.307 284.677C153.791 282.261 155.126 280.099 157.069 278.584C159.012 277.069 161.434 276.302 163.894 276.421C166.355 276.54 168.692 277.539 170.479 279.234C172.266 280.93 173.386 283.211 173.634 285.662L173.398 287.502C171.969 292.805 168.64 299.216 163.496 306.566L157.906 314.548C157.341 315.355 156.94 316.265 156.726 317.226C156.512 318.188 156.49 319.182 156.661 320.152C156.831 321.122 157.191 322.049 157.72 322.88C158.249 323.711 158.936 324.43 159.743 324.995C160.55 325.56 161.46 325.961 162.421 326.175C163.383 326.389 164.377 326.411 165.347 326.24C166.317 326.07 167.244 325.71 168.075 325.181C168.906 324.652 169.625 323.965 170.19 323.158L175.785 315.166C182.109 306.13 186.235 297.923 188.047 290.774C188.122 290.48 188.178 290.182 188.217 289.882L188.606 286.835C188.661 286.408 188.678 285.976 188.659 285.546C188.376 279.372 185.843 273.516 181.537 269.083C177.232 264.65 171.452 261.946 165.289 261.484C159.127 261.021 153.008 262.831 148.088 266.571C143.169 270.312 139.789 275.724 138.588 281.786C138.205 283.738 137.062 285.457 135.41 286.567C133.759 287.676 131.735 288.083 129.783 287.7C127.831 287.317 126.112 286.174 125.002 284.522C123.893 282.871 123.486 280.847 123.869 278.895C125.808 269.079 131.331 260.336 139.361 254.367C147.391 248.399 157.355 245.632 167.314 246.605C177.272 247.578 186.512 252.222 193.235 259.632C199.958 267.043 203.683 276.689 203.685 286.695C203.685 287.013 203.664 287.331 203.624 287.647L202.991 292.601C202.959 292.851 202.914 293.1 202.857 293.346C200.717 302.573 195.744 312.809 188.074 323.768C178.492 337.468 168.885 351.15 159.252 364.814C158.461 365.935 157.992 367.252 157.898 368.621C157.803 369.99 158.086 371.359 158.716 372.578C159.345 373.798 160.297 374.821 161.468 375.537C162.639 376.253 163.984 376.634 165.356 376.638L201.639 376.75C203.628 376.756 205.533 377.552 206.935 378.963C208.338 380.374 209.122 382.284 209.116 384.273C209.109 386.263 208.313 388.168 206.902 389.57C205.491 390.972 203.581 391.756 201.592 391.75L136.299 391.549C134.897 391.545 133.525 391.147 132.337 390.403C131.149 389.658 130.194 388.595 129.58 387.335C128.966 386.074 128.718 384.667 128.863 383.273C129.008 381.879 129.541 380.553 130.401 379.446C130.797 378.92 137.135 370.168 153.341 347.163C153.913 346.358 154.32 345.448 154.54 344.485C154.759 343.522 154.786 342.526 154.62 341.552C154.453 340.579 154.095 339.648 153.568 338.813C153.041 337.978 152.354 337.256 151.546 336.687C150.739 336.119 149.827 335.715 148.864 335.5C147.9 335.284 146.903 335.261 145.93 335.432C144.958 335.603 144.028 335.964 143.196 336.495C142.363 337.025 141.643 337.715 141.078 338.525C124.318 362.315 118.784 369.92 118.41 370.433C115.877 373.765 114.324 377.737 113.925 381.903C113.526 386.068 114.296 390.263 116.15 394.015C118.004 397.767 120.867 400.928 124.418 403.142C127.97 405.356 132.068 406.536 136.253 406.549L201.616 406.75C207.583 406.759 213.31 404.397 217.536 400.184C221.762 395.971 224.141 390.252 224.151 384.284C224.16 378.317 221.798 372.591 217.585 368.365C213.372 364.138 207.652 361.759 201.685 361.75Z" fill="white"/>
</svg>
