<svg width="140" height="140" viewBox="0 0 140 140" fill="none" xmlns="http://www.w3.org/2000/svg">
<circle cx="74.0239" cy="74.023" r="65.1403" fill="#82BC29" stroke="#82BC29" stroke-width="1.67347"/>
<circle cx="65.977" cy="65.977" r="65.1403" fill="#F3FFE0" stroke="#F3FFE0" stroke-width="1.67347"/>
<path d="M79.0374 66.0066V67.9854C71.0403 74.7723 59.3057 74.7723 51.3086 67.9854V66.0066C51.308 61.3022 54.351 57.1379 58.8332 55.7091C62.5257 58.7004 67.8077 58.7004 71.5002 55.7091H71.5128C75.9972 57.1348 79.0416 61.301 79.0374 66.0066Z" fill="#EF314C"/>
<path d="M71.5117 55.7091H71.4991C71.0235 56.0906 70.5143 56.4281 69.9778 56.7174C73.2554 58.6631 75.2619 62.195 75.2551 66.0066V67.9854C71.8822 70.8599 67.6963 72.61 63.2812 72.9917C63.9039 73.0459 64.5341 73.0774 65.1719 73.0774C70.2526 73.0872 75.1696 71.2813 79.0363 67.9854V66.0066C79.0404 61.301 75.9961 57.1348 71.5117 55.7091Z" fill="#BB193B"/>
<path d="M75.2594 47.8694C75.2625 50.9145 73.8861 53.7971 71.516 55.7091H71.5034C67.8381 58.6608 62.6177 58.6821 58.9285 55.7605C55.2392 52.8388 54.0638 47.7524 56.0971 43.5083C58.1305 39.2642 62.8309 36.993 67.4196 38.0373C72.0083 39.0816 75.2629 43.1633 75.2594 47.8694Z" fill="#FFE0B2"/>
<path d="M65.1719 37.7862C64.5373 37.7879 63.9044 37.8491 63.2812 37.969C67.1353 38.7067 70.2114 41.6133 71.1659 45.4195C72.1205 49.2256 70.7802 53.2399 67.7305 55.7091H67.7179C66.4313 56.7509 64.9073 57.4588 63.2812 57.7698C66.1905 58.3324 69.1995 57.5779 71.4991 55.7091H71.5117C74.8332 53.0225 76.1012 48.5343 74.6765 44.5069C73.2519 40.4794 69.4439 37.7868 65.1719 37.7862Z" fill="#DFC49C"/>
<path d="M86.6008 51.6506C86.6079 57.9398 83.8409 63.912 79.0384 67.9728V66.0066C79.0426 61.301 75.9982 57.1348 71.5138 55.7091C74.8362 53.0227 76.1048 48.534 74.6801 44.506C73.2554 40.478 69.4466 37.7851 65.174 37.7851C60.9014 37.7851 57.0927 40.478 55.6679 44.506C54.2432 48.534 55.5118 53.0227 58.8342 55.7091C54.352 57.1379 51.3091 61.3022 51.3096 66.0066V67.9728C43.7485 61.5559 41.5787 50.7888 46.0645 41.9443C50.5502 33.0997 60.5192 28.4891 70.1636 30.7984C79.808 33.1078 86.6075 41.7336 86.6008 51.6506Z" fill="#02A9F4"/>
<path d="M55.0921 47.8694C55.094 43.0311 58.5322 38.8762 63.2847 37.969C58.7451 37.1063 54.2001 39.4397 52.2554 43.6313C50.3108 47.823 51.4641 52.8001 55.0543 55.7091C51.2649 56.9213 48.4473 60.1165 47.7188 64.0277C48.7473 65.4872 49.954 66.8124 51.3109 67.9728V66.0066C51.3103 61.3022 54.3533 57.1379 58.8355 55.7091C56.4654 53.7972 55.089 50.9145 55.0921 47.8694Z" fill="#0377BC"/>
<path d="M65.1719 30.2238C64.5341 30.2238 63.9115 30.2642 63.2812 30.3196C70.9255 30.9794 77.6296 35.6858 80.8471 42.6512C84.0646 49.6166 83.3018 57.7722 78.8485 64.0202C78.9713 64.6752 79.0341 65.3401 79.0363 66.0066V67.9728C85.8878 62.161 88.3834 52.6905 85.2859 44.2569C82.1884 35.8232 74.1563 30.2194 65.1719 30.2238Z" fill="#0377BC"/>
<path d="M49.1783 85.3789L49.2791 85.4671V85.4797L50.4135 92.0464C50.483 92.4293 50.3281 92.8184 50.0146 93.0489C49.701 93.2793 49.2835 93.311 48.9388 93.1304L41.8553 89.4374L34.7719 93.1304C34.4272 93.311 34.0097 93.2793 33.6961 93.0489C33.3825 92.8184 33.2277 92.4293 33.2972 92.0464L34.6459 84.2571L28.9362 78.7618C28.6495 78.496 28.5422 78.0885 28.661 77.7159C28.7797 77.3434 29.1031 77.0732 29.4908 77.0225L37.3935 75.8881L40.9479 68.7794C41.1163 68.4316 41.4688 68.2106 41.8553 68.2106C42.2419 68.2106 42.5944 68.4316 42.7628 68.7794L46.3046 75.8881L54.2199 77.0225C54.6075 77.0732 54.9309 77.3434 55.0497 77.7159C55.1685 78.0885 55.0612 78.496 54.7744 78.7618L50.1866 83.1732L49.8715 83.2236C49.3953 83.2927 49 83.6269 48.8526 84.085C48.7053 84.5431 48.8316 85.0451 49.1783 85.3789Z" fill="#FEC108"/>
<path d="M81.1934 85.3789L81.0673 85.5049L74.1099 92.1976L75.7862 101.852C75.867 102.322 75.6754 102.798 75.2912 103.081C74.9071 103.363 74.3962 103.405 73.9713 103.188L65.1863 98.6131L56.4013 103.188C55.9751 103.406 55.4627 103.365 55.0764 103.083C54.6901 102.8 54.4957 102.324 54.5737 101.852L56.25 92.1976L49.28 85.4797V85.4671L49.1792 85.3789C48.8326 85.0451 48.7062 84.5431 48.8535 84.085C49.0009 83.6269 49.3962 83.2927 49.8724 83.2236L50.1875 83.1732L59.6531 81.8245L64.0519 73.0143C64.2651 72.5865 64.702 72.3162 65.18 72.3162C65.658 72.3162 66.0948 72.5865 66.308 73.0143L70.6942 81.8245L80.1598 83.1732L80.5001 83.2236C80.9764 83.2927 81.3717 83.6269 81.519 84.085C81.6664 84.5431 81.54 85.0451 81.1934 85.3789Z" fill="#FFDC00"/>
<path d="M80.4983 83.2236L80.158 83.1732L70.6924 81.8245L66.3062 73.0143C66.093 72.5865 65.6561 72.3162 65.1782 72.3162C64.7002 72.3162 64.2633 72.5865 64.0501 73.0143L63.2812 74.5432L66.9112 81.8245L76.3768 83.1732L76.7171 83.2236C77.1933 83.2927 77.5886 83.6269 77.736 84.085C77.8833 84.5431 77.757 85.0451 77.4103 85.3789L77.2843 85.5049L70.3269 92.1976L72.0032 101.852C72.0193 101.957 72.0222 102.063 72.012 102.169L73.9694 103.188C74.3944 103.405 74.9052 103.363 75.2894 103.081C75.6735 102.798 75.8651 102.322 75.7844 101.852L74.1081 92.1976L81.0655 85.5049L81.1915 85.3789C81.5382 85.0451 81.6645 84.5431 81.5172 84.085C81.3699 83.6269 80.9745 83.2927 80.4983 83.2236Z" fill="#FEC108"/>
<path d="M101.411 78.7618L95.7016 84.2571L97.0502 92.0464C97.1197 92.4293 96.9649 92.8184 96.6513 93.0489C96.3377 93.2793 95.9202 93.311 95.5755 93.1304L88.4921 89.4374L81.4086 93.1304C81.0639 93.311 80.6464 93.2793 80.3328 93.0489C80.0192 92.8184 79.8644 92.4293 79.9339 92.0464L81.0683 85.5049L81.1943 85.3789C81.541 85.0451 81.6673 84.5431 81.52 84.085C81.3727 83.6269 80.9773 83.2927 80.5011 83.2236L80.1608 83.1732L75.573 78.7618C75.2862 78.496 75.1789 78.0885 75.2977 77.7159C75.4165 77.3434 75.7399 77.0732 76.1275 77.0225L84.0302 75.8881L87.5846 68.7794C87.753 68.4316 88.1055 68.2106 88.4921 68.2106C88.8786 68.2106 89.2311 68.4316 89.3995 68.7794L92.9413 75.8881L100.857 77.0225C101.244 77.0732 101.568 77.3434 101.686 77.7159C101.805 78.0885 101.698 78.496 101.411 78.7618Z" fill="#FEC108"/>
<path d="M71.7839 70.7205C71.3586 70.8686 71.0446 71.2324 70.9603 71.6748C70.8759 72.1172 71.034 72.571 71.375 72.8652C71.7159 73.1595 72.188 73.2495 72.6133 73.1014C83.0816 69.4733 89.4 58.8166 87.5605 47.8911C85.7209 36.9657 76.2612 28.9656 65.1819 28.9656C54.1027 28.9656 44.643 36.9657 42.8034 47.8911C40.9639 58.8166 47.2823 69.4733 57.7506 73.1014C58.4084 73.33 59.1271 72.9821 59.3557 72.3243C59.5844 71.6665 59.2365 70.9479 58.5787 70.7192C56.3996 69.9587 54.3676 68.8289 52.5716 67.3791V66.0066C52.5665 62.0748 54.9875 58.5474 58.6581 57.1384C62.5628 59.9047 67.7885 59.9047 71.6932 57.1384C75.3638 58.5474 77.7848 62.0748 77.7796 66.0066V67.3842C75.9869 68.8314 73.9588 69.9599 71.7839 70.7205ZM56.3528 47.8694C56.3528 42.9967 60.3029 39.0466 65.1756 39.0466C70.0483 39.0466 73.9984 42.9967 73.9984 47.8694C73.9984 52.7421 70.0483 56.6922 65.1756 56.6922C60.3052 56.6866 56.3584 52.7398 56.3528 47.8694ZM73.7464 55.2717C77.7091 50.6949 77.3795 43.8129 72.9975 39.6358C68.6156 35.4586 61.7256 35.4586 57.3437 39.6358C52.9617 43.8129 52.6321 50.6949 56.5948 55.2717C52.8835 57.1693 50.4218 60.8557 50.0912 65.0108C42.9062 56.9132 43.3965 44.5872 51.2021 37.0859C59.0078 29.5847 71.3435 29.5847 79.1491 37.0859C86.9547 44.5872 87.4451 56.9132 80.2601 65.0108C79.9284 60.8532 77.4622 57.1659 73.7464 55.2717Z" fill="black"/>
<path d="M54.3374 104.097C55.1081 104.666 56.1358 104.745 56.9842 104.3L65.1856 100.039L73.3858 104.301C74.2362 104.743 75.2637 104.665 76.0372 104.099C76.8107 103.533 77.1963 102.577 77.0321 101.633L75.4743 92.6439L82.0662 86.2902C82.7587 85.6226 83.0109 84.619 82.7163 83.7033C82.4217 82.7876 81.6316 82.1194 80.6797 81.9809L71.5292 80.6663L67.4455 72.4573C67.0215 71.5977 66.1441 71.0555 65.1856 71.0608C64.23 71.0573 63.3555 71.5974 62.9308 72.4535L58.8244 80.6663L49.6941 81.9796C48.7416 82.1178 47.951 82.7863 47.6563 83.7024C47.3616 84.6186 47.6143 85.6227 48.3076 86.2902L54.902 92.6439L53.3429 101.633C53.1764 102.577 53.5623 103.533 54.3374 104.097ZM50.052 84.4752L59.8352 83.0673C60.244 83.0087 60.5981 82.7534 60.7831 82.3842L65.1844 73.5816L69.5668 82.3817C69.7513 82.7522 70.1061 83.0085 70.5159 83.0673L80.3193 84.4752L73.2434 91.2927C72.9424 91.583 72.805 92.0037 72.8766 92.4157L74.5491 102.067L65.7679 97.5027C65.4037 97.3135 64.9701 97.3135 64.6058 97.5027L55.8234 102.067L57.4959 92.4183C57.5675 92.0062 57.4301 91.5855 57.1292 91.2952L50.052 84.4752Z" fill="black"/>
<path d="M33.2898 84.7008L32.0584 91.8208C31.9395 92.4846 32.1205 93.167 32.5526 93.6847C32.9847 94.2024 33.6238 94.5025 34.2981 94.5042C34.6663 94.5036 35.029 94.4145 35.3556 94.2445L41.8605 90.8591L48.3617 94.2521C48.7611 94.4601 49.2411 94.4393 49.621 94.1974C50.0009 93.9555 50.2229 93.5294 50.2033 93.0794C50.1838 92.6295 49.9257 92.2242 49.5263 92.0162L42.4428 88.3232C42.0779 88.1331 41.6431 88.1331 41.2782 88.3232L34.6271 91.788L35.8875 84.4777C35.9591 84.0657 35.8217 83.645 35.5207 83.3547L30.1678 78.187L37.5752 77.1233C37.9842 77.0643 38.3383 76.8086 38.523 76.4389L41.8605 69.7663L45.1855 76.4376C45.3703 76.8085 45.7256 77.0648 46.1358 77.1233L54.0499 78.2576C54.739 78.3561 55.3775 77.8773 55.476 77.1882C55.5745 76.499 55.0957 75.8605 54.4065 75.762L47.1466 74.7222L43.8986 68.2034C43.5138 67.4279 42.7212 66.9389 41.8555 66.943H41.8479C40.9916 66.9413 40.2091 67.4274 39.8313 68.1959L36.5668 74.7222L29.3284 75.7608C28.4618 75.8763 27.7387 76.4795 27.4696 77.3113C27.2005 78.1431 27.4333 79.0555 28.068 79.6567L33.2898 84.7008Z" fill="black"/>
<path d="M102.878 77.3073C102.615 76.4798 101.898 75.8781 101.038 75.7621L93.7905 74.7222L90.5337 68.1971C90.157 67.4266 89.3747 66.9376 88.517 66.9367H88.5095C87.6433 66.9321 86.8501 67.4212 86.4651 68.1971L83.2183 74.7147L75.9571 75.7545C75.5113 75.8182 75.1334 76.1149 74.9657 76.5328C74.798 76.9508 74.866 77.4264 75.144 77.7806C75.4221 78.1349 75.868 78.3138 76.3138 78.2501L84.2291 77.1157C84.6394 77.0573 84.9947 76.8009 85.1795 76.4301L88.4969 69.7663L91.8281 76.4389C92.0127 76.8086 92.3669 77.0643 92.7759 77.1233L100.18 78.1858L94.8266 83.3535C94.5256 83.6438 94.3882 84.0645 94.4598 84.4765L95.7265 91.7868L89.0754 88.3182C88.7105 88.1281 88.2757 88.1281 87.9108 88.3182L80.8273 92.0111C80.4279 92.2192 80.1698 92.6245 80.1503 93.0744C80.1307 93.5243 80.3527 93.9505 80.7326 94.1924C81.1125 94.4343 81.5925 94.4551 81.9919 94.2471L88.4969 90.8591L95.0005 94.2521C95.7703 94.6521 96.7004 94.5803 97.3997 94.0669C98.099 93.5536 98.4462 92.6877 98.2952 91.8334L97.0676 84.7008L102.293 79.6592C102.926 79.0538 103.153 78.1385 102.878 77.3073Z" fill="black"/>
<path d="M58.2449 88.3775C58.3056 88.3771 58.3663 88.3725 58.4264 88.3636L63.1667 87.6817C63.5755 87.623 63.9296 87.3678 64.1145 86.9986L66.3076 82.6136C66.6209 81.9906 66.3698 81.2317 65.7468 80.9184C65.1238 80.6052 64.3648 80.8563 64.0515 81.4793L62.1609 85.2743L58.0709 85.863C57.4158 85.9563 56.9444 86.5404 56.9915 87.2005C57.0386 87.8605 57.5882 88.3718 58.2499 88.3712L58.2449 88.3775Z" fill="black"/>
</svg>
