<svg width="184" height="185" viewBox="0 0 184 185" fill="none" xmlns="http://www.w3.org/2000/svg">
<ellipse cx="92" cy="174.5" rx="92" ry="10.5" fill="black"/>
<g clip-path="url(#clip0_2001_7)">
<path d="M92.5001 173C140.273 173 179 134.273 179 86.5001C179 38.7274 140.273 0 92.5001 0C44.7274 0 6 38.7274 6 86.5001C6 134.273 44.7274 173 92.5001 173Z" fill="url(#paint0_linear_2001_7)"/>
</g>
<g clip-path="url(#clip1_2001_7)">
<path d="M92.4998 163.875C135.233 163.875 169.875 129.233 169.875 86.4998C169.875 43.7669 135.233 9.125 92.4998 9.125C49.7669 9.125 15.125 43.7669 15.125 86.4998C15.125 129.233 49.7669 163.875 92.4998 163.875Z" fill="white"/>
</g>
<g clip-path="url(#clip2_2001_7)">
<path d="M81.3918 65.2942L79.0261 64.871L81.2187 52.4273C81.3533 51.6195 81.2187 50.7733 80.7956 50.0616L78.1606 45.4842H72.41C71.0829 45.4842 70.0059 44.4072 70.0059 43.0801H78.4107C79.1031 43.0801 79.757 43.4455 80.1032 44.061L82.8727 48.8692C83.5651 50.0809 83.8151 51.4849 83.5843 52.8697L81.3918 65.2942Z" fill="#96BF48"/>
<path d="M86.3361 82.5458C87.9294 82.5458 89.2211 81.2541 89.2211 79.6608C89.2211 78.0675 87.9294 76.7759 86.3361 76.7759C84.7428 76.7759 83.4512 78.0675 83.4512 79.6608C83.4512 81.2541 84.7428 82.5458 86.3361 82.5458Z" fill="#96BF48"/>
<path d="M101.432 74.6994H83.4105C81.6026 74.6994 79.9294 73.757 78.987 72.1799C78.3523 71.1029 78.1599 69.8143 78.3715 68.5834L79.0254 64.8906L81.3911 65.3137L80.7372 69.0449C80.6218 69.6796 80.6987 70.3336 81.0064 70.8913C81.5065 71.7953 82.4104 72.3338 83.4105 72.3338H99.0277C100.355 72.2953 101.432 73.3724 101.432 74.6994Z" fill="#96BF48"/>
<path d="M98.4494 82.5458C100.043 82.5458 101.334 81.2541 101.334 79.6608C101.334 78.0675 100.043 76.7759 98.4494 76.7759C96.8561 76.7759 95.5645 78.0675 95.5645 79.6608C95.5645 81.2541 96.8561 82.5458 98.4494 82.5458Z" fill="#96BF48"/>
<path d="M102.778 27.5408H96.8922C96.3922 27.5408 95.9883 27.1369 95.9883 26.6369C95.9883 26.1368 96.3922 25.7329 96.8922 25.7329H102.778C103.278 25.7329 103.681 26.1368 103.681 26.6369C103.681 27.1369 103.278 27.5408 102.778 27.5408Z" fill="#161616"/>
<path d="M92.986 27.54C92.7552 27.54 92.5244 27.4439 92.3513 27.2708C92.3128 27.2323 92.2744 27.1746 92.2359 27.1361C92.1974 27.0784 92.1782 27.04 92.159 26.9823C92.1397 26.9246 92.1205 26.8669 92.1013 26.8092C92.082 26.7515 92.082 26.6938 92.082 26.6361C92.082 26.4053 92.1782 26.1745 92.3513 26.0014C92.5629 25.7898 92.8706 25.6937 93.1591 25.7514C93.2168 25.7706 93.2745 25.7898 93.3322 25.8091C93.3899 25.8283 93.4476 25.8668 93.486 25.886C93.5437 25.9245 93.5822 25.9629 93.6207 26.0014C93.7938 26.1745 93.8899 26.4053 93.8899 26.6361C93.8899 26.8669 93.7938 27.0977 93.6207 27.2708C93.4668 27.4439 93.2168 27.54 92.986 27.54Z" fill="#161616"/>
<path d="M112.55 35.8306C112.492 35.8306 112.454 35.8306 112.396 35.8114C111.896 35.7152 111.569 35.2536 111.665 34.7728L112.3 31.1185C112.396 30.6377 112.858 30.2915 113.338 30.3877C113.839 30.4838 114.166 30.9454 114.069 31.4263L113.435 35.0805C113.358 35.5229 112.992 35.8306 112.55 35.8306Z" fill="#161616"/>
<path d="M111.241 43.3116C111.184 43.3116 111.145 43.3116 111.087 43.2924C110.587 43.1962 110.26 42.7346 110.357 42.2538L110.991 38.5995C111.087 38.0995 111.549 37.7917 112.03 37.8687C112.53 37.9648 112.857 38.4264 112.761 38.9073L112.126 42.5615C112.049 43.0039 111.664 43.3116 111.241 43.3116Z" fill="#161616"/>
<path d="M84.1827 35.8306C84.125 35.8306 84.0866 35.8306 84.0289 35.8114C83.5288 35.7152 83.2019 35.2536 83.298 34.7728L83.9327 31.1185C84.0289 30.6377 84.4905 30.2915 84.9713 30.3877C85.4714 30.4838 85.7983 30.9454 85.7021 31.4263L85.0675 35.0805C84.9905 35.5229 84.6251 35.8306 84.1827 35.8306Z" fill="#161616"/>
<path d="M108.815 55.5419L86.8898 49.772C86.659 51.1183 87.486 52.4069 88.8131 52.7531L106.084 57.2921L104.757 64.8506C104.565 65.9469 103.488 66.8701 102.411 66.8701H79.6582V69.2742H102.372C104.623 69.2742 106.7 67.524 107.084 65.2737L108.815 55.5419Z" fill="#96BF48"/>
<path d="M113.335 22.2881C112.643 21.4611 111.604 20.9995 110.45 20.9995H90.7556C88.5053 20.9995 86.4281 22.7497 86.0435 25L82.8893 42.8289C82.6585 44.1752 82.8893 45.56 83.5817 46.7332L84.3125 48.0026C84.3318 48.0411 84.3702 48.0988 84.3895 48.1565L88.4091 25.4231C88.6015 24.3268 89.6785 23.4036 90.7556 23.4036H110.45C110.892 23.4036 111.258 23.5575 111.489 23.846C111.739 24.1345 111.835 24.5576 111.739 25L107.161 50.8875C106.93 52.2339 107.758 53.5225 109.085 53.8687L114.104 25.4039C114.335 24.2691 114.047 23.1344 113.335 22.2881Z" fill="#161616"/>
</g>
<path d="M47.2702 92.4917L48.0712 92.5323L48.8824 92.5729H49.6937L50.1094 93.019L50.3021 92.5729H50.5049C52.5667 92.5864 53.9627 92.6844 54.6928 92.8669C55.4161 93.0562 55.9637 93.3672 56.3355 93.7998C56.7141 94.2325 56.9541 94.7124 57.0555 95.2397C57.1569 95.7738 57.2211 96.8182 57.2481 98.3731V101.243L57.2177 102.683V103.403L56.5586 103.565L57.2076 103.849C57.194 105.498 57.1231 106.573 56.9946 107.073C56.8527 107.574 56.6093 107.966 56.2645 108.25C55.9198 108.527 55.4939 108.719 54.9869 108.828C54.4798 108.943 53.716 109 52.6952 109H47.2702V94.3981L47.5135 94.1547L47.2904 93.7694L47.2702 93.526V92.4917ZM49.1055 93.0393L49.0548 93.2624V93.5159L49.572 93.5463L49.7342 93.3537L49.572 93.1508L49.1055 93.0393ZM51.5797 106.191C51.884 106.191 52.1239 106.171 52.2997 106.13C52.4755 106.09 52.6107 105.988 52.7053 105.826C52.8 105.664 52.8608 105.424 52.8878 105.106C52.9149 104.788 52.9284 104.356 52.9284 103.808V97.43C52.9284 96.6932 52.9047 96.2166 52.8574 96.0002C52.8101 95.7974 52.7019 95.6453 52.5329 95.5439C52.3639 95.4425 52.0462 95.3918 51.5797 95.3918V106.191ZM56.082 104.153L56.0313 104.376V104.63L56.5484 104.66L56.7107 104.467L56.5484 104.265L56.082 104.153ZM54.5407 106.952L54.49 107.175V107.428L55.0071 107.459L55.1694 107.266L55.0071 107.063L54.5407 106.952ZM55.3925 107.276L55.3418 107.499V107.753L55.8589 107.783L56.0212 107.591L56.0719 107.418L55.3925 107.276ZM54.5001 107.844L54.4494 108.067V108.321L54.9666 108.351L55.1288 108.158L54.9666 107.956L54.5001 107.844ZM47.8076 108.209L47.838 108.392L47.767 108.686L48.274 108.716L48.4363 108.523L48.274 108.321L47.8076 108.209ZM68.6052 102.196C68.6052 103.852 68.568 105.018 68.4936 105.694C68.4125 106.384 68.1658 107.013 67.7534 107.58C67.341 108.148 66.7901 108.584 66.1005 108.888C65.3975 109.193 64.5863 109.345 63.6669 109.345C62.7881 109.345 61.9971 109.203 61.2941 108.919C60.5978 108.628 60.0367 108.196 59.6108 107.621C59.1849 107.04 58.9314 106.414 58.8503 105.745C58.7692 105.069 58.7286 103.886 58.7286 102.196V99.3871C58.7286 99.164 58.7286 98.951 58.7286 98.7482C58.7286 98.7415 58.7489 98.7347 58.7894 98.728C58.83 98.7144 58.8638 98.7043 58.8908 98.6975C58.9246 98.684 58.9348 98.6739 58.9213 98.6671C58.9077 98.6536 58.8435 98.6401 58.7286 98.6266C58.6745 98.6266 58.661 98.5928 58.688 98.5252C58.7151 98.4508 58.7286 98.39 58.7286 98.3426C58.7286 98.3224 58.857 98.3021 59.1139 98.2818C59.3708 98.2548 59.6547 98.2311 59.9657 98.2108C60.2767 98.1905 60.564 98.1669 60.8276 98.1398C61.0913 98.1128 61.2265 98.0858 61.2332 98.0587C61.2332 98.0384 61.1014 98.0181 60.8378 97.9979C60.5741 97.9708 60.2868 97.9472 59.9758 97.9269C59.6649 97.9066 59.3809 97.8829 59.1241 97.8559C58.8672 97.8289 58.7421 97.8018 58.7489 97.7748C58.7489 97.7342 58.7692 97.6903 58.8097 97.643C58.857 97.5956 58.8401 97.5517 58.759 97.5111C58.7185 97.4909 58.7083 97.4571 58.7286 97.4097C58.7489 97.3557 58.7624 97.3083 58.7692 97.2678C58.7827 96.6796 58.8097 96.2166 58.8503 95.8786C58.9246 95.1958 59.1646 94.5705 59.5702 94.0026C59.9826 93.4348 60.5369 92.9987 61.2332 92.6945C61.9363 92.3903 62.7475 92.2382 63.6669 92.2382C64.5389 92.2382 65.3265 92.3836 66.0295 92.6743C66.7326 92.9649 67.2971 93.3942 67.723 93.9621C68.1489 94.5367 68.4024 95.162 68.4835 95.838C68.5646 96.514 68.6052 97.697 68.6052 99.3871V102.196ZM64.3361 96.8013C64.3429 96.6323 64.3395 96.4768 64.326 96.3349C64.326 96.3146 64.4342 96.2977 64.6505 96.2842C64.8736 96.2707 65.0561 96.2538 65.1981 96.2335C65.34 96.2132 65.3738 96.1929 65.2995 96.1726C65.2319 96.1523 64.904 96.1321 64.3159 96.1118C64.3159 96.0915 64.3159 96.0442 64.3159 95.9698C64.3023 95.6656 64.2685 95.4527 64.2145 95.331C64.1266 95.1147 63.9508 95.0099 63.6872 95.0166C63.4641 95.0099 63.2951 95.0944 63.1801 95.2702C63.0585 95.4459 62.9976 95.9563 62.9976 96.8013V99.3161L62.7644 99.4783L62.9976 99.6V99.9854L62.8557 100.219L62.9976 100.797V101.76L62.156 101.811L62.9976 101.932V104.467C62.9976 105.421 63.0382 106.009 63.1193 106.232C63.1937 106.455 63.3728 106.566 63.6567 106.566C63.9542 106.566 64.1401 106.438 64.2145 106.181C64.2956 105.924 64.3361 105.312 64.3361 104.346V96.8013ZM66.8002 95.7974L66.6684 95.909L66.7799 96.0307L66.9117 96.0408L67.003 95.9597V95.8583L66.8002 95.7974ZM65.8369 96.1016L65.6239 96.2538L65.8065 96.4261L66.0093 96.4464L66.1614 96.3247V96.1828L65.8369 96.1016ZM66.638 105.238L66.3439 105.633V105.948L66.9117 105.978L67.1348 105.491L66.638 105.238ZM65.9383 106.171L65.8673 107.225V107.54L66.4352 107.57L66.6582 107.083L65.9383 106.171ZM66.5264 108.016L66.3135 108.169L66.496 108.341L66.6988 108.361L66.8509 108.239V108.098L66.5264 108.016ZM86.2187 92.583L84.3225 109H80.3272L79.6884 108.513L79.3234 109H78.9887C78.5088 106.478 78.0795 103.612 77.7009 100.401C77.5252 101.767 77.1297 104.633 76.5145 109H75.1963L74.4155 108.513L73.8679 109H71.2112L69.3048 92.583H70.3391L70.765 93.019L71.3734 92.583H73.4522L73.8882 98.3122L74.3344 103.839C74.4831 100.979 74.8752 97.2272 75.5106 92.583H78.8366L79.2828 93.1813L79.6681 92.583H79.9521C80.0061 93.0562 80.1616 94.8612 80.4185 97.9979L80.885 104.234C81.1148 100.273 81.5103 96.389 82.0714 92.583H86.2187ZM82.6899 93.1813L82.5277 94.6415L82.771 96.0205L83.5823 94.3981L82.6899 93.1813ZM72.7931 106.242L73.442 106.566L73.5232 105.674L72.7119 105.836L72.7931 106.242ZM74.1721 107.378L74.3344 108.027L75.2267 107.702L75.1456 107.053L74.1721 107.378ZM96.5921 92.583V109H92.8504L90.6297 101.537V109L86.9792 108.919L86.9995 107.885V107.388L90.3458 107.134L87.0198 107.175L87.0401 105.857V92.583H90.6297L93.0228 99.9752V92.583H96.5921ZM87.76 92.9785L87.4051 93.4652L87.6688 93.8505L88.2873 93.7998L88.267 93.4956L88.3482 93.2522L87.76 92.9785ZM95.5376 103.321L96.1054 102.916L95.7809 101.618L96.0243 100.644L95.7809 99.5899L96.0243 98.3731V97.1562L95.7809 96.2639L96.1054 94.3981C95.835 93.8573 95.6457 93.5869 95.5376 93.5869V103.321ZM102.575 92.4917V99.1032C102.629 99.7251 102.629 101.378 102.575 104.062V105.715H105.181L105.13 109H100.02L99.33 108.676L99.0866 109H98.1943V100.685L98.3058 98.6975L98.3971 97.8052L98.2754 96.6695L98.3667 94.5603L98.316 93.5463L98.3971 92.4917L100.486 92.5729H101.53L101.926 92.9379L102.321 92.5729L102.575 92.4917ZM99.1272 93.3841L98.7926 93.7694L99.0461 94.0736L99.6849 94.1851V93.6072L99.1272 93.3841ZM101.52 103.727L102.088 103.321L101.764 102.024L102.007 101.05L101.764 99.9955L102.007 98.7787V97.5618L101.764 96.6695L102.088 94.8037C101.818 94.2629 101.628 93.9925 101.52 93.9925V103.727ZM104.329 106.14L104.278 106.364V106.617L104.796 106.647L104.958 106.455L104.796 106.252L104.329 106.14ZM103.346 106.607L103.011 106.992L103.264 107.296L103.903 107.408V106.83L103.346 106.607ZM98.965 107.783L98.8331 107.945L98.9345 108.087L99.1982 108.138L99.2083 107.976L99.1982 107.874L98.965 107.783ZM100.679 108.148L100.486 108.432L100.628 108.655L100.983 108.746V108.31L100.679 108.148ZM116.041 102.196C116.041 103.852 116.004 105.018 115.93 105.694C115.848 106.384 115.602 107.013 115.189 107.58C114.777 108.148 114.226 108.584 113.536 108.888C112.833 109.193 112.022 109.345 111.103 109.345C110.224 109.345 109.433 109.203 108.73 108.919C108.034 108.628 107.473 108.196 107.047 107.621C106.621 107.04 106.367 106.414 106.286 105.745C106.205 105.069 106.165 103.886 106.165 102.196V99.3871C106.165 99.164 106.165 98.951 106.165 98.7482C106.165 98.7415 106.185 98.7347 106.225 98.728C106.266 98.7144 106.3 98.7043 106.327 98.6975C106.361 98.684 106.371 98.6739 106.357 98.6671C106.344 98.6536 106.279 98.6401 106.165 98.6266C106.11 98.6266 106.097 98.5928 106.124 98.5252C106.151 98.4508 106.165 98.39 106.165 98.3426C106.165 98.3224 106.293 98.3021 106.55 98.2818C106.807 98.2548 107.091 98.2311 107.402 98.2108C107.713 98.1905 108 98.1669 108.264 98.1398C108.527 98.1128 108.662 98.0858 108.669 98.0587C108.669 98.0384 108.537 98.0181 108.274 97.9979C108.01 97.9708 107.723 97.9472 107.412 97.9269C107.101 97.9066 106.817 97.8829 106.56 97.8559C106.303 97.8289 106.178 97.8018 106.185 97.7748C106.185 97.7342 106.205 97.6903 106.246 97.643C106.293 97.5956 106.276 97.5517 106.195 97.5111C106.154 97.4909 106.144 97.4571 106.165 97.4097C106.185 97.3557 106.198 97.3083 106.205 97.2678C106.219 96.6796 106.246 96.2166 106.286 95.8786C106.361 95.1958 106.601 94.5705 107.006 94.0026C107.419 93.4348 107.973 92.9987 108.669 92.6945C109.372 92.3903 110.183 92.2382 111.103 92.2382C111.975 92.2382 112.762 92.3836 113.465 92.6743C114.169 92.9649 114.733 93.3942 115.159 93.9621C115.585 94.5367 115.838 95.162 115.919 95.838C116.001 96.514 116.041 97.697 116.041 99.3871V102.196ZM111.772 96.8013C111.779 96.6323 111.775 96.4768 111.762 96.3349C111.762 96.3146 111.87 96.2977 112.086 96.2842C112.309 96.2707 112.492 96.2538 112.634 96.2335C112.776 96.2132 112.81 96.1929 112.735 96.1726C112.668 96.1523 112.34 96.1321 111.752 96.1118C111.752 96.0915 111.752 96.0442 111.752 95.9698C111.738 95.6656 111.704 95.4527 111.65 95.331C111.562 95.1147 111.387 95.0099 111.123 95.0166C110.9 95.0099 110.731 95.0944 110.616 95.2702C110.494 95.4459 110.434 95.9563 110.434 96.8013V99.3161L110.2 99.4783L110.434 99.6V99.9854L110.292 100.219L110.434 100.797V101.76L109.592 101.811L110.434 101.932V104.467C110.434 105.421 110.474 106.009 110.555 106.232C110.63 106.455 110.809 106.566 111.093 106.566C111.39 106.566 111.576 106.438 111.65 106.181C111.731 105.924 111.772 105.312 111.772 104.346V96.8013ZM114.236 95.7974L114.104 95.909L114.216 96.0307L114.348 96.0408L114.439 95.9597V95.8583L114.236 95.7974ZM113.273 96.1016L113.06 96.2538L113.242 96.4261L113.445 96.4464L113.597 96.3247V96.1828L113.273 96.1016ZM114.074 105.238L113.78 105.633V105.948L114.348 105.978L114.571 105.491L114.074 105.238ZM113.374 106.171L113.303 107.225V107.54L113.871 107.57L114.094 107.083L113.374 106.171ZM113.962 108.016L113.749 108.169L113.932 108.341L114.135 108.361L114.287 108.239V108.098L113.962 108.016ZM125.015 92.5323L126.151 100.807L126.496 102.845L126.668 103.859L126.435 104.336L126.84 104.883L127.145 106.942L127.297 107.966L127.449 109H123.078L122.865 106.049H121.334L121.081 109H116.619L117.674 100.766L118.039 99.2654V98.4136L118.728 92.5729H122.703L123.514 92.8568L124.214 92.5729L125.015 92.5323ZM119.296 93.9519L118.972 94.6009L119.215 95.4932L120.27 95.5744L120.594 94.9659L120.27 94.2764L119.296 93.9519ZM122.703 103.139C122.487 101.287 122.271 98.9916 122.054 96.2538C121.622 99.3972 121.392 101.148 121.365 101.506C121.338 101.871 121.277 102.108 121.182 102.216C121.088 102.331 121.074 102.409 121.142 102.449C121.209 102.49 121.243 102.72 121.243 103.139H122.703ZM125.025 107.073L124.975 107.296V107.55L125.492 107.58L125.654 107.388L125.492 107.185L125.025 107.073ZM123.849 107.702L123.585 108.108L123.788 108.665L124.63 108.716L124.893 108.331L124.63 107.905L123.849 107.702ZM120.077 108.209L120.026 108.432V108.686L120.543 108.716L120.706 108.523L120.543 108.321L120.077 108.209ZM128.088 92.4917L128.889 92.5323L129.7 92.5729H130.511L130.927 93.019L131.12 92.5729H131.322C133.384 92.5864 134.78 92.6844 135.51 92.8669C136.234 93.0562 136.781 93.3672 137.153 93.7998C137.532 94.2325 137.772 94.7124 137.873 95.2397C137.974 95.7738 138.039 96.8182 138.066 98.3731V101.243L138.035 102.683V103.403L137.376 103.565L138.025 103.849C138.012 105.498 137.941 106.573 137.812 107.073C137.67 107.574 137.427 107.966 137.082 108.25C136.737 108.527 136.311 108.719 135.804 108.828C135.297 108.943 134.533 109 133.513 109H128.088V94.3981L128.331 94.1547L128.108 93.7694L128.088 93.526V92.4917ZM129.923 93.0393L129.872 93.2624V93.5159L130.389 93.5463L130.552 93.3537L130.389 93.1508L129.923 93.0393ZM132.397 106.191C132.701 106.191 132.941 106.171 133.117 106.13C133.293 106.09 133.428 105.988 133.523 105.826C133.617 105.664 133.678 105.424 133.705 105.106C133.732 104.788 133.746 104.356 133.746 103.808V97.43C133.746 96.6932 133.722 96.2166 133.675 96.0002C133.628 95.7974 133.519 95.6453 133.35 95.5439C133.181 95.4425 132.864 95.3918 132.397 95.3918V106.191ZM136.899 104.153L136.849 104.376V104.63L137.366 104.66L137.528 104.467L137.366 104.265L136.899 104.153ZM135.358 106.952L135.307 107.175V107.428L135.825 107.459L135.987 107.266L135.825 107.063L135.358 106.952ZM136.21 107.276L136.159 107.499V107.753L136.676 107.783L136.839 107.591L136.889 107.418L136.21 107.276ZM135.318 107.844L135.267 108.067V108.321L135.784 108.351L135.946 108.158L135.784 107.956L135.318 107.844ZM128.625 108.209L128.656 108.392L128.585 108.686L129.092 108.716L129.254 108.523L129.092 108.321L128.625 108.209Z" fill="#161616"/>
<path d="M59.7344 128.355C59.7344 130.633 59.6833 132.236 59.5811 133.166C59.4695 134.114 59.1303 134.978 58.5632 135.759C57.9962 136.54 57.2387 137.139 56.2906 137.558C55.3239 137.976 54.2084 138.185 52.9443 138.185C51.7359 138.185 50.6484 137.99 49.6817 137.599C48.7243 137.2 47.9528 136.605 47.3672 135.815C46.7816 135.015 46.433 134.156 46.3215 133.235C46.2099 132.306 46.1542 130.679 46.1542 128.355V124.493C46.1542 124.186 46.1542 123.894 46.1542 123.615C46.1542 123.605 46.182 123.596 46.2378 123.587C46.2936 123.568 46.3401 123.554 46.3772 123.545C46.4237 123.526 46.4377 123.513 46.4191 123.503C46.4005 123.485 46.3122 123.466 46.1542 123.447C46.0798 123.447 46.0612 123.401 46.0984 123.308C46.1356 123.206 46.1542 123.122 46.1542 123.057C46.1542 123.029 46.3308 123.001 46.684 122.973C47.0372 122.936 47.4276 122.904 47.8552 122.876C48.2828 122.848 48.6778 122.815 49.0403 122.778C49.4028 122.741 49.5887 122.704 49.598 122.667C49.598 122.639 49.4168 122.611 49.0543 122.583C48.6917 122.546 48.2967 122.513 47.8691 122.485C47.4415 122.458 47.0511 122.425 46.6979 122.388C46.3447 122.351 46.1727 122.313 46.182 122.276C46.182 122.22 46.2099 122.16 46.2657 122.095C46.3308 122.03 46.3075 121.97 46.196 121.914C46.1402 121.886 46.1263 121.839 46.1542 121.774C46.182 121.7 46.2006 121.635 46.2099 121.579C46.2285 120.77 46.2657 120.134 46.3215 119.669C46.4237 118.73 46.7537 117.87 47.3114 117.09C47.8784 116.309 48.6406 115.709 49.598 115.291C50.5647 114.873 51.6802 114.664 52.9443 114.664C54.1434 114.664 55.2263 114.863 56.193 115.263C57.1597 115.663 57.9358 116.253 58.5214 117.034C59.107 117.824 59.4556 118.684 59.5671 119.613C59.6787 120.543 59.7344 122.169 59.7344 124.493V128.355ZM53.8645 120.938C53.8738 120.705 53.8692 120.492 53.8506 120.296C53.8506 120.269 53.9993 120.245 54.2967 120.227C54.6035 120.208 54.8545 120.185 55.0497 120.157C55.2449 120.129 55.2913 120.101 55.1891 120.073C55.0961 120.045 54.6453 120.018 53.8366 119.99C53.8366 119.962 53.8366 119.897 53.8366 119.794C53.818 119.376 53.7716 119.083 53.6972 118.916C53.5764 118.619 53.3347 118.475 52.9722 118.484C52.6654 118.475 52.4331 118.591 52.275 118.832C52.1077 119.074 52.0241 119.776 52.0241 120.938V124.396L51.7034 124.619L52.0241 124.786V125.316L51.8289 125.636L52.0241 126.431V127.756L50.8668 127.825L52.0241 127.993V131.479C52.0241 132.789 52.0798 133.598 52.1914 133.905C52.2936 134.211 52.54 134.365 52.9304 134.365C53.3393 134.365 53.595 134.188 53.6972 133.835C53.8088 133.482 53.8645 132.64 53.8645 131.311V120.938ZM57.2526 119.557L57.0714 119.711L57.2247 119.878L57.406 119.892L57.5315 119.781V119.641L57.2526 119.557ZM55.9281 119.976L55.6353 120.185L55.8862 120.422L56.1651 120.45L56.3742 120.282V120.087L55.9281 119.976ZM57.0295 132.538L56.6252 133.082V133.514L57.406 133.556L57.7127 132.887L57.0295 132.538ZM56.0675 133.821L55.9699 135.271V135.703L56.7507 135.745L57.0574 135.076L56.0675 133.821ZM56.8762 136.358L56.5834 136.568L56.8343 136.805L57.1132 136.833L57.3223 136.665V136.47L56.8762 136.358ZM75.197 115.138V131.506L74.2907 132.245H75.0715L75.197 132.622V132.705C75.197 132.761 75.1412 133.133 75.0297 133.821C74.9181 134.518 74.5882 135.234 74.0397 135.968C73.4913 136.693 72.7709 137.242 71.8786 137.613C70.9677 137.994 69.908 138.185 68.6997 138.185C67.3519 138.185 66.1574 137.967 65.1164 137.53C64.0846 137.084 63.3177 136.498 62.8158 135.773C62.3046 135.057 62.0025 134.3 61.9095 133.5C61.8166 132.701 61.7701 131.032 61.7701 128.495V125.162L62.3557 124.437L61.6864 124.214L61.7701 123.489V115.138H67.64V132.064C67.64 133.059 67.6958 133.686 67.8073 133.946C67.9096 134.225 68.1234 134.365 68.4487 134.365C68.8205 134.365 69.0622 134.211 69.1737 133.905C69.276 133.616 69.3271 132.905 69.3271 131.771V115.138H75.197ZM72.9522 115.737L73.1753 117.299L73.5099 118.079L73.9561 116.853L73.8445 115.96L72.9522 115.737ZM90.562 123.754V123.838C90.5712 123.912 90.3575 124.247 89.9206 124.842C89.4837 125.437 88.6239 125.799 87.3412 125.929C87.9175 126.078 88.3915 126.255 88.7633 126.459C89.1444 126.654 89.4465 126.863 89.6696 127.087C89.902 127.31 90.074 127.537 90.1855 127.77C90.297 128.002 90.3807 128.216 90.4365 128.411C90.5294 128.82 90.5759 129.936 90.5759 131.757V137.711H85.0546V130.126L85.5565 129.457L85.1103 129.122V128.62C85.1289 128.472 85.0406 128.253 84.8454 127.965C84.6502 127.677 84.1483 127.533 83.3396 127.533V137.711L77.5673 137.599V127.644L77.8043 127.059L77.5812 126.222L77.5254 123.503L77.8601 122.82L77.4697 122.262V115.138H81.6246C84.3946 115.147 86.2722 115.254 87.2575 115.458C88.2335 115.681 89.0282 116.234 89.6417 117.117C90.2552 117.991 90.548 119.334 90.5201 121.147L90.548 122.541L89.9066 122.987L90.4644 123.21L90.562 123.754ZM85.1243 120.743L85.4449 120.422L85.1243 119.948V119.711C85.1243 119.683 84.9988 119.557 84.7478 119.334C84.4875 119.111 84.0181 119 83.3396 119V124.019C83.6649 124.019 83.9391 124.01 84.1622 123.991C84.3946 123.973 84.5805 123.898 84.7199 123.768C84.8594 123.638 84.9616 123.434 85.0267 123.155C85.0917 122.876 85.1243 122.485 85.1243 121.983V120.743ZM86.3931 134.476L86.0445 135.229L86.2257 135.48L86.2955 135.494L87.0623 135.034L86.3931 134.476ZM88.9446 136.582L88.6239 136.149L88.9446 136.108L88.5263 135.926L88.0104 136.317L88.5124 136.819L88.9446 136.582ZM87.2157 137.307V136.512L86.4488 136.205L85.9887 136.735L86.3373 137.153L87.2157 137.307ZM90.0042 137.362L89.6836 136.93L90.0042 136.888L89.586 136.707L89.0701 137.097L89.572 137.599L90.0042 137.362ZM108.13 115.068L109.691 126.445L110.166 129.248L110.403 130.642L110.082 131.297L110.64 132.05L111.058 134.881L111.267 136.289L111.476 137.711H105.467L105.174 133.654H103.069L102.72 137.711H96.5852L98.0353 126.389L98.5372 124.326V123.155L99.4853 115.124H104.951L106.066 115.514L107.028 115.124L108.13 115.068ZM100.266 117.02L99.82 117.912L100.155 119.139L101.605 119.251L102.051 118.414L101.605 117.466L100.266 117.02ZM104.951 129.652C104.653 127.105 104.356 123.949 104.059 120.185C103.464 124.507 103.148 126.915 103.11 127.407C103.073 127.909 102.99 128.234 102.859 128.383C102.729 128.541 102.711 128.648 102.804 128.704C102.897 128.76 102.943 129.076 102.943 129.652H104.951ZM108.144 135.062L108.074 135.369V135.717L108.785 135.759L109.008 135.494L108.785 135.215L108.144 135.062ZM106.526 135.926L106.164 136.484L106.443 137.251L107.6 137.321L107.963 136.791L107.6 136.205L106.526 135.926ZM101.34 136.623L101.27 136.93V137.279L101.981 137.321L102.204 137.056L101.981 136.777L101.34 136.623ZM112.41 115.138H118.322C119.912 115.138 121.138 115.263 122.003 115.514C122.867 115.765 123.518 116.127 123.955 116.602C124.169 116.843 124.345 117.103 124.485 117.382C124.624 117.652 124.736 117.973 124.819 118.344C124.903 118.707 124.963 119.144 125.001 119.655C125.038 120.157 125.056 120.757 125.056 121.454L125.015 123.378V124.479L124.513 124.884L125.042 125.302V125.441C125.061 125.534 124.917 125.911 124.61 126.571C124.304 127.24 123.755 127.751 122.965 128.104C122.175 128.448 121.138 128.62 119.856 128.62H118.28V137.711L112.41 137.599V126.375L112.522 120.757L112.438 118.665L112.968 118.414L112.41 117.954V115.138ZM118.28 124.744C118.438 124.763 118.582 124.767 118.712 124.758C119.242 124.758 119.614 124.628 119.828 124.368C120.042 124.107 120.135 123.517 120.107 122.597V121.732L120.441 121.37L120.135 121.077L120.149 120.854C120.149 120.083 120.023 119.581 119.772 119.348C119.53 119.116 119.033 119 118.28 119V124.744ZM113.024 136.819L113.805 136.261L113.358 134.476L113.693 133.138L113.358 131.688L113.693 130.015V128.341L113.358 127.114L113.805 124.549C113.433 123.805 113.173 123.434 113.024 123.434V136.819ZM123.69 124.772L123.174 125.162L123.676 125.664L124.108 125.427L123.788 124.995L124.108 124.953L123.69 124.772ZM126.743 115.138H132.655C134.245 115.138 135.472 115.263 136.336 115.514C137.201 115.765 137.851 116.127 138.288 116.602C138.502 116.843 138.679 117.103 138.818 117.382C138.957 117.652 139.069 117.973 139.153 118.344C139.236 118.707 139.297 119.144 139.334 119.655C139.371 120.157 139.39 120.757 139.39 121.454L139.348 123.378V124.479L138.846 124.884L139.376 125.302V125.441C139.394 125.534 139.25 125.911 138.943 126.571C138.637 127.24 138.088 127.751 137.298 128.104C136.508 128.448 135.472 128.62 134.189 128.62H132.613V137.711L126.743 137.599V126.375L126.855 120.757L126.771 118.665L127.301 118.414L126.743 117.954V115.138ZM132.613 124.744C132.771 124.763 132.916 124.767 133.046 124.758C133.575 124.758 133.947 124.628 134.161 124.368C134.375 124.107 134.468 123.517 134.44 122.597V121.732L134.775 121.37L134.468 121.077L134.482 120.854C134.482 120.083 134.356 119.581 134.105 119.348C133.864 119.116 133.366 119 132.613 119V124.744ZM127.357 136.819L128.138 136.261L127.692 134.476L128.026 133.138L127.692 131.688L128.026 130.015V128.341L127.692 127.114L128.138 124.549C127.766 123.805 127.506 123.434 127.357 123.434V136.819ZM138.023 124.772L137.507 125.162L138.009 125.664L138.441 125.427L138.121 124.995L138.441 124.953L138.023 124.772Z" fill="url(#paint1_linear_2001_7)"/>
<defs>
<linearGradient id="paint0_linear_2001_7" x1="92.5001" y1="0" x2="92.5001" y2="173" gradientUnits="userSpaceOnUse">
<stop stop-color="#82BC29"/>
<stop offset="1" stop-color="#4D8F2D"/>
</linearGradient>
<linearGradient id="paint1_linear_2001_7" x1="92.5" y1="113.711" x2="92.5" y2="134.711" gradientUnits="userSpaceOnUse">
<stop stop-color="#82BC29"/>
<stop offset="1" stop-color="#4D8F2D"/>
</linearGradient>
<clipPath id="clip0_2001_7">
<rect width="173" height="173" fill="white" transform="translate(6)"/>
</clipPath>
<clipPath id="clip1_2001_7">
<rect width="154.75" height="154.75" fill="white" transform="translate(15.125 9.125)"/>
</clipPath>
<clipPath id="clip2_2001_7">
<rect width="44.1781" height="61.5455" fill="white" transform="translate(70 21)"/>
</clipPath>
</defs>
</svg>
