<svg width="173" height="173" viewBox="0 0 173 173" fill="none" xmlns="http://www.w3.org/2000/svg">
<g clip-path="url(#clip0_795_311)">
<path d="M86.5001 173C134.273 173 173 134.273 173 86.5001C173 38.7274 134.273 0 86.5001 0C38.7274 0 0 38.7274 0 86.5001C0 134.273 38.7274 173 86.5001 173Z" fill="url(#paint0_linear_795_311)"/>
</g>
<g clip-path="url(#clip1_795_311)">
<path d="M86.4998 163.875C129.233 163.875 163.875 129.233 163.875 86.4998C163.875 43.7669 129.233 9.125 86.4998 9.125C43.7669 9.125 9.125 43.7669 9.125 86.4998C9.125 129.233 43.7669 163.875 86.4998 163.875Z" fill="white"/>
</g>
<g clip-path="url(#clip2_795_311)">
<path d="M75.3918 65.2942L73.0261 64.871L75.2187 52.4273C75.3533 51.6195 75.2187 50.7733 74.7956 50.0616L72.1606 45.4842H66.41C65.0829 45.4842 64.0059 44.4072 64.0059 43.0801H72.4107C73.1031 43.0801 73.757 43.4455 74.1032 44.061L76.8727 48.8692C77.5651 50.0809 77.8151 51.4849 77.5843 52.8697L75.3918 65.2942Z" fill="#96BF48"/>
<path d="M80.3361 82.5458C81.9294 82.5458 83.2211 81.2541 83.2211 79.6608C83.2211 78.0675 81.9294 76.7759 80.3361 76.7759C78.7428 76.7759 77.4512 78.0675 77.4512 79.6608C77.4512 81.2541 78.7428 82.5458 80.3361 82.5458Z" fill="#96BF48"/>
<path d="M95.4318 74.6994H77.4105C75.6026 74.6994 73.9294 73.757 72.987 72.1799C72.3523 71.1029 72.1599 69.8143 72.3715 68.5834L73.0254 64.8906L75.3911 65.3137L74.7372 69.0449C74.6218 69.6796 74.6987 70.3336 75.0064 70.8913C75.5065 71.7953 76.4104 72.3338 77.4105 72.3338H93.0277C94.3548 72.2953 95.4318 73.3724 95.4318 74.6994Z" fill="#96BF48"/>
<path d="M92.4494 82.5458C94.0427 82.5458 95.3343 81.2541 95.3343 79.6608C95.3343 78.0675 94.0427 76.7759 92.4494 76.7759C90.8561 76.7759 89.5645 78.0675 89.5645 79.6608C89.5645 81.2541 90.8561 82.5458 92.4494 82.5458Z" fill="#96BF48"/>
<path d="M96.7775 27.5408H90.8922C90.3922 27.5408 89.9883 27.1369 89.9883 26.6369C89.9883 26.1368 90.3922 25.7329 90.8922 25.7329H96.7775C97.2776 25.7329 97.6815 26.1368 97.6815 26.6369C97.6815 27.1369 97.2776 27.5408 96.7775 27.5408Z" fill="#161616"/>
<path d="M86.986 27.54C86.7552 27.54 86.5244 27.4439 86.3513 27.2708C86.3128 27.2323 86.2744 27.1746 86.2359 27.1361C86.1974 27.0784 86.1782 27.04 86.159 26.9823C86.1397 26.9246 86.1205 26.8669 86.1013 26.8092C86.082 26.7515 86.082 26.6938 86.082 26.6361C86.082 26.4053 86.1782 26.1745 86.3513 26.0014C86.5629 25.7898 86.8706 25.6937 87.1591 25.7514C87.2168 25.7706 87.2745 25.7898 87.3322 25.8091C87.3899 25.8283 87.4476 25.8668 87.486 25.886C87.5437 25.9245 87.5822 25.9629 87.6207 26.0014C87.7938 26.1745 87.8899 26.4053 87.8899 26.6361C87.8899 26.8669 87.7938 27.0977 87.6207 27.2708C87.4668 27.4439 87.2168 27.54 86.986 27.54Z" fill="#161616"/>
<path d="M106.55 35.8306C106.492 35.8306 106.454 35.8306 106.396 35.8114C105.896 35.7152 105.569 35.2536 105.665 34.7728L106.3 31.1185C106.396 30.6377 106.858 30.2915 107.338 30.3877C107.839 30.4838 108.166 30.9454 108.069 31.4263L107.435 35.0805C107.358 35.5229 106.992 35.8306 106.55 35.8306Z" fill="#161616"/>
<path d="M105.241 43.3116C105.184 43.3116 105.145 43.3116 105.087 43.2924C104.587 43.1962 104.26 42.7346 104.357 42.2538L104.991 38.5995C105.087 38.0995 105.549 37.7917 106.03 37.8687C106.53 37.9648 106.857 38.4264 106.761 38.9073L106.126 42.5615C106.049 43.0039 105.664 43.3116 105.241 43.3116Z" fill="#161616"/>
<path d="M78.1827 35.8306C78.125 35.8306 78.0866 35.8306 78.0289 35.8114C77.5288 35.7152 77.2019 35.2536 77.298 34.7728L77.9327 31.1185C78.0289 30.6377 78.4905 30.2915 78.9713 30.3877C79.4714 30.4838 79.7983 30.9454 79.7021 31.4263L79.0675 35.0805C78.9905 35.5229 78.6251 35.8306 78.1827 35.8306Z" fill="#161616"/>
<path d="M102.815 55.5419L80.8898 49.772C80.659 51.1183 81.486 52.4069 82.8131 52.7531L100.084 57.2921L98.7572 64.8506C98.5649 65.9469 97.4878 66.8701 96.4108 66.8701H73.6582V69.2742H96.3723C98.6226 69.2742 100.7 67.524 101.084 65.2737L102.815 55.5419Z" fill="#96BF48"/>
<path d="M107.335 22.2881C106.643 21.4611 105.604 20.9995 104.45 20.9995H84.7556C82.5053 20.9995 80.4281 22.7497 80.0435 25L76.8893 42.8289C76.6585 44.1752 76.8893 45.56 77.5817 46.7332L78.3125 48.0026C78.3318 48.0411 78.3702 48.0988 78.3895 48.1565L82.4091 25.4231C82.6015 24.3268 83.6785 23.4036 84.7556 23.4036H104.45C104.892 23.4036 105.258 23.5575 105.489 23.846C105.739 24.1345 105.835 24.5576 105.739 25L101.161 50.8875C100.93 52.2339 101.758 53.5225 103.085 53.8687L108.104 25.4039C108.335 24.2691 108.047 23.1344 107.335 22.2881Z" fill="#161616"/>
</g>
<path d="M41.2702 92.4917L42.0712 92.5323L42.8824 92.5729H43.6937L44.1094 93.019L44.3021 92.5729H44.5049C46.5667 92.5864 47.9627 92.6844 48.6928 92.8669C49.4161 93.0562 49.9637 93.3672 50.3355 93.7998C50.7141 94.2325 50.9541 94.7124 51.0555 95.2397C51.1569 95.7738 51.2211 96.8182 51.2481 98.3731V101.243L51.2177 102.683V103.403L50.5586 103.565L51.2076 103.849C51.194 105.498 51.1231 106.573 50.9946 107.073C50.8527 107.574 50.6093 107.966 50.2645 108.25C49.9198 108.527 49.4939 108.719 48.9869 108.828C48.4798 108.943 47.716 109 46.6952 109H41.2702V94.3981L41.5135 94.1547L41.2904 93.7694L41.2702 93.526V92.4917ZM43.1055 93.0393L43.0548 93.2624V93.5159L43.572 93.5463L43.7342 93.3537L43.572 93.1508L43.1055 93.0393ZM45.5797 106.191C45.884 106.191 46.1239 106.171 46.2997 106.13C46.4755 106.09 46.6107 105.988 46.7053 105.826C46.8 105.664 46.8608 105.424 46.8878 105.106C46.9149 104.788 46.9284 104.356 46.9284 103.808V97.43C46.9284 96.6932 46.9047 96.2166 46.8574 96.0002C46.8101 95.7974 46.7019 95.6453 46.5329 95.5439C46.3639 95.4425 46.0462 95.3918 45.5797 95.3918V106.191ZM50.082 104.153L50.0313 104.376V104.63L50.5484 104.66L50.7107 104.467L50.5484 104.265L50.082 104.153ZM48.5407 106.952L48.49 107.175V107.428L49.0071 107.459L49.1694 107.266L49.0071 107.063L48.5407 106.952ZM49.3925 107.276L49.3418 107.499V107.753L49.8589 107.783L50.0212 107.591L50.0719 107.418L49.3925 107.276ZM48.5001 107.844L48.4494 108.067V108.321L48.9666 108.351L49.1288 108.158L48.9666 107.956L48.5001 107.844ZM41.8076 108.209L41.838 108.392L41.767 108.686L42.274 108.716L42.4363 108.523L42.274 108.321L41.8076 108.209ZM62.6052 102.196C62.6052 103.852 62.568 105.018 62.4936 105.694C62.4125 106.384 62.1658 107.013 61.7534 107.58C61.341 108.148 60.7901 108.584 60.1005 108.888C59.3975 109.193 58.5863 109.345 57.6669 109.345C56.7881 109.345 55.9971 109.203 55.2941 108.919C54.5978 108.628 54.0367 108.196 53.6108 107.621C53.1849 107.04 52.9314 106.414 52.8503 105.745C52.7692 105.069 52.7286 103.886 52.7286 102.196V99.3871C52.7286 99.164 52.7286 98.951 52.7286 98.7482C52.7286 98.7415 52.7489 98.7347 52.7894 98.728C52.83 98.7144 52.8638 98.7043 52.8908 98.6975C52.9246 98.684 52.9348 98.6739 52.9213 98.6671C52.9077 98.6536 52.8435 98.6401 52.7286 98.6266C52.6745 98.6266 52.661 98.5928 52.688 98.5252C52.7151 98.4508 52.7286 98.39 52.7286 98.3426C52.7286 98.3224 52.857 98.3021 53.1139 98.2818C53.3708 98.2548 53.6547 98.2311 53.9657 98.2108C54.2767 98.1905 54.564 98.1669 54.8276 98.1398C55.0913 98.1128 55.2265 98.0858 55.2332 98.0587C55.2332 98.0384 55.1014 98.0181 54.8378 97.9979C54.5741 97.9708 54.2868 97.9472 53.9758 97.9269C53.6649 97.9066 53.3809 97.8829 53.1241 97.8559C52.8672 97.8289 52.7421 97.8018 52.7489 97.7748C52.7489 97.7342 52.7692 97.6903 52.8097 97.643C52.857 97.5956 52.8401 97.5517 52.759 97.5111C52.7185 97.4909 52.7083 97.4571 52.7286 97.4097C52.7489 97.3557 52.7624 97.3083 52.7692 97.2678C52.7827 96.6796 52.8097 96.2166 52.8503 95.8786C52.9246 95.1958 53.1646 94.5705 53.5702 94.0026C53.9826 93.4348 54.5369 92.9987 55.2332 92.6945C55.9363 92.3903 56.7475 92.2382 57.6669 92.2382C58.5389 92.2382 59.3265 92.3836 60.0295 92.6743C60.7326 92.9649 61.2971 93.3942 61.723 93.9621C62.1489 94.5367 62.4024 95.162 62.4835 95.838C62.5646 96.514 62.6052 97.697 62.6052 99.3871V102.196ZM58.3361 96.8013C58.3429 96.6323 58.3395 96.4768 58.326 96.3349C58.326 96.3146 58.4342 96.2977 58.6505 96.2842C58.8736 96.2707 59.0561 96.2538 59.1981 96.2335C59.34 96.2132 59.3738 96.1929 59.2995 96.1726C59.2319 96.1523 58.904 96.1321 58.3159 96.1118C58.3159 96.0915 58.3159 96.0442 58.3159 95.9698C58.3023 95.6656 58.2685 95.4527 58.2145 95.331C58.1266 95.1147 57.9508 95.0099 57.6872 95.0166C57.4641 95.0099 57.2951 95.0944 57.1801 95.2702C57.0585 95.4459 56.9976 95.9563 56.9976 96.8013V99.3161L56.7644 99.4783L56.9976 99.6V99.9854L56.8557 100.219L56.9976 100.797V101.76L56.156 101.811L56.9976 101.932V104.467C56.9976 105.421 57.0382 106.009 57.1193 106.232C57.1937 106.455 57.3728 106.566 57.6567 106.566C57.9542 106.566 58.1401 106.438 58.2145 106.181C58.2956 105.924 58.3361 105.312 58.3361 104.346V96.8013ZM60.8002 95.7974L60.6684 95.909L60.7799 96.0307L60.9117 96.0408L61.003 95.9597V95.8583L60.8002 95.7974ZM59.8369 96.1016L59.6239 96.2538L59.8065 96.4261L60.0093 96.4464L60.1614 96.3247V96.1828L59.8369 96.1016ZM60.638 105.238L60.3439 105.633V105.948L60.9117 105.978L61.1348 105.491L60.638 105.238ZM59.9383 106.171L59.8673 107.225V107.54L60.4352 107.57L60.6582 107.083L59.9383 106.171ZM60.5264 108.016L60.3135 108.169L60.496 108.341L60.6988 108.361L60.8509 108.239V108.098L60.5264 108.016ZM80.2187 92.583L78.3225 109H74.3272L73.6884 108.513L73.3234 109H72.9887C72.5088 106.478 72.0795 103.612 71.7009 100.401C71.5252 101.767 71.1297 104.633 70.5145 109H69.1963L68.4155 108.513L67.8679 109H65.2112L63.3048 92.583H64.3391L64.765 93.019L65.3734 92.583H67.4522L67.8882 98.3122L68.3344 103.839C68.4831 100.979 68.8752 97.2272 69.5106 92.583H72.8366L73.2828 93.1813L73.6681 92.583H73.9521C74.0061 93.0562 74.1616 94.8612 74.4185 97.9979L74.885 104.234C75.1148 100.273 75.5103 96.389 76.0714 92.583H80.2187ZM76.6899 93.1813L76.5277 94.6415L76.771 96.0205L77.5823 94.3981L76.6899 93.1813ZM66.7931 106.242L67.442 106.566L67.5232 105.674L66.7119 105.836L66.7931 106.242ZM68.1721 107.378L68.3344 108.027L69.2267 107.702L69.1456 107.053L68.1721 107.378ZM90.5921 92.583V109H86.8504L84.6297 101.537V109L80.9792 108.919L80.9995 107.885V107.388L84.3458 107.134L81.0198 107.175L81.0401 105.857V92.583H84.6297L87.0228 99.9752V92.583H90.5921ZM81.76 92.9785L81.4051 93.4652L81.6688 93.8505L82.2873 93.7998L82.267 93.4956L82.3482 93.2522L81.76 92.9785ZM89.5376 103.321L90.1054 102.916L89.7809 101.618L90.0243 100.644L89.7809 99.5899L90.0243 98.3731V97.1562L89.7809 96.2639L90.1054 94.3981C89.835 93.8573 89.6457 93.5869 89.5376 93.5869V103.321ZM96.5749 92.4917V99.1032C96.629 99.7251 96.629 101.378 96.5749 104.062V105.715H99.1809L99.1302 109H94.0195L93.33 108.676L93.0866 109H92.1943V100.685L92.3058 98.6975L92.3971 97.8052L92.2754 96.6695L92.3667 94.5603L92.316 93.5463L92.3971 92.4917L94.486 92.5729H95.5304L95.9259 92.9379L96.3214 92.5729L96.5749 92.4917ZM93.1272 93.3841L92.7926 93.7694L93.0461 94.0736L93.6849 94.1851V93.6072L93.1272 93.3841ZM95.5203 103.727L96.0881 103.321L95.7637 102.024L96.007 101.05L95.7637 99.9955L96.007 98.7787V97.5618L95.7637 96.6695L96.0881 94.8037C95.8177 94.2629 95.6285 93.9925 95.5203 93.9925V103.727ZM98.3291 106.14L98.2784 106.364V106.617L98.7956 106.647L98.9578 106.455L98.7956 106.252L98.3291 106.14ZM97.3455 106.607L97.0109 106.992L97.2644 107.296L97.9032 107.408V106.83L97.3455 106.607ZM92.965 107.783L92.8331 107.945L92.9345 108.087L93.1982 108.138L93.2083 107.976L93.1982 107.874L92.965 107.783ZM94.6787 108.148L94.486 108.432L94.628 108.655L94.9829 108.746V108.31L94.6787 108.148ZM110.041 102.196C110.041 103.852 110.004 105.018 109.93 105.694C109.848 106.384 109.602 107.013 109.189 107.58C108.777 108.148 108.226 108.584 107.536 108.888C106.833 109.193 106.022 109.345 105.103 109.345C104.224 109.345 103.433 109.203 102.73 108.919C102.034 108.628 101.473 108.196 101.047 107.621C100.621 107.04 100.367 106.414 100.286 105.745C100.205 105.069 100.165 103.886 100.165 102.196V99.3871C100.165 99.164 100.165 98.951 100.165 98.7482C100.165 98.7415 100.185 98.7347 100.225 98.728C100.266 98.7144 100.3 98.7043 100.327 98.6975C100.361 98.684 100.371 98.6739 100.357 98.6671C100.344 98.6536 100.279 98.6401 100.165 98.6266C100.11 98.6266 100.097 98.5928 100.124 98.5252C100.151 98.4508 100.165 98.39 100.165 98.3426C100.165 98.3224 100.293 98.3021 100.55 98.2818C100.807 98.2548 101.091 98.2311 101.402 98.2108C101.713 98.1905 102 98.1669 102.264 98.1398C102.527 98.1128 102.662 98.0858 102.669 98.0587C102.669 98.0384 102.537 98.0181 102.274 97.9979C102.01 97.9708 101.723 97.9472 101.412 97.9269C101.101 97.9066 100.817 97.8829 100.56 97.8559C100.303 97.8289 100.178 97.8018 100.185 97.7748C100.185 97.7342 100.205 97.6903 100.246 97.643C100.293 97.5956 100.276 97.5517 100.195 97.5111C100.154 97.4909 100.144 97.4571 100.165 97.4097C100.185 97.3557 100.198 97.3083 100.205 97.2678C100.219 96.6796 100.246 96.2166 100.286 95.8786C100.361 95.1958 100.601 94.5705 101.006 94.0026C101.419 93.4348 101.973 92.9987 102.669 92.6945C103.372 92.3903 104.183 92.2382 105.103 92.2382C105.975 92.2382 106.762 92.3836 107.465 92.6743C108.169 92.9649 108.733 93.3942 109.159 93.9621C109.585 94.5367 109.838 95.162 109.919 95.838C110.001 96.514 110.041 97.697 110.041 99.3871V102.196ZM105.772 96.8013C105.779 96.6323 105.775 96.4768 105.762 96.3349C105.762 96.3146 105.87 96.2977 106.086 96.2842C106.309 96.2707 106.492 96.2538 106.634 96.2335C106.776 96.2132 106.81 96.1929 106.735 96.1726C106.668 96.1523 106.34 96.1321 105.752 96.1118C105.752 96.0915 105.752 96.0442 105.752 95.9698C105.738 95.6656 105.704 95.4527 105.65 95.331C105.562 95.1147 105.387 95.0099 105.123 95.0166C104.9 95.0099 104.731 95.0944 104.616 95.2702C104.494 95.4459 104.434 95.9563 104.434 96.8013V99.3161L104.2 99.4783L104.434 99.6V99.9854L104.292 100.219L104.434 100.797V101.76L103.592 101.811L104.434 101.932V104.467C104.434 105.421 104.474 106.009 104.555 106.232C104.63 106.455 104.809 106.566 105.093 106.566C105.39 106.566 105.576 106.438 105.65 106.181C105.731 105.924 105.772 105.312 105.772 104.346V96.8013ZM108.236 95.7974L108.104 95.909L108.216 96.0307L108.348 96.0408L108.439 95.9597V95.8583L108.236 95.7974ZM107.273 96.1016L107.06 96.2538L107.242 96.4261L107.445 96.4464L107.597 96.3247V96.1828L107.273 96.1016ZM108.074 105.238L107.78 105.633V105.948L108.348 105.978L108.571 105.491L108.074 105.238ZM107.374 106.171L107.303 107.225V107.54L107.871 107.57L108.094 107.083L107.374 106.171ZM107.962 108.016L107.749 108.169L107.932 108.341L108.135 108.361L108.287 108.239V108.098L107.962 108.016ZM119.015 92.5323L120.151 100.807L120.496 102.845L120.668 103.859L120.435 104.336L120.84 104.883L121.145 106.942L121.297 107.966L121.449 109H117.078L116.865 106.049H115.334L115.081 109H110.619L111.674 100.766L112.039 99.2654V98.4136L112.728 92.5729H116.703L117.514 92.8568L118.214 92.5729L119.015 92.5323ZM113.296 93.9519L112.972 94.6009L113.215 95.4932L114.27 95.5744L114.594 94.9659L114.27 94.2764L113.296 93.9519ZM116.703 103.139C116.487 101.287 116.271 98.9916 116.054 96.2538C115.622 99.3972 115.392 101.148 115.365 101.506C115.338 101.871 115.277 102.108 115.182 102.216C115.088 102.331 115.074 102.409 115.142 102.449C115.209 102.49 115.243 102.72 115.243 103.139H116.703ZM119.025 107.073L118.975 107.296V107.55L119.492 107.58L119.654 107.388L119.492 107.185L119.025 107.073ZM117.849 107.702L117.585 108.108L117.788 108.665L118.63 108.716L118.893 108.331L118.63 107.905L117.849 107.702ZM114.077 108.209L114.026 108.432V108.686L114.543 108.716L114.706 108.523L114.543 108.321L114.077 108.209ZM122.088 92.4917L122.889 92.5323L123.7 92.5729H124.511L124.927 93.019L125.12 92.5729H125.322C127.384 92.5864 128.78 92.6844 129.51 92.8669C130.234 93.0562 130.781 93.3672 131.153 93.7998C131.532 94.2325 131.772 94.7124 131.873 95.2397C131.974 95.7738 132.039 96.8182 132.066 98.3731V101.243L132.035 102.683V103.403L131.376 103.565L132.025 103.849C132.012 105.498 131.941 106.573 131.812 107.073C131.67 107.574 131.427 107.966 131.082 108.25C130.737 108.527 130.311 108.719 129.804 108.828C129.297 108.943 128.533 109 127.513 109H122.088V94.3981L122.331 94.1547L122.108 93.7694L122.088 93.526V92.4917ZM123.923 93.0393L123.872 93.2624V93.5159L124.389 93.5463L124.552 93.3537L124.389 93.1508L123.923 93.0393ZM126.397 106.191C126.701 106.191 126.941 106.171 127.117 106.13C127.293 106.09 127.428 105.988 127.523 105.826C127.617 105.664 127.678 105.424 127.705 105.106C127.732 104.788 127.746 104.356 127.746 103.808V97.43C127.746 96.6932 127.722 96.2166 127.675 96.0002C127.628 95.7974 127.519 95.6453 127.35 95.5439C127.181 95.4425 126.864 95.3918 126.397 95.3918V106.191ZM130.899 104.153L130.849 104.376V104.63L131.366 104.66L131.528 104.467L131.366 104.265L130.899 104.153ZM129.358 106.952L129.307 107.175V107.428L129.825 107.459L129.987 107.266L129.825 107.063L129.358 106.952ZM130.21 107.276L130.159 107.499V107.753L130.676 107.783L130.839 107.591L130.889 107.418L130.21 107.276ZM129.318 107.844L129.267 108.067V108.321L129.784 108.351L129.946 108.158L129.784 107.956L129.318 107.844ZM122.625 108.209L122.656 108.392L122.585 108.686L123.092 108.716L123.254 108.523L123.092 108.321L122.625 108.209Z" fill="#161616"/>
<path d="M53.7344 128.355C53.7344 130.633 53.6833 132.236 53.5811 133.166C53.4695 134.114 53.1303 134.978 52.5632 135.759C51.9962 136.54 51.2387 137.139 50.2906 137.558C49.3239 137.976 48.2084 138.185 46.9443 138.185C45.7359 138.185 44.6484 137.99 43.6817 137.599C42.7243 137.2 41.9528 136.605 41.3672 135.815C40.7816 135.015 40.433 134.156 40.3215 133.235C40.2099 132.306 40.1542 130.679 40.1542 128.355V124.493C40.1542 124.186 40.1542 123.894 40.1542 123.615C40.1542 123.605 40.182 123.596 40.2378 123.587C40.2936 123.568 40.3401 123.554 40.3772 123.545C40.4237 123.526 40.4377 123.513 40.4191 123.503C40.4005 123.485 40.3122 123.466 40.1542 123.447C40.0798 123.447 40.0612 123.401 40.0984 123.308C40.1356 123.206 40.1542 123.122 40.1542 123.057C40.1542 123.029 40.3308 123.001 40.684 122.973C41.0372 122.936 41.4276 122.904 41.8552 122.876C42.2828 122.848 42.6778 122.815 43.0403 122.778C43.4028 122.741 43.5887 122.704 43.598 122.667C43.598 122.639 43.4168 122.611 43.0543 122.583C42.6917 122.546 42.2967 122.513 41.8691 122.485C41.4415 122.458 41.0511 122.425 40.6979 122.388C40.3447 122.351 40.1727 122.313 40.182 122.276C40.182 122.22 40.2099 122.16 40.2657 122.095C40.3308 122.03 40.3075 121.97 40.196 121.914C40.1402 121.886 40.1263 121.839 40.1542 121.774C40.182 121.7 40.2006 121.635 40.2099 121.579C40.2285 120.77 40.2657 120.134 40.3215 119.669C40.4237 118.73 40.7537 117.87 41.3114 117.09C41.8784 116.309 42.6406 115.709 43.598 115.291C44.5647 114.873 45.6802 114.664 46.9443 114.664C48.1434 114.664 49.2263 114.863 50.193 115.263C51.1597 115.663 51.9358 116.253 52.5214 117.034C53.107 117.824 53.4556 118.684 53.5671 119.613C53.6787 120.543 53.7344 122.169 53.7344 124.493V128.355ZM47.8645 120.938C47.8738 120.705 47.8692 120.492 47.8506 120.296C47.8506 120.269 47.9993 120.245 48.2967 120.227C48.6035 120.208 48.8545 120.185 49.0497 120.157C49.2449 120.129 49.2913 120.101 49.1891 120.073C49.0961 120.045 48.6453 120.018 47.8366 119.99C47.8366 119.962 47.8366 119.897 47.8366 119.794C47.818 119.376 47.7716 119.083 47.6972 118.916C47.5764 118.619 47.3347 118.475 46.9722 118.484C46.6654 118.475 46.4331 118.591 46.275 118.832C46.1077 119.074 46.0241 119.776 46.0241 120.938V124.396L45.7034 124.619L46.0241 124.786V125.316L45.8289 125.636L46.0241 126.431V127.756L44.8668 127.825L46.0241 127.993V131.479C46.0241 132.789 46.0798 133.598 46.1914 133.905C46.2936 134.211 46.54 134.365 46.9304 134.365C47.3393 134.365 47.595 134.188 47.6972 133.835C47.8088 133.482 47.8645 132.64 47.8645 131.311V120.938ZM51.2526 119.557L51.0714 119.711L51.2247 119.878L51.406 119.892L51.5315 119.781V119.641L51.2526 119.557ZM49.9281 119.976L49.6353 120.185L49.8862 120.422L50.1651 120.45L50.3742 120.282V120.087L49.9281 119.976ZM51.0295 132.538L50.6252 133.082V133.514L51.406 133.556L51.7127 132.887L51.0295 132.538ZM50.0675 133.821L49.9699 135.271V135.703L50.7507 135.745L51.0574 135.076L50.0675 133.821ZM50.8762 136.358L50.5834 136.568L50.8343 136.805L51.1132 136.833L51.3223 136.665V136.47L50.8762 136.358ZM69.197 115.138V131.506L68.2907 132.245H69.0715L69.197 132.622V132.705C69.197 132.761 69.1412 133.133 69.0297 133.821C68.9181 134.518 68.5882 135.234 68.0397 135.968C67.4913 136.693 66.7709 137.242 65.8786 137.613C64.9677 137.994 63.908 138.185 62.6997 138.185C61.3519 138.185 60.1574 137.967 59.1164 137.53C58.0846 137.084 57.3177 136.498 56.8158 135.773C56.3046 135.057 56.0025 134.3 55.9095 133.5C55.8166 132.701 55.7701 131.032 55.7701 128.495V125.162L56.3557 124.437L55.6864 124.214L55.7701 123.489V115.138H61.64V132.064C61.64 133.059 61.6958 133.686 61.8073 133.946C61.9096 134.225 62.1234 134.365 62.4487 134.365C62.8205 134.365 63.0622 134.211 63.1737 133.905C63.276 133.616 63.3271 132.905 63.3271 131.771V115.138H69.197ZM66.9522 115.737L67.1753 117.299L67.5099 118.079L67.9561 116.853L67.8445 115.96L66.9522 115.737ZM84.562 123.754V123.838C84.5712 123.912 84.3575 124.247 83.9206 124.842C83.4837 125.437 82.6239 125.799 81.3412 125.929C81.9175 126.078 82.3915 126.255 82.7633 126.459C83.1444 126.654 83.4465 126.863 83.6696 127.087C83.902 127.31 84.074 127.537 84.1855 127.77C84.297 128.002 84.3807 128.216 84.4365 128.411C84.5294 128.82 84.5759 129.936 84.5759 131.757V137.711H79.0546V130.126L79.5565 129.457L79.1103 129.122V128.62C79.1289 128.472 79.0406 128.253 78.8454 127.965C78.6502 127.677 78.1483 127.533 77.3396 127.533V137.711L71.5673 137.599V127.644L71.8043 127.059L71.5812 126.222L71.5254 123.503L71.8601 122.82L71.4697 122.262V115.138H75.6246C78.3946 115.147 80.2722 115.254 81.2575 115.458C82.2335 115.681 83.0282 116.234 83.6417 117.117C84.2552 117.991 84.548 119.334 84.5201 121.147L84.548 122.541L83.9066 122.987L84.4644 123.21L84.562 123.754ZM79.1243 120.743L79.4449 120.422L79.1243 119.948V119.711C79.1243 119.683 78.9988 119.557 78.7478 119.334C78.4875 119.111 78.0181 119 77.3396 119V124.019C77.6649 124.019 77.9391 124.01 78.1622 123.991C78.3946 123.973 78.5805 123.898 78.7199 123.768C78.8594 123.638 78.9616 123.434 79.0267 123.155C79.0917 122.876 79.1243 122.485 79.1243 121.983V120.743ZM80.3931 134.476L80.0445 135.229L80.2257 135.48L80.2955 135.494L81.0623 135.034L80.3931 134.476ZM82.9446 136.582L82.6239 136.149L82.9446 136.108L82.5263 135.926L82.0104 136.317L82.5124 136.819L82.9446 136.582ZM81.2157 137.307V136.512L80.4488 136.205L79.9887 136.735L80.3373 137.153L81.2157 137.307ZM84.0042 137.362L83.6836 136.93L84.0042 136.888L83.586 136.707L83.0701 137.097L83.572 137.599L84.0042 137.362ZM102.13 115.068L103.691 126.445L104.166 129.248L104.403 130.642L104.082 131.297L104.64 132.05L105.058 134.881L105.267 136.289L105.476 137.711H99.4668L99.174 133.654H97.0686L96.7201 137.711H90.5852L92.0353 126.389L92.5372 124.326V123.155L93.4853 115.124H98.9509L100.066 115.514L101.028 115.124L102.13 115.068ZM94.2661 117.02L93.82 117.912L94.1546 119.139L95.6046 119.251L96.0508 118.414L95.6046 117.466L94.2661 117.02ZM98.9509 129.652C98.6535 127.105 98.356 123.949 98.0586 120.185C97.4637 124.507 97.1477 126.915 97.1105 127.407C97.0733 127.909 96.9896 128.234 96.8595 128.383C96.7294 128.541 96.7108 128.648 96.8037 128.704C96.8967 128.76 96.9432 129.076 96.9432 129.652H98.9509ZM102.144 135.062L102.074 135.369V135.717L102.785 135.759L103.008 135.494L102.785 135.215L102.144 135.062ZM100.526 135.926L100.164 136.484L100.443 137.251L101.6 137.321L101.963 136.791L101.6 136.205L100.526 135.926ZM95.3397 136.623L95.27 136.93V137.279L95.9811 137.321L96.2042 137.056L95.9811 136.777L95.3397 136.623ZM106.41 115.138H112.322C113.912 115.138 115.138 115.263 116.003 115.514C116.867 115.765 117.518 116.127 117.955 116.602C118.169 116.843 118.345 117.103 118.485 117.382C118.624 117.652 118.736 117.973 118.819 118.344C118.903 118.707 118.963 119.144 119.001 119.655C119.038 120.157 119.056 120.757 119.056 121.454L119.015 123.378V124.479L118.513 124.884L119.042 125.302V125.441C119.061 125.534 118.917 125.911 118.61 126.571C118.304 127.24 117.755 127.751 116.965 128.104C116.175 128.448 115.138 128.62 113.856 128.62H112.28V137.711L106.41 137.599V126.375L106.522 120.757L106.438 118.665L106.968 118.414L106.41 117.954V115.138ZM112.28 124.744C112.438 124.763 112.582 124.767 112.712 124.758C113.242 124.758 113.614 124.628 113.828 124.368C114.042 124.107 114.135 123.517 114.107 122.597V121.732L114.441 121.37L114.135 121.077L114.149 120.854C114.149 120.083 114.023 119.581 113.772 119.348C113.53 119.116 113.033 119 112.28 119V124.744ZM107.024 136.819L107.805 136.261L107.358 134.476L107.693 133.138L107.358 131.688L107.693 130.015V128.341L107.358 127.114L107.805 124.549C107.433 123.805 107.173 123.434 107.024 123.434V136.819ZM117.69 124.772L117.174 125.162L117.676 125.664L118.108 125.427L117.788 124.995L118.108 124.953L117.69 124.772ZM120.743 115.138H126.655C128.245 115.138 129.472 115.263 130.336 115.514C131.201 115.765 131.851 116.127 132.288 116.602C132.502 116.843 132.679 117.103 132.818 117.382C132.957 117.652 133.069 117.973 133.153 118.344C133.236 118.707 133.297 119.144 133.334 119.655C133.371 120.157 133.39 120.757 133.39 121.454L133.348 123.378V124.479L132.846 124.884L133.376 125.302V125.441C133.394 125.534 133.25 125.911 132.943 126.571C132.637 127.24 132.088 127.751 131.298 128.104C130.508 128.448 129.472 128.62 128.189 128.62H126.613V137.711L120.743 137.599V126.375L120.855 120.757L120.771 118.665L121.301 118.414L120.743 117.954V115.138ZM126.613 124.744C126.771 124.763 126.916 124.767 127.046 124.758C127.575 124.758 127.947 124.628 128.161 124.368C128.375 124.107 128.468 123.517 128.44 122.597V121.732L128.775 121.37L128.468 121.077L128.482 120.854C128.482 120.083 128.356 119.581 128.105 119.348C127.864 119.116 127.366 119 126.613 119V124.744ZM121.357 136.819L122.138 136.261L121.692 134.476L122.026 133.138L121.692 131.688L122.026 130.015V128.341L121.692 127.114L122.138 124.549C121.766 123.805 121.506 123.434 121.357 123.434V136.819ZM132.023 124.772L131.507 125.162L132.009 125.664L132.441 125.427L132.121 124.995L132.441 124.953L132.023 124.772Z" fill="url(#paint1_linear_795_311)"/>
<defs>
<linearGradient id="paint0_linear_795_311" x1="86.5001" y1="0" x2="86.5001" y2="173" gradientUnits="userSpaceOnUse">
<stop stop-color="#82BC29"/>
<stop offset="1" stop-color="#4D8F2D"/>
</linearGradient>
<linearGradient id="paint1_linear_795_311" x1="86.5" y1="113.711" x2="86.5" y2="134.711" gradientUnits="userSpaceOnUse">
<stop stop-color="#82BC29"/>
<stop offset="1" stop-color="#4D8F2D"/>
</linearGradient>
<clipPath id="clip0_795_311">
<rect width="173" height="173" fill="white"/>
</clipPath>
<clipPath id="clip1_795_311">
<rect width="154.75" height="154.75" fill="white" transform="translate(9.125 9.125)"/>
</clipPath>
<clipPath id="clip2_795_311">
<rect width="44.1781" height="61.5455" fill="white" transform="translate(64 21)"/>
</clipPath>
</defs>
</svg>
