<svg width="110" height="109" viewBox="0 0 110 109" fill="none" xmlns="http://www.w3.org/2000/svg">
<circle cx="58.1393" cy="57.4767" r="51.2292" fill="#82BC29"/>
<circle cx="51.8893" cy="51.2292" r="50.841" fill="#F3FFE0" stroke="#82BC29" stroke-width="0.77647"/>
<g clip-path="url(#clip0_1324_463)">
<path d="M38.9219 69.043H29.3105L30.3347 53.8046L30.6688 48.8252L31.0753 42.7699H37.156L37.5625 48.8252L37.8978 53.8046L38.9219 69.043Z" fill="#EB5569"/>
<path d="M38.9203 69.0433H36.1364L35.1124 53.8043L34.7775 48.8253L34.3711 42.77H37.155L37.5614 48.8253L37.8963 53.8043L38.9203 69.0433Z" fill="#E53950"/>
<path d="M53.4578 65.6934H43.8477L44.9176 49.7661L45.2348 45.0378L45.6124 39.419H51.6931L52.0707 45.0378L52.3879 49.7661L53.4578 65.6934Z" fill="#EB5569"/>
<path d="M53.4585 65.6931H50.6852L49.6143 49.7662L49.2975 45.0378L48.9199 39.4187H51.6932L52.0708 45.0378L52.3876 49.7662L53.4585 65.6931Z" fill="#E53950"/>
<mask id="mask0_1324_463" style="mask-type:luminance" maskUnits="userSpaceOnUse" x="25" y="24" width="55" height="55">
<path d="M25.2539 24.0711H79.8656V78.6829H25.2539V24.0711Z" fill="white"/>
</mask>
<g mask="url(#mask0_1324_463)">
<path d="M58.2675 27.3004C58.2675 27.9674 57.9974 28.5705 57.5607 29.006C57.1252 29.4427 56.5221 29.7129 55.855 29.7129H53.4558C53.4148 30.31 53.1543 30.848 52.7561 31.2459C52.3196 31.6826 51.7164 31.9528 51.0506 31.9528H50.9878C50.533 31.9528 50.1652 32.3207 50.1652 32.7755V34.2737C50.1652 35.106 49.4897 35.7815 48.6574 35.7815C48.24 35.7815 47.8637 35.6126 47.5911 35.34C47.3184 35.0673 47.1496 34.6898 47.1496 34.2737V32.7755C47.1496 32.3207 46.7805 31.9528 46.3257 31.9528C45.6611 31.9528 45.0459 31.6899 44.5959 31.2617C44.146 30.8322 43.8602 30.2376 43.8518 29.5718C43.8433 28.8938 44.1147 28.2787 44.5586 27.8347C44.9952 27.3981 45.5984 27.1279 46.2642 27.1279H48.6646C48.7056 26.5308 48.9662 25.9928 49.3642 25.5948C49.8009 25.1581 50.404 24.8879 51.0699 24.8879H55.855C57.1879 24.8879 58.2675 25.9688 58.2675 27.3004Z" fill="#D9E7EC"/>
<path d="M51.9604 29.7134H53.4536C53.412 30.3097 53.1518 30.8483 52.7538 31.2461C52.3177 31.6824 51.714 31.9533 51.0484 31.9533H50.9854C50.5311 31.9533 50.1631 32.3202 50.1631 32.7757V34.2733C50.1631 35.1063 49.4879 35.7815 48.6548 35.7815C48.3829 35.7815 48.1279 35.71 47.9082 35.583C48.3637 35.3239 48.6698 34.8343 48.6698 34.2733V32.7757C48.6698 32.3202 49.0378 31.9533 49.4922 31.9533H49.5551C50.2207 31.9533 50.8244 31.6824 51.2606 31.2461C51.6585 30.8483 51.9188 30.3097 51.9604 29.7134Z" fill="#C5D3DD"/>
<path d="M58.2634 27.3006C58.2634 27.9673 57.9936 28.571 57.5562 29.0061C57.121 29.4425 56.5184 29.7134 55.8507 29.7134H54.3574C55.0251 29.7134 55.6277 29.4425 56.0629 29.0061C56.5003 28.571 56.7702 27.9673 56.7702 27.3006C56.7702 25.9684 55.6907 24.8879 54.3574 24.8879H55.8507C57.184 24.8879 58.2634 25.9684 58.2634 27.3006Z" fill="#C5D3DD"/>
<path d="M38.9228 33.1778C38.9228 33.8436 38.6526 34.4467 38.2159 34.8834C37.7793 35.3201 37.1762 35.5903 36.5103 35.5903H36.4476C35.9929 35.5903 35.625 35.9581 35.625 36.413V37.911C35.625 38.7434 34.9495 39.4189 34.1172 39.4189C33.701 39.4189 33.3234 39.2501 33.0509 38.9774C32.7782 38.7047 32.6094 38.3272 32.6094 37.911V36.413C32.6094 35.9581 32.2414 35.5903 31.7867 35.5903C31.1208 35.5903 30.5069 35.3273 30.0569 34.8992C29.6059 34.4697 29.32 33.875 29.3115 33.2092V33.1669C27.987 33.0523 26.9473 31.9391 26.9473 30.5844C26.9473 29.1526 28.1088 27.9909 29.5407 27.9909C30.9724 27.9909 32.1341 29.1526 32.1341 30.5844C32.1341 30.6447 32.1318 30.705 32.1268 30.7653H36.5103C37.8421 30.7653 38.9228 31.8449 38.9228 33.1778Z" fill="#D9E7EC"/>
<path d="M32.1344 30.585C32.1344 30.6447 32.1312 30.7055 32.1269 30.7651H30.6155C30.6198 30.7055 30.623 30.6447 30.623 30.585C30.623 29.4159 29.8486 28.4272 28.7852 28.1028C29.0241 28.0304 29.2779 27.9909 29.5403 27.9909C30.9728 27.9909 32.1344 29.1524 32.1344 30.585Z" fill="#C5D3DD"/>
<path d="M38.9228 33.1779C38.9228 33.8435 38.6529 34.4472 38.2167 34.8835C37.7793 35.3197 37.1767 35.5907 36.5111 35.5907H36.4482C35.9927 35.5907 35.6247 35.9587 35.6247 36.413V37.9117C35.6247 38.7436 34.9495 39.4188 34.1176 39.4188C33.8424 39.4188 33.5832 39.3452 33.3613 39.2152C33.8104 38.9548 34.1133 38.4686 34.1133 37.9117V36.413C34.1133 35.9587 34.4813 35.5907 34.9367 35.5907H34.9986C35.6653 35.5907 36.2679 35.3197 36.7052 34.8835C37.1415 34.4472 37.4113 33.8435 37.4113 33.1779C37.4113 31.8446 36.3308 30.7652 34.9986 30.7652H36.5111C37.8423 30.7652 38.9228 31.8446 38.9228 33.1779Z" fill="#C5D3DD"/>
<path d="M37.901 53.8047H30.3379L30.672 48.8253H37.5656L37.901 53.8047Z" fill="#FFE177"/>
<path d="M37.8962 53.8044H35.1123L34.7773 48.8254H37.5613L37.8962 53.8044Z" fill="#FFC344"/>
<path d="M52.3863 49.7661H44.916L45.2332 45.0377H52.0691L52.3863 49.7661Z" fill="#FFE177"/>
<path d="M52.3908 49.7661H49.6176L49.3008 45.0377H52.074L52.3908 49.7661Z" fill="#FFC344"/>
<path d="M79.0664 77.8656H57.043V47.402H79.0664V77.8656Z" fill="#EB5569"/>
<path d="M79.0656 77.8656H76.3457V47.4015H79.0656V77.8656Z" fill="#E53950"/>
<path d="M57.043 57.1556V77.8656H26.0547V66.024L34.1172 64.5547V61.5535L57.043 57.1556Z" fill="#FFF9DF"/>
<path d="M57.0426 57.1558V77.8656H54.1094V57.719L57.0426 57.1558Z" fill="#FFF3BE"/>
<path d="M71.0995 77.8655H65.0117V70.6117H71.0995V77.8655Z" fill="#A8D3D8"/>
<path d="M74.668 54.8811H61.4395V51.8655H74.668V54.8811Z" fill="#FFE177"/>
<path d="M66.4506 61.0752H61.4395V58.0597H66.4506V61.0752Z" fill="#FFE177"/>
<path d="M74.6694 61.0752H69.6582V58.0597H74.6694V61.0752Z" fill="#FFE177"/>
<path d="M66.4506 67.2692H61.4395V64.2536H66.4506V67.2692Z" fill="#FFE177"/>
<path d="M74.6694 67.2692H69.6582V64.2536H74.6694V67.2692Z" fill="#FFE177"/>
<path d="M79.0654 47.4017H71.0977L72.9242 41.6214H79.0654V47.4017Z" fill="#FFE177"/>
<path d="M79.0656 47.4014H76.3457V41.6213H79.0656V47.4014Z" fill="#FFC344"/>
<path d="M41.7001 66.7738H38.9238V63.9977H41.7001V66.7738Z" fill="#FFE177"/>
<path d="M47.4089 66.7738H44.6328V63.9977H47.4089V66.7738Z" fill="#FFE177"/>
<path d="M53.1161 66.7738H50.3398V63.9977H53.1161V66.7738Z" fill="#FFE177"/>
<path d="M79.0684 74.9139V77.8656H57.0449V47.4019H79.0684V71.2517" stroke="black" stroke-width="1.59995" stroke-miterlimit="10" stroke-linecap="round" stroke-linejoin="round"/>
<path d="M57.043 57.1556V77.8656H26.0547V66.024L34.1172 64.5547V61.5535L57.043 57.1556Z" stroke="black" stroke-width="1.59995" stroke-miterlimit="10" stroke-linecap="round" stroke-linejoin="round"/>
<path d="M35.8809 42.77H37.157L37.5635 48.8254L37.8988 53.8047L38.3648 60.7386" stroke="black" stroke-width="1.59995" stroke-miterlimit="10" stroke-linecap="round" stroke-linejoin="round"/>
<path d="M29.5566 65.3854L30.335 53.8044L30.669 48.825L31.0755 42.7697H32.0093" stroke="black" stroke-width="1.59995" stroke-miterlimit="10" stroke-linecap="round" stroke-linejoin="round"/>
<path d="M44.2598 59.6079L44.9209 49.766L45.2381 45.0375L45.6157 39.4189H51.6963L52.0739 45.0375L52.3912 49.766L52.6809 54.0775" stroke="black" stroke-width="1.59995" stroke-miterlimit="10" stroke-linecap="round" stroke-linejoin="round"/>
<path d="M71.0995 77.8655H65.0117V70.6117H71.0995V77.8655Z" stroke="black" stroke-width="1.59995" stroke-miterlimit="10" stroke-linecap="round" stroke-linejoin="round"/>
<path d="M74.668 54.8811H61.4395V51.8655H74.668V54.8811Z" stroke="black" stroke-width="1.59995" stroke-miterlimit="10" stroke-linecap="round" stroke-linejoin="round"/>
<path d="M66.4506 61.0752H61.4395V58.0597H66.4506V61.0752Z" stroke="black" stroke-width="1.59995" stroke-miterlimit="10" stroke-linecap="round" stroke-linejoin="round"/>
<path d="M74.6694 61.0752H69.6582V58.0597H74.6694V61.0752Z" stroke="black" stroke-width="1.59995" stroke-miterlimit="10" stroke-linecap="round" stroke-linejoin="round"/>
<path d="M66.4506 67.2692H61.4395V64.2536H66.4506V67.2692Z" stroke="black" stroke-width="1.59995" stroke-miterlimit="10" stroke-linecap="round" stroke-linejoin="round"/>
<path d="M74.6694 67.2692H69.6582V64.2536H74.6694V67.2692Z" stroke="black" stroke-width="1.59995" stroke-miterlimit="10" stroke-linecap="round" stroke-linejoin="round"/>
<path d="M79.0654 47.4017H71.0977L72.9242 41.6214H79.0654V47.4017Z" stroke="black" stroke-width="1.59995" stroke-miterlimit="10" stroke-linecap="round" stroke-linejoin="round"/>
<path d="M58.2675 27.3004C58.2675 27.9674 57.9974 28.5705 57.5607 29.006C57.1252 29.4427 56.5221 29.7129 55.855 29.7129H53.4558C53.4148 30.31 53.1543 30.848 52.7561 31.2459C52.3196 31.6826 51.7164 31.9528 51.0506 31.9528H50.9878C50.533 31.9528 50.1652 32.3207 50.1652 32.7755V34.2737C50.1652 35.106 49.4897 35.7815 48.6574 35.7815C48.24 35.7815 47.8637 35.6126 47.5911 35.34C47.3184 35.0673 47.1496 34.6898 47.1496 34.2737V32.7755C47.1496 32.3207 46.7805 31.9528 46.3257 31.9528C45.6611 31.9528 45.0459 31.6899 44.5959 31.2617C44.146 30.8322 43.8602 30.2376 43.8518 29.5718C43.8433 28.8938 44.1147 28.2787 44.5586 27.8347C44.9952 27.3981 45.5984 27.1279 46.2642 27.1279H48.6646C48.7056 26.5308 48.9662 25.9928 49.3642 25.5948C49.8009 25.1581 50.404 24.8879 51.0699 24.8879H55.855C57.1879 24.8879 58.2675 25.9688 58.2675 27.3004Z" stroke="black" stroke-width="1.59995" stroke-miterlimit="10" stroke-linecap="round" stroke-linejoin="round"/>
<path d="M38.9228 33.1778C38.9228 33.8436 38.6526 34.4467 38.2159 34.8834C37.7793 35.3201 37.1762 35.5903 36.5103 35.5903H36.4476C35.9929 35.5903 35.625 35.9581 35.625 36.413V37.911C35.625 38.7434 34.9495 39.4189 34.1172 39.4189C33.701 39.4189 33.3234 39.2501 33.0509 38.9774C32.7782 38.7047 32.6094 38.3272 32.6094 37.911V36.413C32.6094 35.9581 32.2414 35.5903 31.7867 35.5903C31.1208 35.5903 30.5069 35.3273 30.0569 34.8992C29.6059 34.4697 29.32 33.875 29.3115 33.2092V33.1669C27.987 33.0523 26.9473 31.9391 26.9473 30.5844C26.9473 29.1526 28.1088 27.9909 29.5407 27.9909C30.9724 27.9909 32.1341 29.1526 32.1341 30.5844C32.1341 30.6447 32.1318 30.705 32.1268 30.7653H36.5103C37.8421 30.7653 38.9228 31.8449 38.9228 33.1778Z" stroke="black" stroke-width="1.59995" stroke-miterlimit="10" stroke-linecap="round" stroke-linejoin="round"/>
<path d="M37.901 53.8047H30.3379L30.672 48.8253H37.5656L37.901 53.8047Z" stroke="black" stroke-width="1.59995" stroke-miterlimit="10" stroke-linecap="round" stroke-linejoin="round"/>
<path d="M52.3863 49.7661H44.916L45.2332 45.0377H52.0691L52.3863 49.7661Z" stroke="black" stroke-width="1.59995" stroke-miterlimit="10" stroke-linecap="round" stroke-linejoin="round"/>
<path d="M41.7001 66.7738H38.9238V63.9977H41.7001V66.7738Z" stroke="black" stroke-width="1.59995" stroke-miterlimit="10" stroke-linecap="round" stroke-linejoin="round"/>
<path d="M47.4089 66.7738H44.6328V63.9977H47.4089V66.7738Z" stroke="black" stroke-width="1.59995" stroke-miterlimit="10" stroke-linecap="round" stroke-linejoin="round"/>
<path d="M53.1161 66.7738H50.3398V63.9977H53.1161V66.7738Z" stroke="black" stroke-width="1.59995" stroke-miterlimit="10" stroke-linecap="round" stroke-linejoin="round"/>
<path d="M30.8555 70.2562H53.1196" stroke="black" stroke-width="1.59995" stroke-miterlimit="10" stroke-linecap="round" stroke-linejoin="round"/>
</g>
</g>
<defs>
<clipPath id="clip0_1324_463">
<rect width="54.6117" height="54.6117" fill="white" transform="translate(25.252 24.0706)"/>
</clipPath>
</defs>
</svg>
