<svg width="33" height="33" viewBox="0 0 33 33" fill="none" xmlns="http://www.w3.org/2000/svg">
<path d="M23.373 2.75H9.62305C5.82609 2.75 2.74805 5.82804 2.74805 9.625V23.375C2.74805 27.172 5.82609 30.25 9.62305 30.25H23.373C27.17 30.25 30.248 27.172 30.248 23.375V9.625C30.248 5.82804 27.17 2.75 23.373 2.75Z" stroke="#82BC29" stroke-width="2.75" stroke-linecap="round" stroke-linejoin="round"/>
<path d="M21.9972 15.6332C22.1668 16.7775 21.9714 17.9462 21.4386 18.9731C20.9058 19.9999 20.0627 20.8326 19.0294 21.3527C17.9961 21.8728 16.825 22.0539 15.6829 21.8701C14.5407 21.6863 13.4856 21.1471 12.6676 20.329C11.8495 19.511 11.3103 18.4559 11.1265 17.3137C10.9427 16.1716 11.1237 15.0005 11.6439 13.9672C12.164 12.9339 12.9967 12.0908 14.0235 11.558C15.0504 11.0252 16.2191 10.8297 17.3634 10.9994C18.5307 11.1725 19.6113 11.7165 20.4457 12.5509C21.2801 13.3853 21.8241 14.4659 21.9972 15.6332Z" stroke="#82BC29" stroke-width="2.75" stroke-linecap="round" stroke-linejoin="round"/>
<path d="M24.0605 8.9375H24.0745" stroke="#82BC29" stroke-width="2.75" stroke-linecap="round" stroke-linejoin="round"/>
</svg>
