<svg width="140" height="140" viewBox="0 0 140 140" fill="none" xmlns="http://www.w3.org/2000/svg">
<circle cx="74.0239" cy="74.023" r="65.1403" fill="#82BC29" stroke="#82BC29" stroke-width="1.67347"/>
<circle cx="65.977" cy="65.977" r="65.1403" fill="#F3FFE0" stroke="white" stroke-width="1.67347"/>
<path fill-rule="evenodd" clip-rule="evenodd" d="M67.4586 97.4212L71.0683 99.4742C75.7277 102.164 78.5438 96.4442 74.9038 94.3247L76.9304 95.4949C78.5493 96.4295 80.6383 95.8696 81.573 94.2508C82.5044 92.6378 81.9481 90.5508 80.3396 89.6144L81.4238 90.2403C83.1474 91.2355 85.372 90.6393 86.3672 88.9157C87.358 87.1992 86.7672 84.9786 85.0569 83.9806L85.0602 83.9825L86.1373 84.6045C87.8609 85.5997 90.0856 85.0035 91.0806 83.2799C91.5754 82.4228 91.6729 81.4288 91.4364 80.5355C91.1548 79.8063 90.9074 79.1652 89.756 78.3367L78.8819 72.0586C73.1275 67.4415 70.014 64.7863 65.7154 60.4206C58.2469 55.0527 52.8716 61.7303 42.9909 56.1732L35.9627 52.2204C29.6908 57.3304 26.1323 63.7261 28.3377 74.1555L40.8891 80.6257L44.1249 84.1077L67.4581 97.4212H67.4586Z" fill="#D19A62"/>
<path fill-rule="evenodd" clip-rule="evenodd" d="M67.4586 97.4212L71.0683 99.4741C75.7277 102.164 78.5438 96.4442 74.9038 94.3247L76.9304 95.4948C78.5493 96.4295 80.6384 95.8696 81.573 94.2507C82.5044 92.6377 81.9481 90.5507 80.3396 89.6143L81.4238 90.2403C83.1475 91.2355 85.372 90.6392 86.3672 88.9156C87.358 87.1991 86.7672 84.9785 85.0569 83.9806L86.1375 84.6044C87.8611 85.5996 90.0858 85.0034 91.0808 83.2798C91.4074 82.7142 91.5607 82.0889 91.5595 81.4723L77.9488 73.6142C72.1943 68.997 69.0809 66.3418 64.7823 61.9762C57.3138 56.6083 51.9385 63.2858 42.0578 57.7288L34.5213 53.4639C29.1624 58.372 26.3079 64.5544 28.3382 74.1551L40.8896 80.6253L44.1254 84.1073L67.4586 97.4208V97.4212Z" fill="#DBA977"/>
<path fill-rule="evenodd" clip-rule="evenodd" d="M76.558 97.2667C76.6331 96.1845 76.1428 95.0461 74.9039 94.3247L73.171 93.3242C72.7611 93.0875 72.2323 93.2293 71.9957 93.6391C71.7594 94.0485 71.9015 94.5781 72.3106 94.8144L76.558 97.2667ZM82.0247 92.5741C82.0283 91.3966 81.4226 90.2448 80.3398 89.6145L75.9411 87.0748C75.5312 86.8382 75.0024 86.9799 74.7658 87.3898C74.5295 87.799 74.6716 88.3288 75.0808 88.5651L82.0247 92.5741ZM86.846 87.0005L79.375 82.6871C78.9658 82.4508 78.8238 81.9211 79.0601 81.5118C79.2967 81.1019 79.8255 80.9603 80.2353 81.1968L85.0605 83.9827L85.0572 83.9808C86.1683 84.629 86.8067 85.7934 86.8461 87.0005H86.846Z" fill="#D19A62"/>
<path fill-rule="evenodd" clip-rule="evenodd" d="M42.8945 82.7829L44.5936 79.8399C46.0514 77.3149 49.3181 76.4395 51.8429 77.8974C53.0343 78.5853 53.8584 79.6741 54.2437 80.8976C55.4961 80.6198 56.8508 80.7887 58.0408 81.4757C59.2321 82.1635 60.0562 83.2524 60.4417 84.4761C61.6941 84.1983 63.0488 84.3672 64.2388 85.0541C65.4301 85.7419 66.2542 86.8308 66.6397 88.0545C67.892 87.7767 69.2468 87.9456 70.4366 88.6326C72.9637 90.0917 73.838 93.3547 72.379 95.8819L70.4938 99.1473L67.459 97.4214L44.1258 84.1079L42.8947 82.7831L42.8945 82.7829Z" fill="#D19A62"/>
<path fill-rule="evenodd" clip-rule="evenodd" d="M43.5187 85.1585C42.5346 86.8629 43.124 89.0626 44.8284 90.0465C46.5305 91.0293 48.7338 90.4388 49.7165 88.7368L52.2882 84.2824C53.2723 82.578 52.6828 80.3785 50.9784 79.3944C49.2764 78.4117 47.0729 79.002 46.0903 80.7042L43.5187 85.1583V85.1585Z" fill="#F9C795"/>
<path fill-rule="evenodd" clip-rule="evenodd" d="M62.1128 95.8934C61.1289 97.5978 61.7182 99.7974 63.4226 100.781C65.1246 101.764 67.3279 101.174 68.3106 99.4717L70.8823 95.0174C71.8664 93.3129 71.277 91.1134 69.5726 90.1293C67.8705 89.1466 65.6671 89.7369 64.6845 91.4391L62.1128 95.8932V95.8934Z" fill="#F9C795"/>
<path fill-rule="evenodd" clip-rule="evenodd" d="M55.0464 93.8189C54.0625 95.5234 54.6518 97.723 56.3562 98.707C58.0582 99.6897 60.2615 99.0992 61.2442 97.3972L64.6842 91.439C65.6683 89.7345 65.0789 87.535 63.3744 86.5509C61.6724 85.5682 59.4689 86.1585 58.4864 87.8607L55.0464 93.8189Z" fill="#F9C795"/>
<path fill-rule="evenodd" clip-rule="evenodd" d="M48.1197 91.5034C47.1356 93.2078 47.7251 95.4073 49.4295 96.3914C51.1315 97.3741 53.3348 96.7836 54.3176 95.0816L58.4865 87.8606C59.4706 86.1562 58.8811 83.9567 57.1767 82.9726C55.4747 81.9899 53.2712 82.5802 52.2887 84.2824L48.1197 91.5034Z" fill="#F9C795"/>
<path fill-rule="evenodd" clip-rule="evenodd" d="M51.3003 96.8658C52.5053 96.8342 53.6706 96.1981 54.3145 95.0864L55.9482 92.2566L58.486 87.8609C59.1306 86.7445 59.1 85.4157 58.5234 84.3552L51.3003 96.866V96.8658Z" fill="#E6B17C"/>
<path fill-rule="evenodd" clip-rule="evenodd" d="M25.0523 74.8889L31.4522 77.6066C30.9016 67.6896 34.9224 59.7736 42.4307 54.235L35.0287 50.1181C26.9622 55.693 22.7627 66.6193 25.0523 74.8889Z" fill="#45518A"/>
<path fill-rule="evenodd" clip-rule="evenodd" d="M88.8137 79.7887L78.0179 73.556C75.8806 72.3221 73.7928 71.0232 71.233 71.0384C66.8843 71.0642 63.4062 74.8063 59.0687 74.9752C57.0571 75.0535 55.2925 74.3078 53.7589 73.0377C51.3151 71.014 51.1844 67.4439 54.0183 65.6769L64.0712 59.4091C64.6095 59.686 65.1566 60.0191 65.7156 60.4208C70.0142 64.7866 73.1276 67.4418 78.8821 72.0588L89.7562 78.3368C90.9076 79.1654 91.155 79.8065 91.4366 80.5357C91.599 81.1497 91.6037 81.8112 91.4302 82.4432C90.6656 81.1498 89.5795 80.3509 88.8135 79.7885L88.8137 79.7887Z" fill="#D19A62"/>
<path fill-rule="evenodd" clip-rule="evenodd" d="M105.227 74.1554L91.437 80.5356C91.1555 79.8064 90.9081 79.1653 89.7566 78.3367L78.8825 72.0587C76.5065 70.6869 74.2152 69.2919 71.2232 69.3097C64.7151 69.348 60.3428 76.2451 54.8617 71.7062C53.4816 70.5633 52.9647 68.371 54.9333 67.1437L66.5607 59.8942C70.4396 57.4758 74.6147 56.323 78.8533 57.7199C82.4881 58.9179 86.0802 58.6285 89.4249 56.7683L97.6019 52.2205C104.649 57.0912 107.734 65.9636 105.227 74.1555V74.1554Z" fill="#F9C795"/>
<path fill-rule="evenodd" clip-rule="evenodd" d="M108.513 74.8889L102.113 77.6066C102.663 67.6896 98.6424 59.7736 91.1343 54.235L98.5364 50.1181C106.603 55.6928 110.802 66.6191 108.513 74.8889Z" fill="#2A93FC"/>
<path fill-rule="evenodd" clip-rule="evenodd" d="M106.502 75.7427L102.113 77.6068C102.663 67.6898 98.6424 59.7738 91.1343 54.2352L96.8503 51.0561C105.024 57.3468 108.758 67.3282 106.502 75.7427Z" fill="#43A2FF"/>
<path fill-rule="evenodd" clip-rule="evenodd" d="M65.2935 101.256C66.5 101.224 67.6665 100.586 68.3101 99.4722V99.4718L68.5058 99.1332L70.8819 95.0175C71.5265 93.9012 71.4959 92.5724 70.9193 91.5119L65.2936 101.256L65.2935 101.256Z" fill="#E6B17C"/>
<path fill-rule="evenodd" clip-rule="evenodd" d="M58.2271 99.1813C59.4338 99.1497 60.6005 98.5118 61.2439 97.3973L64.6838 91.4391C65.3284 90.3228 65.2978 88.994 64.721 87.9333L58.2271 99.1813Z" fill="#E6B17C"/>
<path fill-rule="evenodd" clip-rule="evenodd" d="M46.6999 90.5209C47.9058 90.4892 49.0719 89.852 49.7155 88.7388L50.8814 86.7194L52.2884 84.2826C52.933 83.1662 52.9024 81.8374 52.3255 80.7767L46.6999 90.5209Z" fill="#E6B17C"/>
<path fill-rule="evenodd" clip-rule="evenodd" d="M27.0623 75.7427L31.452 77.6068C30.9014 67.6898 34.9222 59.7738 42.4305 54.2352L36.7144 51.0561C28.5411 57.3468 24.8068 67.3282 27.0623 75.7427Z" fill="#4F5D99"/>
<path fill-rule="evenodd" clip-rule="evenodd" d="M66.7825 29.0831L52.7893 33.7958C52.1433 34.0135 51.7271 34.5929 51.7271 35.2743V48.1683C51.7271 56.5757 60.4784 60.0653 66.7825 64.1867C73.0867 60.0653 81.838 56.5757 81.838 48.1683V35.2745C81.838 34.5929 81.4218 34.0135 80.7758 33.796L66.7824 29.0832L66.7825 29.0831Z" fill="#3FC977"/>
<path fill-rule="evenodd" clip-rule="evenodd" d="M66.7822 29.0831L53.4367 33.5777C53.1242 33.8641 52.9404 34.2717 52.9404 34.7243V47.6183C52.9404 55.9491 61.5327 59.4514 67.8227 63.5242C74.0057 59.6746 81.8377 56.1219 81.8377 48.1683V35.2745C81.8377 34.5929 81.4215 34.0135 80.7755 33.796L66.7821 29.0832L66.7822 29.0831Z" fill="#4FE88E"/>
<path fill-rule="evenodd" clip-rule="evenodd" d="M67.6189 60.5938C68.7813 59.8866 70.1896 59.0597 71.3496 58.349C74.9652 56.1343 79.4419 53.3039 79.4419 48.5328V37.0172L67.8647 33.1181L56.2876 37.0172V48.533C56.2876 49.899 56.6117 51.1263 57.3096 52.3011C59.0828 55.2868 63.1796 57.9594 66.7691 60.088C67.059 60.2599 67.3404 60.427 67.6191 60.5938H67.6189Z" fill="#3FC977"/>
<path fill-rule="evenodd" clip-rule="evenodd" d="M66.7691 60.088C67.9314 59.3808 69.1072 58.6949 70.2671 57.9844C73.8827 55.7697 78.3594 52.9393 78.3594 48.1683V36.6525L66.7822 32.7534L55.2051 36.6525V48.1683C55.2051 49.5344 55.5292 50.7615 56.227 51.9363C58.1434 55.1631 63.0413 57.8569 66.7691 60.088Z" fill="white"/>
<path fill-rule="evenodd" clip-rule="evenodd" d="M59.6371 45.4896C59.476 45.0384 59.7092 44.544 60.1603 44.3846C60.6098 44.2244 61.104 44.4593 61.2653 44.9086L63.1562 50.2158L72.5046 40.8672C72.8421 40.5298 73.3899 40.5298 73.7264 40.8672C74.0639 41.2038 74.0639 41.7525 73.7264 42.089L63.4122 52.4041C63.2477 52.5678 63.0281 52.6559 62.8017 52.6559C62.7381 52.6559 62.6736 52.6492 62.6117 52.6356C62.3234 52.5702 62.086 52.3626 61.9877 52.0827L59.6372 45.4892L59.6371 45.4896ZM56.0706 48.1691C56.0706 49.4037 56.3554 50.4611 56.971 51.4972C58.599 54.2387 62.7946 56.7257 66.1652 58.7243C66.3678 58.8439 66.568 58.9625 66.7656 59.0804C67.1599 58.8437 67.5533 58.6081 67.9494 58.3715C68.5634 58.0052 69.1974 57.6261 69.8164 57.2479C73.0573 55.2638 77.4954 52.5445 77.4954 48.1691V37.2731L66.7825 33.6659L56.0706 37.2731V48.1691ZM65.2843 60.2106C65.6387 60.4216 65.9872 60.6277 66.3263 60.8313C66.4629 60.9127 66.6171 60.9542 66.7689 60.9542C66.925 60.9542 67.08 60.911 67.2183 60.8279C67.7559 60.5013 68.2953 60.1776 68.8344 59.8562C69.4534 59.4882 70.0927 59.1058 70.7184 58.7226C74.3095 56.5239 79.2231 53.5128 79.2231 48.1691V36.6533C79.2231 36.2827 78.9866 35.9531 78.6356 35.8335L67.0596 31.9354C66.879 31.8753 66.6857 31.8753 66.506 31.9354L54.9292 35.8335C54.5781 35.9531 54.3416 36.2829 54.3416 36.6533V48.1693C54.3416 49.7057 54.7146 51.0836 55.4846 52.3785C57.339 55.5006 61.5583 58.0036 65.2842 60.2109L65.2843 60.2106ZM107.785 74.2591L103.023 76.2815C103.146 67.4205 99.6011 59.8875 92.704 54.3521L98.4811 51.1384C105.722 56.4211 109.739 66.3918 107.785 74.2591ZM90.3341 82.8487C89.9678 83.4829 89.3724 83.9356 88.6585 84.1282C87.9463 84.3182 87.2026 84.2233 86.5701 83.8561L85.4763 83.2252H85.4745V83.2234L80.7948 80.5237C80.3818 80.2837 79.8527 80.427 79.6145 80.84C79.3763 81.2538 79.5178 81.7821 79.9306 82.0212L84.6121 84.7227C85.9273 85.4815 86.3784 87.169 85.6194 88.4842C84.8605 89.7993 83.1723 90.2522 81.8563 89.4932L80.7625 88.8607H80.7607L76.3735 86.327C75.9598 86.088 75.4314 86.2304 75.1923 86.6434C74.9541 87.0563 75.0957 87.5855 75.5086 87.8237L79.8976 90.3582C80.4785 90.6932 80.8973 91.2408 81.0736 91.898C81.2499 92.5553 81.1609 93.2377 80.8243 93.8186C80.1256 95.0303 78.5738 95.4457 77.3638 94.747L75.3237 93.5701H75.322L73.604 92.5764C73.1885 92.3373 72.6619 92.4789 72.4229 92.8925C72.1847 93.3072 72.3262 93.8346 72.7392 94.0728L74.4597 95.0666C75.2618 95.5304 75.7028 96.235 75.7028 97.0551C75.7028 97.853 75.2618 98.6262 74.58 99.0181C73.7508 99.4971 72.6561 99.3937 71.4927 98.7213L70.1708 97.9776L71.6293 95.45C72.8554 93.3293 72.1262 90.6066 70.0045 89.3813C68.9812 88.792 67.7855 88.6342 66.634 88.9438C66.4162 89.0033 66.2033 89.0769 65.9998 89.1651C65.8489 87.8085 65.0764 86.5381 63.8062 85.8031C62.5368 85.0705 61.0521 85.0375 59.8004 85.5834C59.6487 84.2283 58.8779 82.9581 57.6085 82.2246C56.3383 81.4921 54.8536 81.4589 53.6036 82.0051C53.451 80.65 52.6802 79.379 51.4117 78.6464C49.2885 77.4229 46.5666 78.152 45.3422 80.2735L43.9608 82.6639L41.5223 80.0379C41.4543 79.9658 41.3748 79.9031 41.2849 79.8582L32.2772 75.2132C32.4418 67.6317 35.5324 61.1357 41.3162 56.2228L42.5677 56.9283C46.1495 58.9421 49.1867 59.4178 51.8992 59.4178C53.1627 59.4178 54.3565 59.3151 55.5012 59.2152C56.0701 59.1668 56.6146 59.1203 57.1537 59.0854C58.5451 60.1428 60.0511 61.0975 61.546 62.0032L54.4759 66.4115C53.4541 67.0475 52.8512 67.993 52.7784 69.0698C52.6987 70.2594 53.2845 71.5244 54.3098 72.3734C58.0424 75.4624 61.4011 73.8216 64.6511 72.2352C66.7091 71.2287 68.8373 70.1884 71.2286 70.1747H71.2785C73.8969 70.1747 75.9769 71.378 78.1773 72.6499L89.2853 79.0654C90.1705 79.7098 90.3605 80.1491 90.608 80.7901C90.7844 81.4905 90.6851 82.2366 90.3334 82.8489L90.3341 82.8487ZM67.5628 99.0409L70.133 94.5859C70.4942 93.9619 70.5891 93.231 70.4009 92.5271C70.2126 91.8251 69.7649 91.2391 69.1409 90.8787C68.5169 90.5183 67.7858 90.4251 67.0821 90.6142C66.3801 90.8024 65.7941 91.2484 65.4345 91.8692V91.8709C65.4345 91.8709 65.4328 91.8709 65.4328 91.8726L62.861 96.3268C62.1139 97.6233 62.5583 99.286 63.8548 100.033C65.1512 100.782 66.814 100.338 67.5628 99.0411V99.0409ZM60.4962 96.966L61.3636 95.4626L63.9379 91.0059V91.0042C64.6824 89.7103 64.2364 88.0482 62.9415 87.2995C61.6468 86.5533 59.9838 86.9977 59.236 88.2925L55.7942 94.2526C55.0472 95.5491 55.4932 97.2118 56.788 97.959C58.0844 98.7076 59.7472 98.261 60.496 96.966H60.4962ZM53.5694 94.6504L54.2986 93.3878V93.3869L57.737 87.4302H57.7387C58.4856 86.1338 58.0414 84.4701 56.7449 83.7213C55.45 82.975 53.7907 83.4177 53.0403 84.7092L50.466 89.1685V89.1703C50.4649 89.1714 50.464 89.1728 50.4634 89.1744L48.8693 91.9362C48.1206 93.2327 48.5666 94.8955 49.8613 95.6443C51.1578 96.393 52.8206 95.9468 53.5694 94.6504ZM45.2613 89.2982C46.5543 90.0469 48.2155 89.6026 48.9659 88.3111L51.5393 83.8518C51.5393 83.8492 51.5419 83.8492 51.5419 83.8477C52.2882 82.5527 51.842 80.8917 50.5481 80.1439C49.2508 79.3952 47.588 79.8412 46.8394 81.1377L44.2675 85.5918C43.5188 86.8866 43.9648 88.5502 45.2613 89.2982ZM25.7816 74.2593L30.5418 76.2816C30.4198 67.4207 33.9649 59.8877 40.8621 54.3523L35.085 51.1386C27.8436 56.4212 23.8261 66.392 25.7816 74.2593ZM52.5907 48.1691C52.5907 54.6482 58.3057 58.0586 63.8318 61.3587C64.8136 61.9447 65.8252 62.5475 66.7825 63.1581C67.7407 62.5475 68.7514 61.9447 69.7333 61.3587C75.2601 58.0586 80.9735 54.6482 80.9735 48.1691V35.2755C80.9735 34.9678 80.7913 34.7133 80.4995 34.615L66.7825 29.9962L53.0664 34.615C52.7739 34.7133 52.5907 34.9678 52.5907 35.2755V48.1693V48.1691ZM83.1791 59.3101C85.4745 59.3101 87.7062 58.7141 89.8447 57.5245L92.2231 56.2017C97.9755 61.0773 101.076 67.514 101.286 75.0268L91.8755 79.3817C91.5906 78.8441 91.1479 78.2735 90.2609 77.6358C90.2381 77.6198 90.2143 77.6045 90.188 77.5892L79.3149 71.3118L79.0437 71.155C76.7415 69.8221 74.3622 68.4458 71.2808 68.4458H71.218C68.4334 68.4636 66.0202 69.6421 63.8928 70.6809C60.7605 72.2123 58.2862 73.4206 55.4133 71.0404C54.819 70.5495 54.461 69.8204 54.5044 69.1859C54.5392 68.6637 54.8377 68.2228 55.3914 67.8775L63.211 63.0002C64.2956 63.6488 65.3274 64.2678 66.3094 64.9105C66.4527 65.0039 66.6188 65.0521 66.7825 65.0521C66.9471 65.0521 67.1124 65.0037 67.2565 64.9105C68.3189 64.2161 69.4365 63.5487 70.6185 62.8415C72.9418 61.4569 75.389 59.9924 77.4706 58.2365C77.8437 58.3195 78.2159 58.4213 78.5823 58.5409C80.14 59.0539 81.6731 59.31 83.1789 59.31L83.1791 59.3101ZM99.0287 49.4087C98.7573 49.2196 98.4047 49.2044 98.1155 49.3638L90.7138 53.4814C90.4578 53.6229 90.2907 53.8876 90.2713 54.1818C90.2544 54.4736 90.3857 54.7567 90.6224 54.9313C90.6691 54.9661 90.7138 55.0026 90.7605 55.0373L89.0044 56.0142C85.9018 57.7405 82.577 58.0382 79.1234 56.9002C79.0717 56.8833 79.0183 56.8681 78.964 56.8503C81.1789 54.572 82.7016 51.8008 82.7016 48.1691V35.2755C82.7016 34.2172 82.0555 33.315 81.0524 32.9785L67.0598 28.264C66.8792 28.2055 66.6859 28.2055 66.5061 28.264L52.5127 32.9785C51.5104 33.315 50.8619 34.2172 50.8619 35.2755V48.1693C50.8619 52.1538 52.6942 55.1028 55.2635 57.5008C51.7768 57.8026 48.1621 58.0918 43.4153 55.4209L42.7741 55.0596C42.831 55.0181 42.8862 54.9749 42.9437 54.9315C43.1804 54.7568 43.3117 54.4736 43.2922 54.182C43.2753 53.8878 43.1074 53.6231 42.8512 53.4815L35.4496 49.3639C35.1604 49.2046 34.8086 49.2224 34.5364 49.4089C26.3292 55.0798 21.7988 66.375 24.2187 75.1198C24.2899 75.3741 24.4732 75.581 24.7146 75.6854L31.114 78.4032C31.2234 78.4498 31.337 78.4718 31.4532 78.4718C31.6278 78.4718 31.8008 78.4184 31.9493 78.315C32.1927 78.1437 32.3308 77.8588 32.3156 77.5594C32.3089 77.4298 32.3054 77.3 32.2987 77.1703L40.3582 81.3261L43.0571 84.2302L42.7705 84.7279C41.5461 86.8486 42.2753 89.5713 44.3968 90.7957C45.2855 91.3088 46.2793 91.4783 47.2247 91.3485C46.2122 93.4242 46.9669 95.969 48.9969 97.1417C50.5817 98.0558 52.5006 97.881 53.8818 96.8492C54.1896 97.9125 54.8934 98.8613 55.9228 99.4558C57.5762 100.41 59.5901 100.18 60.9799 99.0309C61.303 100.049 61.9923 100.955 62.9894 101.53C63.6881 101.935 64.4504 102.125 65.2043 102.125C66.7407 102.125 68.2365 101.328 69.059 99.9052L69.3065 99.477L70.6351 100.223C71.7036 100.841 72.6388 101.048 73.4172 101.048C74.3228 101.048 75.0122 100.767 75.4445 100.516C76.6698 99.8088 77.4304 98.4826 77.4304 97.0556C77.4304 96.9114 77.4202 96.7731 77.4067 96.635C77.806 96.7546 78.2155 96.8148 78.6235 96.8148C80.098 96.8148 81.5327 96.0509 82.3205 94.683C82.8691 93.7359 83.0259 92.6336 82.7699 91.5651C82.9208 91.5803 83.0726 91.5888 83.2252 91.5888C84.7753 91.5888 86.2863 90.7858 87.1155 89.3485C87.7363 88.275 87.8592 87.048 87.5582 85.9364C87.6829 85.9466 87.8075 85.9533 87.9321 85.9533C88.323 85.9533 88.7164 85.9016 89.1057 85.7981C90.2656 85.4869 91.2322 84.7467 91.8302 83.713C92.2914 82.9116 92.489 81.9688 92.4008 81.0428L101.275 76.9371C101.268 77.144 101.262 77.3518 101.249 77.5594C101.234 77.8588 101.372 78.1437 101.615 78.315C101.764 78.4184 101.937 78.4718 102.112 78.4718C102.228 78.4718 102.342 78.4497 102.451 78.4032L108.85 75.6854C109.092 75.5812 109.275 75.3743 109.344 75.1198C111.767 66.375 107.234 55.0797 99.0284 49.4087H99.0287Z" fill="black"/>
</svg>
