<svg width="33" height="33" viewBox="0 0 33 33" fill="none" xmlns="http://www.w3.org/2000/svg">
<g clip-path="url(#clip0_510_2881)">
<path d="M30.0999 10.0584H20.7172L17.641 6.96927C15.897 5.22523 13.1296 5.07203 11.2038 6.61278L5.30636 11.3307C4.78494 10.5573 3.90096 10.0477 2.9002 10.0477H0.966732C0.432803 10.0476 0 10.4804 0 11.0143V26.4815C0 27.0154 0.432803 27.4483 0.966732 27.4483H2.90013C4.03425 27.4483 5.01787 26.7935 5.49431 25.8424C8.38703 26.908 11.4154 27.4483 14.5074 27.4483C14.9162 27.4483 17.9583 27.4483 18.3673 27.4483C19.9665 27.4483 21.2675 26.1473 21.2675 24.5482C21.2675 24.1708 21.1942 23.8103 21.0624 23.4793C22.2932 23.1439 23.2009 22.0169 23.2009 20.6813C23.2009 20.304 23.1277 19.9435 22.9958 19.6125C24.2266 19.2771 25.1343 18.1501 25.1343 16.8145C25.1343 16.4749 25.075 16.1489 24.9673 15.8457H30.0999C31.699 15.8457 33 14.5447 33 12.9456V12.9391C33 11.3436 31.699 10.0584 30.0999 10.0584ZM3.8668 24.5482C3.8668 25.0812 3.43316 25.5149 2.90007 25.5149H1.9334V11.981H2.90013C3.43316 11.981 3.86687 12.4147 3.86687 12.9477L3.8668 24.5482ZM31.0666 12.9456C31.0666 13.4786 30.633 13.9252 30.0999 13.9252H18.377C17.8431 13.9252 17.4103 14.3451 17.4103 14.879C17.4103 15.4129 17.8431 15.8458 18.377 15.8458H22.1918C22.206 15.8464 22.2199 15.8479 22.2341 15.8479C22.7672 15.8479 23.2009 16.2815 23.2009 16.8146C23.2009 17.3476 22.7672 17.7813 22.2341 17.7813H18.3673C17.8335 17.7813 17.4006 18.2141 17.4006 18.7481C17.4006 19.282 17.8334 19.7148 18.3673 19.7148H20.3007C20.8338 19.7148 21.2675 20.1485 21.2675 20.6815C21.2675 21.2146 20.8338 21.6483 20.3007 21.6483H18.3673C17.8335 21.6483 17.4006 22.0811 17.4006 22.615C17.4006 23.1489 17.8334 23.5817 18.3673 23.5817C18.9004 23.5817 19.3341 24.0154 19.3341 24.5485C19.3341 25.0816 18.9004 25.5152 18.3673 25.5152C17.9579 25.5152 14.9162 25.5152 14.5074 25.5152C11.5153 25.5152 8.58754 24.9694 5.8002 23.8921V13.4115L12.4115 8.12246C13.5669 7.19801 15.2274 7.28999 16.2738 8.33638L17.983 10.0584C14.7175 10.0584 17.9573 10.0541 14.5005 10.0541C13.9666 10.0541 13.5337 10.4869 13.5337 11.0209C13.5337 11.5547 13.9665 11.9747 14.5005 11.9747C14.7125 11.9747 29.8874 11.979 30.0998 11.979C30.6328 11.979 31.0665 12.4098 31.0665 12.9393L31.0666 12.9456Z" fill="#96BF48"/>
</g>
<defs>
<clipPath id="clip0_510_2881">
<rect width="33" height="33" fill="white"/>
</clipPath>
</defs>
</svg>
