<svg width="458" height="410" viewBox="0 0 458 410" fill="none" xmlns="http://www.w3.org/2000/svg">
<path d="M457 390.876V17.8595L442.165 9.00826L428.621 22.0744L407.337 9.00826L383.472 15.3306L360.253 1L328.004 22.0744L268.021 11.5372L260.281 19.124L230.612 12.3802L211.263 27.5537L172.564 6.05785L130.641 20.3884L107.421 7.32231L85.4922 24.1818L57.1132 1.42149L31.314 19.5455L1 12.8017V395.091L29.3791 388.769L55.8232 406.893L85.4922 384.132L106.777 400.57L126.771 388.769L171.919 401.413L209.973 381.182L229.967 395.934L258.992 388.769L266.086 397.198L324.134 384.975L360.253 409L380.892 392.141L406.047 398.041L428.621 386.661L442.165 399.727L457 390.876Z" fill="#FAFFF3" stroke="#FAFFF3" stroke-width="0.942197"/>
</svg>
