<svg width="107" height="20" viewBox="0 0 107 20" fill="none" xmlns="http://www.w3.org/2000/svg">
<path d="M9.17173 1.71631L11.5334 6.84771L16.8146 7.67562L12.9932 11.6676L13.8951 17.3073L9.17173 14.6432L4.4484 17.3073L5.35027 11.6676L1.52881 7.67562L6.81007 6.84771L9.17173 1.71631Z" fill="#FF7F00" stroke="#FF7F00" stroke-width="1.17836" stroke-linecap="round" stroke-linejoin="round"/>
<path d="M53.5013 1.71631L55.863 6.84771L61.1442 7.67562L57.3228 11.6676L58.2246 17.3073L53.5013 14.6432L48.778 17.3073L49.6799 11.6676L45.8584 7.67562L51.1397 6.84771L53.5013 1.71631Z" fill="#FF7F00" stroke="#FF7F00" stroke-width="1.17836" stroke-linecap="round" stroke-linejoin="round"/>
<path d="M31.3363 1.71631L33.6979 6.84771L38.9792 7.67562L35.1577 11.6676L36.0596 17.3073L31.3363 14.6432L26.613 17.3073L27.5148 11.6676L23.6934 7.67562L28.9746 6.84771L31.3363 1.71631Z" fill="#FF7F00" stroke="#FF7F00" stroke-width="1.17836" stroke-linecap="round" stroke-linejoin="round"/>
<path d="M75.6659 1.71631L78.0275 6.84771L83.3088 7.67562L79.4873 11.6676L80.3892 17.3073L75.6659 14.6432L70.9425 17.3073L71.8444 11.6676L68.0229 7.67562L73.3042 6.84771L75.6659 1.71631Z" fill="#FF7F00" stroke="#FF7F00" stroke-width="1.17836" stroke-linecap="round" stroke-linejoin="round"/>
<path d="M97.8294 1.71631L100.191 6.84771L105.472 7.67562L101.651 11.6676L102.553 17.3073L97.8294 14.6432L93.1061 17.3073L94.008 11.6676L90.1865 7.67562L95.4678 6.84771L97.8294 1.71631Z" fill="#FF7F00" stroke="#FF7F00" stroke-width="1.17836" stroke-linecap="round" stroke-linejoin="round"/>
</svg>
