<svg width="140" height="140" viewBox="0 0 140 140" fill="none" xmlns="http://www.w3.org/2000/svg">
<path d="M138.403 74.023C138.403 109.579 109.579 138.403 74.0224 138.403C38.4661 138.403 9.64194 109.579 9.64194 74.023C9.64194 38.4666 38.4661 9.64252 74.0224 9.64252C109.579 9.64252 138.403 38.4666 138.403 74.023Z" fill="#82BC29" stroke="#82BC29" stroke-width="3.19306"/>
<path d="M130.357 65.977C130.357 101.533 101.533 130.357 65.977 130.357C30.4207 130.357 1.59653 101.533 1.59653 65.977C1.59653 30.4207 30.4207 1.59653 65.977 1.59653C101.533 1.59653 130.357 30.4207 130.357 65.977Z" fill="#F3FFE0" stroke="white" stroke-width="3.19306"/>
<g clip-path="url(#clip0_2001_129)">
<path d="M65.9752 78.8506C80.1949 78.8506 91.7223 67.3232 91.7223 53.1035C91.7223 38.8837 80.1949 27.3563 65.9752 27.3563C51.7554 27.3563 40.228 38.8837 40.228 53.1035C40.228 67.3232 51.7554 78.8506 65.9752 78.8506Z" fill="#FFD576"/>
<path d="M65.9747 70.3218C75.4842 70.3218 83.1931 62.6129 83.1931 53.1034C83.1931 43.594 75.4842 35.885 65.9747 35.885C56.4653 35.885 48.7563 43.594 48.7563 53.1034C48.7563 62.6129 56.4653 70.3218 65.9747 70.3218Z" fill="#EFC75E"/>
<path d="M94.7799 95.9081L84.8029 92.207C83.8374 91.8851 82.8719 92.3679 82.7109 93.3334L79.8144 103.471C79.3316 104.92 77.4006 105.081 76.7569 103.632L66.1362 78.8507C72.573 78.8507 78.3661 76.4369 82.8719 72.5748L96.7109 93.4943C97.5155 94.7817 96.2282 96.3909 94.7799 95.9081Z" fill="#ED655F"/>
<path d="M49.079 72.4137C53.5847 76.2758 59.3778 78.6896 65.8146 78.6896L55.3548 103.471C54.7111 104.919 52.7801 104.759 52.2973 103.31L49.2399 93.3333C48.918 92.3678 47.9525 91.885 47.1479 92.2069L37.1709 95.908C35.7226 96.3908 34.2744 94.7816 35.2399 93.4942L49.079 72.4137Z" fill="#FF8080"/>
<path d="M66.9402 44.092L69.0322 48.2759C69.1931 48.5977 69.515 48.7586 69.8368 48.9196L74.3425 49.5632C75.3081 49.7242 75.6299 50.8506 74.9862 51.4943L71.7678 54.7127C71.446 55.0345 71.446 55.3563 71.446 55.6782L72.2506 60.1839C72.4115 61.1494 71.446 61.7931 70.6414 61.3104L66.6184 59.2184C66.2966 59.0575 65.9747 59.0575 65.6529 59.2184L61.6299 61.3104C60.8253 61.7931 59.8598 60.9885 60.0207 60.1839L60.8253 55.6782C60.8253 55.3563 60.8253 55.0345 60.5035 54.7127L57.2851 51.4943C56.6414 50.8506 56.9632 49.7242 57.9288 49.5632L62.4345 48.9196C62.7563 48.9196 63.0782 48.5977 63.2391 48.2759L65.3311 44.092C65.3311 43.2874 66.6184 43.2874 66.9402 44.092Z" fill="white"/>
</g>
<defs>
<clipPath id="clip0_2001_129">
<rect width="77.2414" height="77.2414" fill="white" transform="translate(27.3545 27.3563)"/>
</clipPath>
</defs>
</svg>
