<svg width="140" height="140" viewBox="0 0 140 140" fill="none" xmlns="http://www.w3.org/2000/svg">
<circle cx="74.0239" cy="74.023" r="65.1403" fill="#82BC29" stroke="#82BC29" stroke-width="1.67347"/>
<circle cx="65.977" cy="65.977" r="65.1403" fill="#F3FFE0" stroke="#F3FFE0" stroke-width="1.67347"/>
<path d="M79.0374 66.0066V67.9854C71.0403 74.7723 59.3057 74.7723 51.3086 67.9854V66.0066C51.308 61.3021 54.351 57.1379 58.8332 55.7091C62.5257 58.7004 67.8077 58.7004 71.5002 55.7091H71.5128C75.9972 57.1348 79.0416 61.301 79.0374 66.0066Z" fill="#EF314C"/>
<path d="M71.5117 55.7091H71.4991C71.0235 56.0905 70.5143 56.428 69.9778 56.7174C73.2554 58.6631 75.2619 62.195 75.2551 66.0066V67.9854C71.8822 70.8598 67.6963 72.61 63.2812 72.9917C63.9039 73.0459 64.5341 73.0774 65.1719 73.0774C70.2526 73.0872 75.1696 71.2813 79.0363 67.9854V66.0066C79.0404 61.301 75.9961 57.1348 71.5117 55.7091Z" fill="#BB193B"/>
<path d="M75.2594 47.8694C75.2625 50.9145 73.8861 53.7971 71.516 55.7091H71.5034C67.8381 58.6608 62.6177 58.6821 58.9285 55.7605C55.2392 52.8388 54.0638 47.7525 56.0971 43.5084C58.1305 39.2643 62.8309 36.993 67.4196 38.0373C72.0083 39.0816 75.2629 43.1633 75.2594 47.8694Z" fill="#FFE0B2"/>
<path d="M65.1719 37.7862C64.5373 37.7879 63.9044 37.8491 63.2812 37.9689C67.1353 38.7066 70.2114 41.6133 71.1659 45.4195C72.1205 49.2256 70.7802 53.2399 67.7305 55.7091H67.7179C66.4313 56.7509 64.9073 57.4587 63.2812 57.7698C66.1905 58.3324 69.1995 57.5778 71.4991 55.7091H71.5117C74.8332 53.0225 76.1012 48.5343 74.6765 44.5068C73.2519 40.4794 69.4439 37.7867 65.1719 37.7862Z" fill="#DFC49C"/>
<path d="M86.5998 51.6506C86.6069 57.9398 83.8399 63.912 79.0374 67.9728V66.0066C79.0416 61.301 75.9973 57.1348 71.5129 55.7091C74.8352 53.0227 76.1039 48.534 74.6791 44.506C73.2544 40.4779 69.4456 37.7851 65.173 37.7851C60.9005 37.7851 57.0917 40.4779 55.667 44.506C54.2422 48.534 55.5108 53.0227 58.8332 55.7091C54.351 57.1379 51.3081 61.3021 51.3086 66.0066V67.9728C43.7475 61.5559 41.5778 50.7888 46.0635 41.9442C50.5493 33.0997 60.5182 28.489 70.1626 30.7984C79.807 33.1077 86.6065 41.7335 86.5998 51.6506Z" fill="#02A9F4"/>
<path d="M55.0931 47.8694C55.095 43.0311 58.5332 38.8761 63.2857 37.9689C58.7461 37.1062 54.2011 39.4396 52.2564 43.6313C50.3117 47.8229 51.4651 52.8 55.0553 55.7091C51.2659 56.9213 48.4483 60.1165 47.7197 64.0277C48.7482 65.4871 49.9549 66.8124 51.3119 67.9728V66.0065C51.3113 61.3021 54.3543 57.1378 58.8365 55.7091C56.4664 53.7971 55.0899 50.9145 55.0931 47.8694Z" fill="#0377BC"/>
<path d="M65.1719 30.2238C64.5341 30.2238 63.9115 30.2641 63.2812 30.3196C70.9255 30.9793 77.6296 35.6858 80.8471 42.6512C84.0646 49.6166 83.3018 57.7722 78.8485 64.0202C78.9713 64.6752 79.0341 65.3401 79.0363 66.0065V67.9728C85.8878 62.1609 88.3834 52.6905 85.2859 44.2569C82.1884 35.8232 74.1563 30.2194 65.1719 30.2238Z" fill="#0377BC"/>
<path d="M49.1783 85.3789L49.2791 85.4671V85.4797L50.4135 92.0464C50.483 92.4293 50.3281 92.8184 50.0146 93.0488C49.701 93.2793 49.2835 93.311 48.9388 93.1304L41.8553 89.4374L34.7719 93.1304C34.4272 93.311 34.0097 93.2793 33.6961 93.0488C33.3825 92.8184 33.2277 92.4293 33.2972 92.0464L34.6459 84.2571L28.9362 78.7618C28.6495 78.496 28.5422 78.0884 28.661 77.7159C28.7797 77.3434 29.1031 77.0732 29.4908 77.0224L37.3935 75.8881L40.9479 68.7794C41.1163 68.4316 41.4688 68.2106 41.8553 68.2106C42.2419 68.2106 42.5944 68.4316 42.7628 68.7794L46.3046 75.8881L54.2199 77.0224C54.6075 77.0732 54.9309 77.3434 55.0497 77.7159C55.1685 78.0884 55.0612 78.496 54.7744 78.7618L50.1866 83.1732L49.8715 83.2236C49.3953 83.2927 49 83.6269 48.8526 84.085C48.7053 84.5431 48.8316 85.0451 49.1783 85.3789Z" fill="#FEC108"/>
<path d="M81.1943 85.3789L81.0683 85.5049L74.1109 92.1976L75.7872 101.852C75.8679 102.322 75.6763 102.798 75.2922 103.081C74.908 103.363 74.3972 103.405 73.9722 103.188L65.1873 98.6131L56.4023 103.188C55.9761 103.406 55.4637 103.365 55.0774 103.083C54.6911 102.8 54.4967 102.324 54.5747 101.852L56.251 92.1976L49.281 85.4797V85.4671L49.1802 85.3789C48.8335 85.0451 48.7072 84.5431 48.8545 84.085C49.0019 83.6269 49.3972 83.2927 49.8734 83.2236L50.1885 83.1732L59.6541 81.8245L64.0529 73.0143C64.2661 72.5865 64.703 72.3162 65.181 72.3162C65.6589 72.3162 66.0958 72.5865 66.309 73.0143L70.6952 81.8245L80.1608 83.1732L80.5011 83.2236C80.9773 83.2927 81.3727 83.6269 81.52 84.085C81.6673 84.5431 81.541 85.0451 81.1943 85.3789Z" fill="#FFDC00"/>
<path d="M80.4983 83.2236L80.158 83.1731L70.6924 81.8245L66.3062 73.0143C66.093 72.5865 65.6561 72.3161 65.1782 72.3161C64.7002 72.3161 64.2633 72.5865 64.0501 73.0143L63.2812 74.5432L66.9112 81.8245L76.3768 83.1731L76.7171 83.2236C77.1933 83.2927 77.5886 83.6269 77.736 84.085C77.8833 84.5431 77.757 85.0451 77.4103 85.3788L77.2843 85.5049L70.3269 92.1976L72.0032 101.852C72.0193 101.957 72.0222 102.063 72.012 102.169L73.9694 103.188C74.3944 103.405 74.9052 103.363 75.2894 103.081C75.6735 102.798 75.8651 102.322 75.7844 101.852L74.1081 92.1976L81.0655 85.5049L81.1915 85.3788C81.5382 85.0451 81.6645 84.5431 81.5172 84.085C81.3699 83.6269 80.9745 83.2927 80.4983 83.2236Z" fill="#FEC108"/>
<path d="M101.41 78.7618L95.7006 84.2571L97.0492 92.0464C97.1187 92.4293 96.9639 92.8183 96.6503 93.0488C96.3368 93.2793 95.9192 93.311 95.5745 93.1303L88.4911 89.4374L81.4076 93.1303C81.0629 93.311 80.6454 93.2793 80.3318 93.0488C80.0183 92.8183 79.8635 92.4293 79.933 92.0464L81.0673 85.5049L81.1934 85.3789C81.54 85.0451 81.6664 84.5431 81.519 84.085C81.3717 83.6269 80.9764 83.2927 80.5001 83.2236L80.1598 83.1732L75.572 78.7618C75.2852 78.496 75.1779 78.0884 75.2967 77.7159C75.4155 77.3434 75.7389 77.0732 76.1266 77.0224L84.0293 75.8881L87.5836 68.7794C87.7521 68.4316 88.1046 68.2106 88.4911 68.2106C88.8776 68.2106 89.2301 68.4316 89.3986 68.7794L92.9403 75.8881L100.856 77.0224C101.243 77.0732 101.567 77.3434 101.685 77.7159C101.804 78.0884 101.697 78.496 101.41 78.7618Z" fill="#FEC108"/>
<path d="M71.7829 70.7204C71.3576 70.8686 71.0437 71.2324 70.9593 71.6748C70.875 72.1172 71.033 72.571 71.374 72.8652C71.7149 73.1595 72.187 73.2495 72.6123 73.1013C83.0806 69.4733 89.399 58.8165 87.5595 47.8911C85.7199 36.9657 76.2602 28.9656 65.181 28.9656C54.1017 28.9656 44.642 36.9657 42.8025 47.8911C40.9629 58.8165 47.2813 69.4733 57.7496 73.1013C58.4075 73.33 59.1261 72.9821 59.3548 72.3243C59.5834 71.6665 59.2355 70.9478 58.5777 70.7192C56.3986 69.9587 54.3666 68.8288 52.5707 67.3791V66.0065C52.5655 62.0748 54.9865 58.5473 58.6571 57.1384C62.5618 59.9047 67.7875 59.9047 71.6922 57.1384C75.3629 58.5473 77.7838 62.0748 77.7787 66.0065V67.3842C75.9859 68.8314 73.9578 69.9599 71.7829 70.7204ZM56.3519 47.8694C56.3519 42.9967 60.302 39.0466 65.1747 39.0466C70.0474 39.0466 73.9975 42.9967 73.9975 47.8694C73.9975 52.7421 70.0474 56.6922 65.1747 56.6922C60.3043 56.6866 56.3574 52.7398 56.3519 47.8694ZM73.7454 55.2717C77.7081 50.6949 77.3785 43.8129 72.9966 39.6358C68.6146 35.4586 61.7247 35.4586 57.3427 39.6358C52.9607 43.8129 52.6311 50.6949 56.5939 55.2717C52.8825 57.1692 50.4208 60.8557 50.0902 65.0108C42.9052 56.9132 43.3956 44.5872 51.2012 37.0859C59.0068 29.5847 71.3425 29.5847 79.1482 37.0859C86.9538 44.5872 87.4441 56.9132 80.2591 65.0108C79.9275 60.8532 77.4613 57.1659 73.7454 55.2717Z" fill="black"/>
<path d="M54.3364 104.097C55.1071 104.666 56.1348 104.745 56.9832 104.3L65.1847 100.039L73.3848 104.301C74.2352 104.743 75.2627 104.665 76.0362 104.099C76.8097 103.533 77.1953 102.577 77.0312 101.633L75.4733 92.6439L82.0652 86.2902C82.7577 85.6226 83.0099 84.619 82.7153 83.7033C82.4207 82.7876 81.6306 82.1194 80.6787 81.9809L71.5282 80.6663L67.4445 72.4573C67.0206 71.5977 66.1431 71.0555 65.1847 71.0608C64.229 71.0573 63.3545 71.5974 62.9298 72.4535L58.8234 80.6663L49.6931 81.9796C48.7406 82.1178 47.95 82.7863 47.6553 83.7024C47.3606 84.6186 47.6134 85.6227 48.3066 86.2902L54.901 92.6439L53.3419 101.633C53.1754 102.577 53.5613 103.533 54.3364 104.097ZM50.051 84.4752L59.8343 83.0673C60.243 83.0087 60.5971 82.7534 60.7821 82.3842L65.1834 73.5816L69.5658 82.3817C69.7504 82.7522 70.1051 83.0085 70.5149 83.0673L80.3183 84.4752L73.2424 91.2927C72.9414 91.583 72.804 92.0037 72.8756 92.4157L74.5482 102.067L65.767 97.5027C65.4027 97.3135 64.9691 97.3135 64.6049 97.5027L55.8224 102.067L57.495 92.4183C57.5666 92.0062 57.4292 91.5855 57.1282 91.2952L50.051 84.4752Z" fill="black"/>
<path d="M33.2888 84.7008L32.0574 91.8208C31.9386 92.4846 32.1195 93.167 32.5516 93.6847C32.9837 94.2025 33.6228 94.5025 34.2971 94.5042C34.6653 94.5036 35.028 94.4145 35.3546 94.2446L41.8595 90.8591L48.3607 94.2521C48.7601 94.4602 49.2402 94.4393 49.62 94.1974C49.9999 93.9555 50.2219 93.5294 50.2023 93.0795C50.1828 92.6295 49.9247 92.2242 49.5253 92.0162L42.4419 88.3232C42.0769 88.1331 41.6422 88.1331 41.2772 88.3232L34.6261 91.788L35.8865 84.4777C35.9581 84.0657 35.8207 83.645 35.5197 83.3547L30.1668 78.1871L37.5742 77.1233C37.9832 77.0643 38.3374 76.8086 38.522 76.4389L41.8595 69.7663L45.1845 76.4376C45.3693 76.8085 45.7246 77.0648 46.1348 77.1233L54.0489 78.2576C54.738 78.3561 55.3765 77.8773 55.475 77.1882C55.5735 76.4991 55.0947 75.8606 54.4056 75.7621L47.1457 74.7222L43.8976 68.2034C43.5128 67.4279 42.7202 66.9389 41.8545 66.943H41.8469C40.9907 66.9413 40.2081 67.4275 39.8303 68.1959L36.5659 74.7222L29.3274 75.7608C28.4608 75.8763 27.7377 76.4795 27.4686 77.3113C27.1995 78.1431 27.4323 79.0555 28.067 79.6567L33.2888 84.7008Z" fill="black"/>
<path d="M102.876 77.3073C102.613 76.4798 101.896 75.8781 101.036 75.7621L93.7886 74.7222L90.5317 68.1972C90.1551 67.4266 89.3727 66.9377 88.5151 66.9368H88.5075C87.6413 66.9322 86.8481 67.4212 86.4631 68.1972L83.2164 74.7147L75.9552 75.7545C75.5094 75.8182 75.1315 76.1149 74.9637 76.5329C74.796 76.9508 74.864 77.4265 75.1421 77.7807C75.4202 78.1349 75.8661 78.3138 76.3119 78.2501L84.2272 77.1157C84.6374 77.0573 84.9927 76.801 85.1775 76.4301L88.4949 69.7664L91.8262 76.4389C92.0108 76.8086 92.3649 77.0644 92.774 77.1233L100.178 78.1858L94.8246 83.3535C94.5237 83.6438 94.3863 84.0645 94.4579 84.4765L95.7246 91.7868L89.0734 88.3182C88.7085 88.1281 88.2738 88.1281 87.9088 88.3182L80.8254 92.0112C80.426 92.2192 80.1679 92.6245 80.1483 93.0744C80.1288 93.5244 80.3508 93.9505 80.7306 94.1924C81.1105 94.4343 81.5906 94.4551 81.99 94.2471L88.4949 90.8592L94.9986 94.2521C95.7684 94.6521 96.6985 94.5803 97.3978 94.0669C98.0971 93.5536 98.4442 92.6877 98.2933 91.8334L97.0656 84.7008L102.291 79.6592C102.924 79.0538 103.151 78.1385 102.876 77.3073Z" fill="black"/>
<path d="M58.2439 88.3774C58.3046 88.3771 58.3653 88.3725 58.4254 88.3636L63.1658 87.6817C63.5745 87.623 63.9286 87.3678 64.1136 86.9985L66.3067 82.6136C66.6199 81.9906 66.3688 81.2316 65.7458 80.9184C65.1228 80.6051 64.3638 80.8562 64.0506 81.4793L62.16 85.2743L58.07 85.8629C57.4148 85.9563 56.9434 86.5404 56.9905 87.2004C57.0376 87.8605 57.5872 88.3717 58.2489 88.3711L58.2439 88.3774Z" fill="black"/>
</svg>
