<svg width="36" height="37" viewBox="0 0 36 37" fill="none" xmlns="http://www.w3.org/2000/svg">
<g clip-path="url(#clip0_1392_58)">
<path d="M33.8089 10.1295C33.6307 9.41763 33.2678 8.76537 32.7569 8.23862C32.2459 7.71187 31.605 7.32929 30.8989 7.12951C28.3189 6.49951 17.9989 6.49951 17.9989 6.49951C17.9989 6.49951 7.67891 6.49951 5.0989 7.18951C4.39278 7.38929 3.75187 7.77187 3.24092 8.29862C2.72998 8.82537 2.36709 9.47763 2.1889 10.1895C1.71673 12.8078 1.48576 15.464 1.4989 18.1245C1.48207 20.8051 1.71306 23.4815 2.1889 26.1195C2.38534 26.8093 2.75636 27.4367 3.26612 27.9412C3.77588 28.4457 4.40714 28.8102 5.0989 28.9995C7.67891 29.6895 17.9989 29.6895 17.9989 29.6895C17.9989 29.6895 28.3189 29.6895 30.8989 28.9995C31.605 28.7997 32.2459 28.4172 32.7569 27.8904C33.2678 27.3637 33.6307 26.7114 33.8089 25.9995C34.2774 23.4009 34.5084 20.765 34.4989 18.1245C34.5157 15.4439 34.2848 12.7676 33.8089 10.1295Z" stroke="#82BC29" stroke-width="3" stroke-linecap="round" stroke-linejoin="round"/>
<path d="M14.625 23.0292L23.25 18.1242L14.625 13.2192V23.0292Z" stroke="#82BC29" stroke-width="3" stroke-linecap="round" stroke-linejoin="round"/>
</g>
<defs>
<clipPath id="clip0_1392_58">
<rect width="36" height="36" fill="white" transform="translate(0 0.5)"/>
</clipPath>
</defs>
</svg>
