<svg width="556" height="302" viewBox="0 0 556 302" fill="none" xmlns="http://www.w3.org/2000/svg">
<path d="M555 287.674V13.3967L536.977 6.88843L520.522 16.4959L494.663 6.88843L465.67 11.5372L437.461 1L398.281 16.4959L325.407 8.74793L316.004 14.3264L279.959 9.36777L256.451 20.5248L209.436 4.71901L158.502 15.2562L130.293 5.64876L103.651 18.0455L69.1726 1.30992L37.8289 14.6364L1 9.67769V290.773L35.4781 286.124L67.6054 299.45L103.651 282.715L129.509 294.802L153.801 286.124L208.652 295.421L254.884 280.545L279.175 291.393L314.437 286.124L323.057 292.322L393.58 283.335L437.461 301L462.536 288.603L493.096 292.942L520.522 284.574L536.977 294.182L555 287.674Z" fill="#FAFFF3" stroke="#FAFFF3" stroke-width="0.942197"/>
</svg>
