<svg width="110" height="109" viewBox="0 0 110 109" fill="none" xmlns="http://www.w3.org/2000/svg">
<circle cx="58.1393" cy="57.4766" r="51.2292" fill="#82BC29"/>
<circle cx="51.8893" cy="51.2292" r="50.841" fill="#F3FFE0" stroke="#82BC29" stroke-width="0.77647"/>
<g clip-path="url(#clip0_1324_709)">
<path fill-rule="evenodd" clip-rule="evenodd" d="M37.9375 43.4634H73.4385V43.47H74.0112C74.1369 43.47 74.2627 43.4866 74.3819 43.5131C74.7956 43.6158 75.1466 43.8772 75.365 44.2413C75.5769 44.5955 75.6398 45.0126 75.5438 45.4132L71.3466 62.5927H42.6081L40.4201 53.6289L37.9375 43.4635V43.4634Z" fill="#F2992C"/>
<path fill-rule="evenodd" clip-rule="evenodd" d="M44.8359 43.4634H73.4388V43.47H74.0114C74.1372 43.47 74.2629 43.4866 74.3822 43.5131C74.7959 43.6158 75.1468 43.8772 75.3653 44.2413C75.5771 44.5955 75.6401 45.0126 75.5441 45.4132L71.3469 62.5927H49.5099L47.3187 53.6289L44.8361 43.4635L44.8359 43.4634Z" fill="#FAA845"/>
<path fill-rule="evenodd" clip-rule="evenodd" d="M35.9366 44.4201C35.7777 43.7646 35.4434 43.1457 34.9204 42.7088C34.4636 42.3248 33.8944 42.1195 33.2952 42.1195H30.9219V38.9551H33.2952C34.6457 38.9551 35.9135 39.435 36.943 40.3023C37.979 41.1761 38.6775 42.3711 38.9985 43.682C40.9515 51.6891 42.3252 57.3032 44.2782 65.3136H70.6831L70.2462 67.1043L70.2429 67.1275C70.1204 67.8954 69.4551 68.4615 68.6805 68.4615C60.1337 68.4615 51.587 68.4482 43.0402 68.4548C42.3153 68.4548 41.6831 67.9517 41.5109 67.25C39.4586 58.8422 37.9889 52.8277 35.9367 44.42L35.9366 44.4201Z" fill="#676873"/>
<path fill-rule="evenodd" clip-rule="evenodd" d="M48.5529 78.5243C50.5257 78.5243 52.1312 76.9156 52.1312 74.946C52.1312 72.9764 50.5258 71.3678 48.5529 71.3678C46.58 71.3678 44.9746 72.9732 44.9746 74.946C44.9746 76.9188 46.5833 78.5243 48.5529 78.5243Z" fill="#676873"/>
<path fill-rule="evenodd" clip-rule="evenodd" d="M63.1701 78.5243C65.1396 78.5243 66.7483 76.9156 66.7483 74.946C66.7483 72.9764 65.1396 71.3678 63.1701 71.3678C61.2006 71.3678 59.5918 72.9732 59.5918 74.946C59.5918 76.9188 61.1972 78.5243 63.1701 78.5243Z" fill="#676873"/>
<path fill-rule="evenodd" clip-rule="evenodd" d="M20.3843 42.7848H30.2584C30.6225 42.7848 30.9238 42.4835 30.9238 42.1194V38.9549C30.9238 38.5908 30.6225 38.2896 30.2584 38.2896H20.3843C19.1462 38.2896 18.1367 39.2992 18.1367 40.5371C18.1367 41.7717 19.1463 42.7848 20.3843 42.7848Z" fill="#FFCB5B"/>
<path fill-rule="evenodd" clip-rule="evenodd" d="M66.6899 27.3068C72.1715 32.7884 72.1715 41.676 66.6899 47.1609C61.2083 52.6425 52.3174 52.6425 46.8358 47.1609C41.3542 41.676 41.3542 32.7882 46.8358 27.3068C52.3174 21.8252 61.2083 21.8252 66.6899 27.3068Z" fill="#0F9347"/>
<path fill-rule="evenodd" clip-rule="evenodd" d="M66.6883 27.3068C72.1699 32.7884 72.1699 41.6761 66.6883 47.1609C64.4043 49.4416 61.5311 50.7755 58.5586 51.1562C55.5827 50.7755 52.7096 49.4416 50.4257 47.1609C44.9441 41.6761 44.9441 32.7883 50.4257 27.3068C52.7096 25.0228 55.5829 23.6922 58.5586 23.3082C61.5311 23.6922 64.4043 25.0229 66.6883 27.3068Z" fill="#3CB54B"/>
<path fill-rule="evenodd" clip-rule="evenodd" d="M63.8768 30.1203C67.8059 34.0494 67.8059 40.4181 63.8768 44.3472C59.9478 48.273 53.579 48.273 49.6499 44.3472C45.7209 40.4181 45.7209 34.0494 49.6499 30.1203C53.579 26.1912 59.9478 26.1912 63.8768 30.1203Z" fill="#F7B84E"/>
<path fill-rule="evenodd" clip-rule="evenodd" d="M63.876 30.1204C67.8051 34.0495 67.8051 40.4183 63.876 44.3473C62.3301 45.8898 60.407 46.8266 58.4043 47.1576C56.4016 46.8266 54.4785 45.8898 52.9326 44.3473C49.0068 40.4183 49.0068 34.0495 52.9326 30.1204C54.4785 28.5746 56.4016 27.6378 58.4043 27.3069C60.407 27.6379 62.3301 28.5747 63.876 30.1204Z" fill="#FFCB5B"/>
<path d="M61.6463 32.997C61.921 32.7222 62.3645 32.7222 62.636 32.997C62.9108 33.2717 62.9108 33.7152 62.636 33.9867L55.1552 41.4676C54.8838 41.7424 54.4401 41.7424 54.1654 41.4676L50.8916 38.1939C50.6169 37.9191 50.6169 37.4756 50.8916 37.2041C51.1664 36.9293 51.6099 36.9293 51.8814 37.2041L54.6619 39.9813L61.6463 32.997Z" fill="#3CB54B"/>
<path d="M50.8891 38.1937C50.6177 37.919 50.6177 37.4755 50.8891 37.2007C51.1638 36.9259 51.6073 36.9259 51.8821 37.2007L54.6593 39.9778L61.6437 32.9935C61.9185 32.7187 62.362 32.7187 62.6367 32.9935C62.9115 33.2682 62.9115 33.7117 62.6367 33.9865L55.1559 41.4674C55.0202 41.6031 54.8414 41.6726 54.6593 41.6726C54.4806 41.6726 54.3019 41.6031 54.1661 41.4674L50.8891 38.1937ZM50.1476 30.6102C51.9714 28.7896 54.368 27.8793 56.7645 27.8793C59.1611 27.8793 61.5576 28.7896 63.3814 30.6102C67.0292 34.2613 67.0292 40.1997 63.3814 43.8474C59.7336 47.495 53.7953 47.4951 50.1476 43.8474C46.4998 40.1996 46.4998 34.2613 50.1476 30.6102ZM56.7645 47.9851C59.5219 47.9851 62.2759 46.9358 64.3746 44.8405C68.5718 40.6433 68.5718 33.8178 64.3746 29.6206C60.1806 25.4266 53.3518 25.4266 49.1546 29.6206C44.9607 33.8178 44.9607 40.6433 49.1546 44.8405C51.2533 46.9358 54.0106 47.9851 56.7647 47.9851H56.7645ZM63.1696 77.8193C61.584 77.8193 60.2931 76.5284 60.2931 74.9428C60.2931 73.3573 61.584 72.0663 63.1696 72.0663C64.7551 72.0663 66.0461 73.3573 66.0461 74.9428C66.0461 76.5284 64.7584 77.8193 63.1696 77.8193ZM63.1696 70.6628C60.8095 70.6628 58.8896 72.5827 58.8896 74.9428C58.8896 77.3029 60.8095 79.2228 63.1696 79.2228C65.5297 79.2228 67.4496 77.3029 67.4496 74.9428C67.4496 72.5827 65.5297 70.6628 63.1696 70.6628ZM48.5553 77.8193C46.9698 77.8193 45.6788 76.5284 45.6788 74.9428C45.6788 73.3573 46.9698 72.0663 48.5553 72.0663C50.1409 72.0663 51.4318 73.3573 51.4318 74.9428C51.4318 76.5284 50.1442 77.8193 48.5553 77.8193ZM48.5553 70.6628C46.1952 70.6628 44.2753 72.5827 44.2753 74.9428C44.2753 77.3029 46.1952 79.2228 48.5553 79.2228C50.9155 79.2228 52.8353 77.3029 52.8353 74.9428C52.8353 72.5827 50.9155 70.6628 48.5553 70.6628ZM74.8609 45.2477L70.7994 61.891H44.1695C43.1567 57.7402 42.2728 54.1254 41.3196 50.2129L39.8432 44.1653H43.7591C44.4245 45.4198 45.2851 46.5983 46.341 47.6542C49.1247 50.438 52.8288 51.9739 56.7645 51.9739C60.7003 51.9739 64.4044 50.438 67.1881 47.6542C68.244 46.5983 69.1047 45.4198 69.7734 44.1653H73.441C73.4973 44.1653 73.5536 44.1653 73.6131 44.1621C73.8284 44.1621 74.07 44.1588 74.219 44.1952C74.4474 44.2515 74.6394 44.3905 74.7618 44.5924C74.8811 44.791 74.9174 45.0227 74.8611 45.2478L74.8609 45.2477ZM69.7931 66.0121L69.5614 66.962C69.5582 66.9819 69.5548 66.9985 69.5515 67.0183C69.4853 67.4387 69.1113 67.7564 68.681 67.7564C65.2583 67.7564 61.8357 67.7532 58.4129 67.7498C53.3749 67.7498 48.1681 67.7465 43.0407 67.7498H43.0374C42.6402 67.7498 42.2926 67.475 42.1967 67.0779C41.1706 62.8773 40.29 59.2693 39.4095 55.6645C38.529 52.0598 37.6485 48.4517 36.6223 44.2479C36.202 42.5266 34.8978 41.4144 33.299 41.4144H31.6273V39.6567H33.299C35.6888 39.6567 37.7047 41.3382 38.3171 43.844L39.9555 50.5436C40.9486 54.6151 41.8622 58.3588 42.928 62.7216L42.9479 62.801C43.1597 63.6683 43.3749 64.5553 43.5999 65.4756C43.6793 65.7901 43.9608 66.0118 44.2818 66.0118H69.7929L69.7931 66.0121ZM18.8371 40.5373C18.8371 39.6833 19.5323 38.9914 20.383 38.9914H30.2239V42.0831H20.383C19.5323 42.0831 18.8371 41.388 18.8371 40.5373ZM47.334 27.7999C49.9357 25.1982 53.3518 23.8974 56.7645 23.8974C60.1773 23.8974 63.5966 25.1982 66.1951 27.7999C71.3953 33.0001 71.3953 41.4608 66.1951 46.661C63.6794 49.1801 60.3263 50.5703 56.7645 50.5703C53.2028 50.5703 49.8531 49.1799 47.334 46.661C42.1371 41.4608 42.1371 33.0001 47.334 27.7999ZM75.9633 43.8673C75.6456 43.3443 75.1457 42.9735 74.5499 42.8313C74.2288 42.7519 73.8944 42.7552 73.5999 42.7618H70.4288C72.5739 37.4424 71.4914 31.1135 67.1882 26.807C61.4418 21.0572 52.0907 21.0572 46.341 26.8069C42.0378 31.1134 40.9587 37.4423 43.1036 42.7617H39.4559C38.4859 40.0705 36.0531 38.2533 33.2991 38.2533H31.4322C31.1939 37.856 30.7569 37.5879 30.2571 37.5879H20.383C18.7577 37.5879 17.4336 38.9086 17.4336 40.5373C17.4336 42.1659 18.7577 43.4866 20.383 43.4866H30.2571C30.7569 43.4866 31.1939 43.2153 31.4322 42.818H33.2991C34.4278 42.818 35.0501 43.7282 35.2587 44.5823C36.2847 48.7862 37.1653 52.3909 38.0458 55.999C38.9263 59.6036 39.8068 63.2085 40.833 67.4123C41.0845 68.4384 41.9915 69.1534 43.0342 69.1534H43.0474C48.1681 69.1501 53.3749 69.1534 58.4129 69.1534C61.8356 69.1567 65.2582 69.1601 68.681 69.1601C69.7866 69.1601 70.7465 68.3491 70.9319 67.2667L71.3655 65.476C71.4184 65.2674 71.3687 65.0457 71.2364 64.8768C71.104 64.7079 70.8988 64.6087 70.6836 64.6087H44.8348C44.7256 64.1618 44.6196 63.7249 44.5137 63.2946H71.3489C71.6733 63.2946 71.9546 63.0729 72.0307 62.7584L76.2247 45.5789C76.3703 44.993 76.2777 44.3839 75.9632 43.8676L75.9633 43.8673Z" fill="#070202"/>
</g>
<defs>
<clipPath id="clip0_1324_709">
<rect width="59.7882" height="59.7882" fill="white" transform="translate(16.9688 20.9646)"/>
</clipPath>
</defs>
</svg>
