<svg width="109" height="109" viewBox="0 0 109 109" fill="none" xmlns="http://www.w3.org/2000/svg">
<ellipse cx="57.4789" cy="57.4788" rx="51.2308" ry="51.2311" fill="#82BC29"/>
<path d="M101.962 51.2311C101.962 79.2492 79.2487 101.962 51.2308 101.962C23.213 101.962 0.5 79.2492 0.5 51.2311C0.5 23.2131 23.213 0.5 51.2308 0.5C79.2487 0.5 101.962 23.2131 101.962 51.2311Z" fill="#F3FFE0" stroke="#82BC29"/>
<g clip-path="url(#clip0_1324_680)">
<path d="M34.8873 67.7714H31.8783C29.8011 67.7714 28.1172 66.0875 28.1172 64.0103V31.879C28.1172 29.8018 29.8011 28.1178 31.8783 28.1178H70.6182C72.6953 28.1178 74.3793 29.8018 74.3793 31.879V64.0103C74.3793 66.0875 72.6953 67.7714 70.6182 67.7714H66.763H34.8873Z" fill="white"/>
<path d="M70.6182 28.1178H31.8783C29.8011 28.1178 28.1172 29.8018 28.1172 31.879V34.8879H74.3793V31.879C74.3793 29.8018 72.6953 28.1178 70.6182 28.1178Z" fill="#FF5A5A"/>
<path d="M38.4612 64.037H32.4434V74.3802H38.4612V64.037Z" fill="#A5DC69"/>
<path d="M59.5237 61.5922H53.5059V74.3801H59.5237V61.5922Z" fill="#78D2FA"/>
<path d="M48.9924 53.6401H42.9746V74.3802H48.9924V53.6401Z" fill="#F5C86E"/>
<path d="M70.0549 52.2363H64.0371V74.3802H70.0549V52.2363Z" fill="#FF5A5A"/>
<path d="M45.4545 45.7897C46.8047 45.7897 47.8993 44.6951 47.8993 43.3449C47.8993 41.9947 46.8047 40.9001 45.4545 40.9001C44.1043 40.9001 43.0098 41.9947 43.0098 43.3449C43.0098 44.6951 44.1043 45.7897 45.4545 45.7897Z" fill="#F5C86E"/>
<path d="M56.4272 56.9847C57.7774 56.9847 58.8719 55.8902 58.8719 54.54C58.8719 53.1898 57.7774 52.0952 56.4272 52.0952C55.077 52.0952 53.9824 53.1898 53.9824 54.54C53.9824 55.8902 55.077 56.9847 56.4272 56.9847Z" fill="#78D2FA"/>
<path d="M67.0463 45.7897C68.3965 45.7897 69.4911 44.6951 69.4911 43.3449C69.4911 41.9947 68.3965 40.9001 67.0463 40.9001C65.6961 40.9001 64.6016 41.9947 64.6016 43.3449C64.6016 44.6951 65.6961 45.7897 67.0463 45.7897Z" fill="#FF5A5A"/>
<path d="M35.3901 56.0848C36.7403 56.0848 37.8348 54.9903 37.8348 53.6401C37.8348 52.2899 36.7403 51.1953 35.3901 51.1953C34.0399 51.1953 32.9453 52.2899 32.9453 53.6401C32.9453 54.9903 34.0399 56.0848 35.3901 56.0848Z" fill="#A5DC69"/>
<path d="M72.0372 68.5976C73.8476 68.5976 75.3204 67.1247 75.3204 65.3143V31.879C75.3204 29.2866 73.2114 27.1775 70.619 27.1775H31.8792C29.2868 27.1775 27.1777 29.2866 27.1777 31.879V65.3143C27.1777 67.1247 28.6506 68.5976 30.4609 68.5976H31.5031V73.4399H28.118C27.5987 73.4399 27.1777 73.861 27.1777 74.3802C27.1777 74.8994 27.5987 75.3205 28.118 75.3205H74.3801C74.8995 75.3205 75.3204 74.8994 75.3204 74.3802C75.3204 73.861 74.8995 73.4399 74.3801 73.4399H70.9951V68.5976H72.0372ZM31.8792 29.0581H70.619C72.1744 29.0581 73.4398 30.3235 73.4398 31.879V33.9476H29.1527C29.1208 33.9476 29.0893 33.9493 29.0583 33.9524V31.879C29.0583 30.3235 30.3237 29.0581 31.8792 29.0581ZM33.3836 73.4399V64.9773H37.5209V73.4399H33.3836ZM43.9148 73.4399V54.5806H48.0521V73.4399H43.9148ZM54.4461 73.4399V62.5325H58.5833V73.4399H54.4461ZM64.9773 73.4399V63.3082C64.9773 62.789 64.5563 62.3679 64.037 62.3679C63.5177 62.3679 63.0967 62.789 63.0967 63.3082V73.4399H60.4639V61.5922C60.4639 61.073 60.0429 60.6519 59.5236 60.6519H53.5058C52.9864 60.6519 52.5655 61.073 52.5655 61.5922V73.4399H49.9327V53.6403C49.9327 53.1211 49.5117 52.7 48.9924 52.7H42.9746C42.4552 52.7 42.0343 53.1211 42.0343 53.6403V73.4399H39.4015V64.037C39.4015 63.5177 38.9805 63.0967 38.4612 63.0967H32.4433C31.924 63.0967 31.5031 63.5177 31.5031 64.037V66.717H30.4609C29.6875 66.717 29.0583 66.0877 29.0583 65.3143V35.8234C29.0893 35.8265 29.1208 35.8282 29.1527 35.8282H73.4398V65.3143C73.4398 66.0877 72.8106 66.717 72.0372 66.717H70.9951V52.2363C70.9951 51.7171 70.5741 51.296 70.0548 51.296H64.037C63.5177 51.296 63.0967 51.7171 63.0967 52.2363V56.9847C63.0967 57.5039 63.5177 57.925 64.037 57.925C64.5563 57.925 64.9773 57.5039 64.9773 56.9847V53.1766H69.1145V73.4399H64.9773Z" fill="black"/>
<path d="M48.0575 32.4431H69.3018C69.8212 32.4431 70.2421 32.022 70.2421 31.5028C70.2421 30.9836 69.8212 30.5625 69.3018 30.5625H48.0575C47.5382 30.5625 47.1172 30.9836 47.1172 31.5028C47.1172 32.022 47.5382 32.4431 48.0575 32.4431Z" fill="black"/>
<path d="M36.9559 32.4431C37.2032 32.4431 37.4458 32.3425 37.6207 32.1675C37.7956 31.9927 37.8962 31.7501 37.8962 31.5028C37.8962 31.2555 37.7956 31.0129 37.6207 30.838C37.4458 30.6631 37.2032 30.5625 36.9559 30.5625C36.7086 30.5625 36.466 30.663 36.2911 30.838C36.1162 31.0129 36.0156 31.2555 36.0156 31.5028C36.0156 31.7501 36.1162 31.9927 36.2911 32.1675C36.466 32.3425 36.7086 32.4431 36.9559 32.4431Z" fill="black"/>
<path d="M33.1961 32.4431C33.4434 32.4431 33.686 32.3425 33.8609 32.1675C34.0358 31.9927 34.1364 31.7501 34.1364 31.5028C34.1364 31.2555 34.0358 31.0129 33.8609 30.838C33.686 30.6631 33.4434 30.5625 33.1961 30.5625C32.9489 30.5625 32.7063 30.663 32.5314 30.838C32.3565 31.0129 32.2559 31.2555 32.2559 31.5028C32.2559 31.7501 32.3565 31.9927 32.5314 32.1675C32.7063 32.3425 32.9489 32.4431 33.1961 32.4431Z" fill="black"/>
<path d="M40.7176 32.4431C40.9649 32.4431 41.2075 32.3425 41.3824 32.1675C41.5573 31.9927 41.6579 31.7501 41.6579 31.5028C41.6579 31.2555 41.5573 31.0129 41.3824 30.838C41.2075 30.6631 40.9659 30.5625 40.7176 30.5625C40.4703 30.5625 40.2277 30.663 40.0528 30.838C39.878 31.0129 39.7773 31.2555 39.7773 31.5028C39.7773 31.7501 39.878 31.9927 40.0528 32.1675C40.2277 32.3425 40.4703 32.4431 40.7176 32.4431Z" fill="black"/>
<path d="M64.0379 59.3958C63.7906 59.3958 63.5481 59.4955 63.3732 59.6713C63.1983 59.8462 63.0977 60.0887 63.0977 60.336C63.0977 60.5833 63.1983 60.8259 63.3732 61.0008C63.5481 61.1756 63.7906 61.2763 64.0379 61.2763C64.2852 61.2763 64.5278 61.1757 64.7027 61.0008C64.8776 60.8259 64.9782 60.5833 64.9782 60.336C64.9782 60.0878 64.8776 59.8462 64.7027 59.6713C64.5278 59.4954 64.2852 59.3958 64.0379 59.3958Z" fill="black"/>
<path d="M67.045 46.7299C68.9116 46.7299 70.43 45.2115 70.43 43.3449C70.43 41.4783 68.9116 39.9598 67.045 39.9598C65.1785 39.9598 63.66 41.4783 63.66 43.3449C63.66 44.0863 63.9002 44.7724 64.3061 45.3306L58.0602 51.5765C57.5755 51.3082 57.0186 51.155 56.4264 51.155C55.8928 51.155 55.3879 51.2796 54.9385 51.5004L48.4168 44.9787C48.6851 44.4939 48.8383 43.9371 48.8383 43.3449C48.8383 41.4783 47.3199 39.9598 45.4533 39.9598C43.5867 39.9598 42.0683 41.4783 42.0683 43.3449C42.0683 43.9973 42.2543 44.6068 42.5753 45.1241L37.0226 50.6767C36.5379 50.4085 35.981 50.2552 35.3889 50.2552C33.5224 50.2552 32.0039 51.7737 32.0039 53.6403C32.0039 55.5068 33.5224 57.0253 35.3889 57.0253C37.2555 57.0253 38.774 55.5068 38.774 53.6403C38.774 53.0481 38.6207 52.4912 38.3524 52.0065L43.9714 46.3875C44.4193 46.6065 44.9221 46.7299 45.4533 46.7299C46.0454 46.7299 46.6022 46.5766 47.087 46.3083L53.5448 52.7662C53.226 53.2824 53.0414 53.8898 53.0414 54.5398C53.0414 56.4064 54.5599 57.9249 56.4264 57.9249C58.293 57.9249 59.8115 56.4064 59.8115 54.5398C59.8115 53.9476 59.6582 53.3908 59.39 52.9061L65.8032 46.4928C66.188 46.6453 66.6067 46.7299 67.045 46.7299ZM67.045 41.8404C67.8745 41.8404 68.5495 42.5154 68.5495 43.3449C68.5495 44.1744 67.8745 44.8494 67.045 44.8494C66.2155 44.8494 65.5406 44.1744 65.5406 43.3449C65.5406 42.5154 66.2155 41.8404 67.045 41.8404ZM35.389 55.1449C34.5595 55.1449 33.8846 54.47 33.8846 53.6404C33.8846 52.8109 34.5595 52.136 35.389 52.136C36.2186 52.136 36.8935 52.8109 36.8935 53.6404C36.8935 54.47 36.2186 55.1449 35.389 55.1449ZM45.4534 44.8494C44.6239 44.8494 43.9489 44.1744 43.9489 43.3449C43.9489 42.5154 44.6239 41.8404 45.4534 41.8404C46.2829 41.8404 46.9579 42.5154 46.9579 43.3449C46.9579 44.1744 46.2829 44.8494 45.4534 44.8494ZM56.4265 56.0445C55.597 56.0445 54.9221 55.3695 54.9221 54.54C54.9221 53.7105 55.597 53.0355 56.4265 53.0355C57.2561 53.0355 57.931 53.7105 57.931 54.54C57.931 55.3695 57.2561 56.0445 56.4265 56.0445Z" fill="black"/>
<path d="M40.4598 40.9077C40.7071 40.9077 40.9488 40.8072 41.1246 40.6322C41.2995 40.4573 41.4001 40.2147 41.4001 39.9674C41.4001 39.7201 41.2995 39.4775 41.1246 39.3027C40.9488 39.1278 40.7071 39.0271 40.4598 39.0271C40.2116 39.0271 39.969 39.1277 39.7941 39.3027C39.6192 39.4775 39.5195 39.7201 39.5195 39.9674C39.5195 40.2147 39.6192 40.4573 39.7941 40.6322C39.9699 40.8071 40.2116 40.9077 40.4598 40.9077Z" fill="black"/>
<path d="M32.4442 40.9077H36.9576C37.4769 40.9077 37.8979 40.4866 37.8979 39.9674C37.8979 39.4482 37.4769 39.0271 36.9576 39.0271H32.4442C31.9249 39.0271 31.5039 39.4482 31.5039 39.9674C31.5039 40.4866 31.9249 40.9077 32.4442 40.9077Z" fill="black"/>
<path d="M36.9576 45.4211C37.4769 45.4211 37.8979 45 37.8979 44.4808C37.8979 43.9616 37.4769 43.5405 36.9576 43.5405H32.4442C31.9249 43.5405 31.5039 43.9616 31.5039 44.4808C31.5039 45 31.9249 45.4211 32.4442 45.4211H36.9576Z" fill="black"/>
</g>
<defs>
<clipPath id="clip0_1324_680">
<rect width="48.1427" height="48.143" fill="white" transform="translate(27.1777 27.1775)"/>
</clipPath>
</defs>
</svg>
