<svg width="110" height="109" viewBox="0 0 110 109" fill="none" xmlns="http://www.w3.org/2000/svg">
<circle cx="58.1393" cy="57.4765" r="51.2292" fill="#82BC29"/>
<circle cx="51.8893" cy="51.2292" r="50.841" fill="#F3FFE0" stroke="#82BC29" stroke-width="0.77647"/>
<g clip-path="url(#clip0_1324_575)">
<path d="M72.9241 37.7559V69.5907C72.9241 71.7347 71.1858 73.473 69.0418 73.473H36.3335C34.1895 73.473 32.4512 71.7347 32.4512 69.5907V37.7559H72.9241Z" fill="#F5F5F5"/>
<path d="M38.2746 73.473H36.3335C34.1895 73.473 32.4512 71.7347 32.4512 69.5907V37.7559H34.3923V69.5907C34.3923 71.7347 36.1306 73.473 38.2746 73.473Z" fill="#E6E6E6"/>
<path d="M72.9241 39.5028V52.1523C72.6718 52.195 72.4126 52.2173 72.1477 52.2173H71.4683C70.1813 52.2173 69.0166 51.6961 68.1741 50.8527C67.3307 50.0102 66.8095 48.8456 66.8095 47.5586C66.8095 48.8456 66.2883 50.0102 65.4449 50.8527C64.6024 51.6961 63.4377 52.2173 62.1508 52.2173C59.5778 52.2173 57.492 50.1316 57.492 47.5586C57.492 50.1316 55.4062 52.2173 52.8332 52.2173H52.7362C51.4492 52.2173 50.2845 51.6961 49.442 50.8527C48.5986 50.0102 48.0774 48.8456 48.0774 47.5586C48.0774 50.1316 45.9917 52.2173 43.4187 52.2173H43.2245C41.9376 52.2173 40.7729 51.6961 39.9304 50.8527C39.087 50.0102 38.5658 48.8456 38.5658 47.5586C38.5658 50.1316 36.48 52.2173 33.907 52.2173H33.2276C32.9627 52.2173 32.7035 52.195 32.4512 52.1523V39.5028H72.9241Z" fill="#E6E6E6"/>
<path d="M39.6116 37.7559L38.6633 44.2645C38.5983 44.778 38.5653 45.2943 38.5653 45.8116C38.5653 45.8932 38.5633 45.9737 38.5595 46.0543C38.4333 48.5147 36.398 50.4704 33.9065 50.4704H33.2271C31.9401 50.4704 30.7754 49.9492 29.933 49.1058C29.1429 48.3167 28.6353 47.2452 28.5742 46.0543C28.5703 45.9737 28.5684 45.8932 28.5684 45.8116C28.5684 45.3001 28.6809 44.7954 28.8993 44.3325L32.4507 37.7559L35.7145 36.7853L39.6116 37.7559Z" fill="#FD646F"/>
<path d="M48.0761 37.7559V45.8116C48.0761 45.8932 48.0741 45.9737 48.0703 46.0543C47.9441 48.5147 45.9088 50.4704 43.4173 50.4704H43.2232C41.9362 50.4704 40.7715 49.9492 39.9291 49.1058C39.139 48.3167 38.6314 47.2452 38.5703 46.0543C38.5664 45.9737 38.5645 45.8932 38.5645 45.8116C38.5645 45.2943 38.5975 44.778 38.6625 44.2645L39.6107 37.7559L43.7096 36.7853L48.0761 37.7559Z" fill="#FFC682"/>
<path d="M57.4907 37.7559V45.8116C57.4907 45.8932 57.4888 45.9737 57.4849 46.0543C57.3587 48.5147 55.3235 50.4704 52.832 50.4704H52.7349C50.2435 50.4704 48.2082 48.5147 48.082 46.0543C48.0781 45.9737 48.0762 45.8932 48.0762 45.8116V37.7559L52.8805 36.7853L57.4907 37.7559Z" fill="#FD646F"/>
<path d="M66.8077 45.8116C66.8077 45.8932 66.8058 45.9737 66.8019 46.0543C66.7408 47.2452 66.2332 48.3167 65.4431 49.1058C64.6007 49.9492 63.436 50.4704 62.149 50.4704C59.6575 50.4704 57.6222 48.5147 57.4961 46.0543C57.4922 45.9737 57.4902 45.8932 57.4902 45.8116V37.7559L61.8093 36.7853L65.8585 37.7559L66.7194 44.2636C66.7777 44.778 66.8077 45.2943 66.8077 45.8116Z" fill="#FFC682"/>
<path d="M76.8055 45.8116C76.8055 45.8932 76.8036 45.9737 76.7997 46.0543C76.6735 48.5147 74.6382 50.4704 72.1468 50.4704H71.4674C70.1804 50.4704 69.0157 49.9492 68.1732 49.1058C67.3832 48.3167 66.8756 47.2452 66.8144 46.0543C66.8105 45.9737 66.8086 45.8932 66.8086 45.8116C66.8086 45.2943 66.7785 44.778 66.7203 44.2636L65.8594 37.7559L69.3827 36.7853L72.9232 37.7559L76.4745 44.3325C76.5842 44.5635 76.6667 44.8061 76.722 45.0536C76.7774 45.3021 76.8055 45.5554 76.8055 45.8116Z" fill="#FD646F"/>
<path d="M62.1856 56.2437C62.2288 56.0297 62.1736 55.8076 62.0353 55.6388C61.897 55.4699 61.6903 55.3718 61.472 55.3718H45.0642L45.0396 55.256C44.7801 54.0296 43.6819 53.1395 42.4284 53.1395H41.1869C40.7849 53.1395 40.459 53.4653 40.459 53.8675C40.459 54.2696 40.7849 54.5954 41.1869 54.5954H42.4284C42.9981 54.5954 43.4973 54.9999 43.6153 55.5573L45.7783 65.7758C45.9826 66.7411 46.7074 67.4959 47.6177 67.7744C47.5079 68.0346 47.4471 68.3205 47.4471 68.6202C47.4471 69.8243 48.4267 70.804 49.6309 70.804C50.8351 70.804 51.8147 69.8243 51.8147 68.6202C51.8147 68.365 51.7703 68.1201 51.6895 67.8923H54.9487C54.8678 68.1201 54.8235 68.365 54.8235 68.6202C54.8235 69.8243 55.8031 70.804 57.0073 70.804C58.2115 70.804 59.1911 69.8243 59.1911 68.6202C59.1911 68.365 59.1466 68.1201 59.0659 67.8923H59.2396C59.6416 67.8923 59.9675 67.5664 59.9675 67.1643C59.9675 66.7622 59.6416 66.4364 59.2396 66.4364H48.3896C47.8198 66.4364 47.3207 66.0319 47.2026 65.4745L47.0159 64.5923H50.6956C50.6963 64.5923 50.697 64.5924 50.6977 64.5924C50.6982 64.5924 50.6986 64.5923 50.6992 64.5923H55.3567C55.3572 64.5923 55.3577 64.5924 55.3583 64.5924C55.359 64.5924 55.3596 64.5923 55.3603 64.5923H59.9055C60.252 64.5923 60.5506 64.348 60.6191 64.0083L61.384 60.2171C61.4038 60.1591 61.4164 60.0979 61.4209 60.0342L62.1856 56.2437ZM50.3589 68.6201C50.3589 69.0215 50.0324 69.348 49.631 69.348C49.2296 69.348 48.9031 69.0215 48.9031 68.6201C48.9031 68.2187 49.2296 67.8922 49.631 67.8922C50.0324 67.8922 50.3589 68.2188 50.3589 68.6201ZM57.7353 68.6201C57.7353 69.0215 57.4088 69.348 57.0074 69.348C56.6059 69.348 56.2794 69.0215 56.2794 68.6201C56.2794 68.2187 56.6059 67.8922 57.0074 67.8922C57.4088 67.8922 57.7353 68.2188 57.7353 68.6201ZM60.093 59.254H56.6673L56.9706 56.8276H60.5826L60.093 59.254ZM51.3412 63.1363L51.0379 60.7099H55.0181L54.7148 63.1363H51.3412ZM50.8559 59.254L50.5526 56.8276H55.5034L55.2001 59.254H50.8559ZM49.0855 56.8276L49.3888 59.254H45.886L45.3723 56.8276H49.0855ZM46.1941 60.7099H49.5707L49.874 63.1363H46.7077L46.1941 60.7099ZM56.1819 63.1363L56.4852 60.7099H59.7992L59.3097 63.1363H56.1819Z" fill="#50758D"/>
<path d="M28.5762 46.0541H38.5614C38.4353 48.5145 36.4 50.4702 33.9085 50.4702H33.2291C31.9421 50.4702 30.7774 49.949 29.935 49.1056C29.1449 48.3165 28.6373 47.245 28.5762 46.0541Z" fill="#FC4755"/>
<path d="M38.5703 46.0541H48.0703C47.9441 48.5145 45.9088 50.4702 43.4174 50.4702H43.2232C41.9363 50.4702 40.7716 49.949 39.9291 49.1056C39.1391 48.3165 38.6315 47.245 38.5703 46.0541Z" fill="#FFAC5C"/>
<path d="M48.082 46.0541H57.485C57.3588 48.5145 55.3235 50.4702 52.832 50.4702H52.735C50.2435 50.4702 48.2082 48.5145 48.082 46.0541Z" fill="#FC4755"/>
<path d="M57.4961 46.0541H66.802C66.7408 47.245 66.2332 48.3165 65.4432 49.1056C64.6007 49.949 63.436 50.4702 62.149 50.4702C59.6576 50.4702 57.6223 48.5145 57.4961 46.0541Z" fill="#FFAC5C"/>
<path d="M76.7997 46.0541C76.6736 48.5145 74.6383 50.4702 72.1468 50.4702H71.4674C70.1804 50.4702 69.0157 49.949 68.1733 49.1056C67.3832 48.3165 66.8756 47.245 66.8145 46.0541H76.7997Z" fill="#FC4755"/>
<path d="M32.4512 37.7558V32.9029C32.4512 30.7588 34.1894 29.0206 36.3335 29.0206H69.0418C71.1859 29.0206 72.9241 30.7588 72.9241 32.9029V37.7558H32.4512Z" fill="#50758D"/>
<path d="M38.5528 34.781C38.8791 34.3993 39.077 33.9044 39.077 33.3641C39.077 32.16 38.0973 31.1803 36.8931 31.1803C36.2141 31.1803 35.6065 31.4919 35.2057 31.9796C35.0207 32.1952 34.8358 32.4109 34.651 32.6267C34.3247 33.0084 34.127 33.5031 34.127 34.0435C34.127 35.2476 35.1066 36.2274 36.3108 36.2274C36.9899 36.2274 37.5975 35.9157 37.9983 35.428C38.0075 35.4172 38.3774 34.986 38.5528 34.781Z" fill="#2B597F"/>
<path d="M44.3048 34.8052C44.6311 34.4234 44.8289 33.9286 44.8289 33.3883C44.8289 32.1842 43.8493 31.2045 42.6451 31.2045C41.9661 31.2045 41.3585 31.516 40.9576 32.0037C40.7726 32.2194 40.5877 32.4351 40.4029 32.6508C40.0766 33.0326 39.8789 33.5273 39.8789 34.0677C39.8789 35.2718 40.8585 36.2515 42.0627 36.2515C42.7418 36.2515 43.3494 35.9399 43.7503 35.4521C43.7594 35.4414 44.1293 35.0101 44.3048 34.8052Z" fill="#2B597F"/>
<path d="M50.0313 34.8052C50.3577 34.4234 50.5555 33.9286 50.5555 33.3883C50.5555 32.1842 49.5759 31.2045 48.3716 31.2045C47.6926 31.2045 47.085 31.516 46.6842 32.0037C46.4992 32.2194 46.3143 32.4351 46.1295 32.6508C45.8032 33.0326 45.6055 33.5273 45.6055 34.0677C45.6055 35.2718 46.5851 36.2515 47.7893 36.2515C48.4684 36.2515 49.076 35.9399 49.4769 35.4521C49.486 35.4414 49.8559 35.0101 50.0313 34.8052Z" fill="#2B597F"/>
<path d="M36.8909 35.5478C35.6866 35.5478 34.707 34.5681 34.707 33.364C34.707 32.1599 35.6866 31.1802 36.8909 31.1802C38.0951 31.1802 39.0747 32.1599 39.0747 33.364C39.0747 34.5681 38.095 35.5478 36.8909 35.5478Z" fill="#FD646F"/>
<path d="M42.6428 35.572C41.4386 35.572 40.459 34.5923 40.459 33.3882C40.459 32.1841 41.4386 31.2043 42.6428 31.2043C43.847 31.2043 44.8266 32.1841 44.8266 33.3882C44.8266 34.5923 43.8469 35.572 42.6428 35.572Z" fill="#FFC682"/>
<path d="M48.3694 35.572C47.1652 35.572 46.1855 34.5923 46.1855 33.3882C46.1855 32.1841 47.1652 31.2043 48.3694 31.2043C49.5736 31.2043 50.5532 32.1841 50.5532 33.3882C50.5532 34.5923 49.5735 35.572 48.3694 35.572Z" fill="#93DDB7"/>
<path d="M70.2153 34.8052C70.5416 34.4235 70.7394 33.9287 70.7394 33.3884C70.7394 32.1843 69.7598 31.2046 68.5556 31.2046H55.647C54.968 31.2046 54.3604 31.5161 53.9596 32.0039C53.7746 32.2195 53.5897 32.4352 53.4049 32.6509C53.0786 33.0327 52.8809 33.5274 52.8809 34.0678C52.8809 35.2719 53.8605 36.2516 55.0647 36.2516H67.9733C68.6524 36.2516 69.26 35.9399 69.6608 35.4522C69.67 35.4414 70.0398 35.0102 70.2153 34.8052Z" fill="#2B597F"/>
<path d="M68.5534 35.5719H55.6447C54.4405 35.5719 53.4609 34.5922 53.4609 33.3881C53.4609 32.184 54.4405 31.2043 55.6447 31.2043H68.5534C69.7576 31.2043 70.7372 32.184 70.7372 33.3881C70.7372 34.5922 69.7575 35.5719 68.5534 35.5719Z" fill="#F5F5F5"/>
<path d="M42.6428 35.572C41.4386 35.572 40.459 34.5923 40.459 33.3882C40.459 32.1841 41.4386 31.2043 42.6428 31.2043C43.847 31.2043 44.8266 32.1841 44.8266 33.3882C44.8266 34.5923 43.8469 35.572 42.6428 35.572Z" fill="#FFC682"/>
<path d="M48.3694 35.572C47.1652 35.572 46.1855 34.5923 46.1855 33.3882C46.1855 32.1841 47.1652 31.2043 48.3694 31.2043C49.5736 31.2043 50.5532 32.1841 50.5532 33.3882C50.5532 34.5923 49.5735 35.572 48.3694 35.572Z" fill="#93DDB7"/>
<path d="M34.707 33.3642C34.707 34.5684 35.6866 35.5481 36.8909 35.5481C38.0951 35.5481 39.0747 34.5684 39.0747 33.3642C39.0747 32.1601 38.0951 31.1804 36.8909 31.1804C35.6866 31.1804 34.707 32.1601 34.707 33.3642ZM37.6188 33.3642C37.6188 33.7657 37.2923 34.0922 36.8909 34.0922C36.4894 34.0922 36.1629 33.7657 36.1629 33.3642C36.1629 32.9628 36.4894 32.6363 36.8909 32.6363C37.2923 32.6363 37.6188 32.9629 37.6188 33.3642Z" fill="black"/>
<path d="M40.459 33.3884C40.459 34.5925 41.4386 35.5722 42.6428 35.5722C43.847 35.5722 44.8266 34.5925 44.8266 33.3884C44.8266 32.1843 43.847 31.2046 42.6428 31.2046C41.4386 31.2046 40.459 32.1843 40.459 33.3884ZM43.3707 33.3884C43.3707 33.7898 43.0442 34.1164 42.6428 34.1164C42.2414 34.1164 41.9149 33.7898 41.9149 33.3884C41.9149 32.987 42.2414 32.6605 42.6428 32.6605C43.0442 32.6605 43.3707 32.9871 43.3707 33.3884Z" fill="black"/>
<path d="M46.1855 33.3884C46.1855 34.5925 47.1652 35.5722 48.3694 35.5722C49.5736 35.5722 50.5532 34.5925 50.5532 33.3884C50.5532 32.1843 49.5736 31.2046 48.3694 31.2046C47.1652 31.2046 46.1855 32.1843 46.1855 33.3884ZM49.0973 33.3884C49.0973 33.7898 48.7708 34.1164 48.3694 34.1164C47.9679 34.1164 47.6414 33.7898 47.6414 33.3884C47.6414 32.987 47.9679 32.6605 48.3694 32.6605C48.7708 32.6605 49.0973 32.9871 49.0973 33.3884Z" fill="black"/>
<path d="M53.4668 33.3884C53.4668 34.5925 54.4464 35.5722 55.6506 35.5722H68.5592C69.7634 35.5722 70.743 34.5925 70.743 33.3884C70.743 32.1843 69.7634 31.2046 68.5592 31.2046H55.6506C54.4464 31.2046 53.4668 32.1843 53.4668 33.3884ZM69.2872 33.3884C69.2872 33.7898 68.9607 34.1163 68.5592 34.1163H55.6506C55.2492 34.1163 54.9227 33.7898 54.9227 33.3884C54.9227 32.987 55.2492 32.6605 55.6506 32.6605H68.5592C68.9606 32.6605 69.2872 32.9871 69.2872 33.3884Z" fill="black"/>
<path d="M77.536 45.8117C77.536 45.1972 77.3977 44.5787 77.1361 44.0228C77.1304 44.0106 77.1243 43.9986 77.1179 43.9868L73.6537 37.5719V32.9031C73.6537 30.361 71.5855 28.2928 69.0434 28.2928H64.045C63.643 28.2928 63.317 28.6187 63.317 29.0208C63.317 29.4229 63.643 29.7487 64.045 29.7487H69.0434C70.7827 29.7487 72.1978 31.1637 72.1978 32.9031V37.028H33.1807V32.9031C33.1807 31.1637 34.5958 29.7487 36.3351 29.7487H60.648C61.05 29.7487 61.3759 29.4229 61.3759 29.0208C61.3759 28.6187 61.05 28.2928 60.648 28.2928H36.3351C33.793 28.2928 31.7248 30.361 31.7248 32.9031V37.572L30.1847 40.424C29.9937 40.7777 30.1256 41.2192 30.4793 41.4104C30.5893 41.4697 30.7078 41.4978 30.8245 41.4978C31.0834 41.4978 31.3341 41.3594 31.4657 41.1156L32.8869 38.4839H38.7719L37.9447 44.1599C37.944 44.1644 37.9434 44.1689 37.9428 44.1734C37.8741 44.7147 37.8394 45.2659 37.8394 45.8117C37.8394 47.9792 36.076 49.7425 33.9085 49.7425C31.5236 50.013 29.2798 48.2826 29.2983 45.8117C29.2756 45.218 29.5472 44.6124 29.847 44.1128C30.038 43.759 29.9061 43.3175 29.5524 43.1264C29.1987 42.9357 28.7571 43.0674 28.566 43.4211C28.134 44.1343 27.8257 44.9697 27.8425 45.8117C27.8425 48.2598 29.4846 50.3302 31.7247 50.983V69.5908C31.7247 72.1328 33.7929 74.201 36.335 74.201H69.0433C71.5854 74.201 73.6536 72.1328 73.6536 69.5908V66.5335C73.6536 66.1314 73.3277 65.8056 72.9256 65.8056C72.5236 65.8056 72.1977 66.1314 72.1977 66.5335V69.5908C72.1977 71.3302 70.7826 72.7452 69.0433 72.7452H36.335C34.5957 72.7452 33.1806 71.3302 33.1806 69.5908V51.1972C33.1968 51.1973 33.9085 51.1985 33.9085 51.1985C35.8963 51.1985 37.6347 50.1154 38.5682 48.5092C39.1878 49.5777 40.1678 50.4298 41.3742 50.8715C41.7419 51.009 42.1703 50.8195 42.3081 50.4382C42.4463 50.0606 42.2523 49.6426 41.8748 49.5044C40.3319 48.9395 39.2952 47.4556 39.2952 45.8117C39.295 45.327 39.3282 44.8418 39.3867 44.3607L40.2431 38.4839H47.351V45.8117C47.351 47.4556 46.3143 48.9395 44.7714 49.5044C44.3939 49.6426 44.1999 50.0606 44.3381 50.4382C44.4759 50.8194 44.9044 51.009 45.272 50.8715C46.4785 50.4298 47.4584 49.5776 48.0781 48.5092C49.0115 50.1154 50.75 51.1985 52.7377 51.1985H52.8347C54.8219 51.1985 56.5598 50.1161 57.4935 48.5108C58.4272 50.1161 60.1651 51.1985 62.1523 51.1985C64.1394 51.1985 65.8773 50.1161 66.811 48.5108C67.7447 50.1161 69.4826 51.1985 71.4698 51.1985C71.4698 51.1985 72.1815 51.1974 72.1977 51.1972V63.1366C72.1977 63.5387 72.5236 63.8645 72.9256 63.8645C73.3277 63.8645 73.6536 63.5387 73.6536 63.1366V50.9831C75.8938 50.3303 77.536 48.2598 77.536 45.8117ZM52.8348 49.7425H52.7378C50.5703 49.7425 48.807 47.9792 48.807 45.8117V38.4839H56.7657V45.8117C56.7657 47.9792 55.0022 49.7425 52.8348 49.7425ZM62.1524 49.7425C59.9849 49.7425 58.2215 47.9792 58.2215 45.8117V38.4839H65.2239L65.9997 44.3515C66.0532 44.8361 66.0834 45.3242 66.0833 45.8117C66.0832 47.9792 64.3197 49.7425 62.1524 49.7425ZM72.9339 49.6637C72.5013 49.7468 71.9173 49.7521 71.4699 49.7425C69.3024 49.7425 67.539 47.9792 67.539 45.8117C67.539 45.2686 67.5076 44.7199 67.4455 44.1807C67.445 44.1766 67.4445 44.1725 67.4439 44.1684L66.6923 38.4839H72.4915L75.8267 44.6598C75.9925 45.0187 76.08 45.4165 76.08 45.8117C76.0801 47.7106 74.7267 49.2992 72.9339 49.6637Z" fill="black"/>
<path d="M50.6977 64.5923C50.6982 64.5923 50.6986 64.5922 50.6992 64.5922H55.3567C55.3572 64.5922 55.3577 64.5923 55.3583 64.5923C55.359 64.5923 55.3596 64.5922 55.3603 64.5922H59.9055C60.252 64.5922 60.5506 64.3479 60.6191 64.0082L62.1856 56.2436C62.2846 55.8083 61.9182 55.3608 61.472 55.3717H45.0642C44.8479 54.0958 43.7252 53.1364 42.4284 53.1394H41.1869C40.7849 53.1394 40.459 53.4652 40.459 53.8673C40.459 54.2695 40.7849 54.5953 41.1869 54.5953H42.4284C42.9981 54.5953 43.4973 54.9998 43.6153 55.5572L45.7783 65.7757C45.9826 66.7409 46.7074 67.4958 47.6177 67.7743C47.5079 68.0345 47.4471 68.3204 47.4471 68.6201C47.4471 69.8242 48.4267 70.8039 49.6309 70.8039C50.8351 70.8039 51.8147 69.8242 51.8147 68.6201C51.8147 68.3649 51.7703 68.1199 51.6895 67.8921H54.9487C54.8678 68.1199 54.8235 68.3649 54.8235 68.6201C54.8235 69.8242 55.8031 70.8039 57.0073 70.8039C58.2115 70.8039 59.1911 69.8242 59.1911 68.6201C59.1911 68.3649 59.1466 68.1199 59.0659 67.8921H59.2396C59.6416 67.8921 59.9675 67.5663 59.9675 67.1642C59.9675 66.7621 59.6416 66.4363 59.2396 66.4363H48.3896C47.8198 66.4363 47.3207 66.0318 47.2026 65.4743L47.0159 64.5922H50.6956C50.6963 64.5922 50.697 64.5923 50.6977 64.5923ZM50.3589 68.6201C50.3589 69.0215 50.0324 69.348 49.631 69.348C49.2296 69.348 48.9031 69.0215 48.9031 68.6201C48.9031 68.2186 49.2296 67.8921 49.631 67.8921C50.0324 67.8921 50.3589 68.2187 50.3589 68.6201ZM57.7353 68.6201C57.7353 69.0215 57.4088 69.348 57.0074 69.348C56.6059 69.348 56.2794 69.0215 56.2794 68.6201C56.2794 68.2186 56.6059 67.8921 57.0074 67.8921C57.4088 67.8921 57.7353 68.2187 57.7353 68.6201ZM55.0181 60.7099L54.7148 63.1363H51.3412L51.0379 60.7099H55.0181ZM50.8559 59.254L50.5526 56.8276H55.5034L55.2001 59.254H50.8559ZM56.1819 63.1363L56.4852 60.7099H59.7992L59.3097 63.1363H56.1819ZM60.093 59.254H56.6673L56.9706 56.8276H60.5826L60.093 59.254ZM49.0855 56.8276L49.3888 59.254H45.886L45.3723 56.8276H49.0855ZM46.1941 60.7099H49.5707L49.874 63.1363H46.7077L46.1941 60.7099Z" fill="black"/>
</g>
<defs>
<clipPath id="clip0_1324_575">
<rect width="49.6941" height="49.6941" fill="white" transform="translate(27.8398 26.3998)"/>
</clipPath>
</defs>
</svg>
