<svg width="110" height="109" viewBox="0 0 110 109" fill="none" xmlns="http://www.w3.org/2000/svg">
<circle cx="58.1393" cy="57.4766" r="51.2292" fill="#82BC29"/>
<circle cx="51.8893" cy="51.2292" r="50.841" fill="#F3FFE0" stroke="#82BC29" stroke-width="0.77647"/>
<g clip-path="url(#clip0_1324_649)">
<path d="M59.1914 66.744L59.2453 70.2704C59.2453 70.6479 59.6551 70.9498 60.1512 70.9498L74.1708 70.842C74.6669 70.842 75.0659 70.5293 75.0659 70.1518L75.012 66.6253C75.012 66.2479 74.6022 65.9459 74.1061 65.9459L60.0865 66.0538C59.5904 66.0538 59.1914 66.3665 59.1914 66.744Z" fill="#D1D0DF"/>
<path d="M72.4141 65.9675H75.0562V70.346H72.4141V65.9675Z" fill="#B5B5C6"/>
<path d="M76.5746 79.0813H60.4844C65.9089 79.0813 70.6648 76.1157 73.2854 70.8098L76.4452 70.7882L76.5746 79.0813Z" fill="#F9A01E"/>
<path d="M73.2858 70.8096C70.6652 76.1047 65.9093 79.0811 60.4848 79.0811H57.9936L57.875 70.939L73.2858 70.8096Z" fill="#FFBB26"/>
<path d="M77.3863 53.1773L76.8579 53.393L74.9598 47.4724L74.9383 47.4185C74.6147 46.8038 73.9892 46.4156 73.2991 46.394C72.35 46.3724 71.4549 46.8469 70.9265 47.6342L70.9157 47.6558C70.3765 48.6048 70.1716 49.7048 70.3334 50.7832C70.4951 51.8185 70.9373 54.5254 71.1206 55.6146C70.8726 55.7548 70.6245 55.9165 70.3981 56.0891L59.2795 60.7371L57.9961 61.2764L57.2628 61.5891L56.9285 61.7293L53.9628 54.6548C54.0491 54.6656 54.1353 54.6656 54.2324 54.6764C55.2893 54.7626 56.5295 54.6979 57.4461 54.2126C57.5863 54.1371 57.7157 54.0616 57.8451 53.9754C58.3412 53.6411 58.7726 53.2205 59.1177 52.7244C59.1716 52.6489 59.2147 52.5842 59.2579 52.5087C59.2902 52.4548 59.3226 52.3901 59.3549 52.3362C59.5598 51.9695 59.7108 51.5813 59.8079 51.193C59.8187 51.1499 59.8295 51.1067 59.8402 51.0528C59.8402 51.0528 59.8402 51.042 59.8402 51.0313C60.2608 49.0469 59.3657 46.9332 57.5 45.9087C55.2138 44.6469 52.3344 45.4773 51.0834 47.7636C50.8569 47.2244 50.5981 46.5989 50.3177 45.9303V45.9195C49.4765 43.892 48.4844 41.5195 47.9883 40.344L56.2922 36.8715C56.6481 36.7205 56.8638 36.3754 56.8422 35.9871C56.8206 35.6097 56.5726 35.2862 56.2059 35.1783C55.3432 34.9087 54.6098 34.3156 54.1893 33.5175C53.2942 31.846 53.9197 29.7646 55.5912 28.8695C57.2628 27.9744 59.3442 28.5999 60.2393 30.2715C60.7461 31.2205 60.5736 32.8489 60.4765 33.5068C60.4549 33.6793 60.4765 33.8626 60.5412 34.0244C60.7461 34.5205 61.3285 34.7685 61.8245 34.5528L69.7079 31.2528L78.1196 51.3764C78.4108 52.0773 78.0873 52.8862 77.3863 53.1773Z" fill="#FFBB26"/>
<path d="M53.584 55.4206L56.582 62.5813L77.633 53.7813C78.6683 53.35 79.1536 52.1637 78.7222 51.1284L78.3879 50.3196C77.482 50.7617 76.5546 51.1823 75.6163 51.5813C68.6497 54.5039 61.1222 55.8088 53.584 55.4206Z" fill="#F9A01E"/>
<path d="M77.2651 56.8118L75.4318 63.6922L75.421 63.6814L75.3994 63.7677C75.3347 64.0373 75.2161 64.2853 75.0651 64.5118C75.0651 64.5118 74.5367 65.3853 74.0298 66.1402L60.5494 66.151C59.374 65.0833 58.6945 63.5735 58.6622 61.9882L58.6406 61.0069L59.2769 60.7373L70.3955 56.0892C70.622 55.9167 70.8592 55.7549 71.1181 55.6147C70.9347 54.5255 70.4926 51.8294 70.3308 50.7834C70.3308 50.7726 70.3308 50.7618 70.3308 50.7618C70.471 50.751 70.6004 50.7402 70.7406 50.7294C70.7406 50.3843 70.773 50.0392 70.87 49.7049C70.9024 49.5755 70.9455 49.4461 70.9994 49.3167C71.0857 48.853 71.2475 48.4108 71.474 47.9902C72.1102 46.9981 73.7818 46.5883 74.3749 47.7206L77.2651 56.8118Z" fill="#EFCDB1"/>
<path d="M44.8472 36.9254L44.7932 33.3989C44.7932 33.0214 44.3834 32.7195 43.8874 32.7195L29.8678 32.8273C29.3717 32.8273 28.9727 33.1401 28.9727 33.5175L29.0266 37.044C29.0266 37.4214 29.4364 37.7234 29.9325 37.7234L43.9521 37.6156C44.4481 37.6156 44.8472 37.3136 44.8472 36.9254Z" fill="#D1D0DF"/>
<path d="M28.9727 33.3234H31.6148V37.7018H28.9727V33.3234Z" fill="#B5B5C6"/>
<path d="M27.4648 23.3049H43.555C38.1305 23.3049 33.3746 27.5647 30.7541 32.8706L27.5835 32.8922L27.4648 23.3049Z" fill="#05BECC"/>
<path d="M30.752 32.8598C33.3725 27.5647 38.1284 23.3049 43.5529 23.3049H46.0441L46.1627 32.7412L30.752 32.8598Z" fill="#01C6E1"/>
<path d="M57.293 53.3717C56.2362 53.9648 54.5538 53.8785 53.6695 53.7707C53.4862 53.7491 53.3244 53.8785 53.3028 54.0618C53.2921 54.1266 53.3028 54.1805 53.3244 54.2344L56.5166 61.3736C56.8401 62.0962 56.5166 62.9481 55.794 63.2824C53.7126 64.2099 49.9381 65.903 48.3313 66.6256C48.2019 66.6795 48.0509 66.6256 47.997 66.4962C47.9646 66.4315 47.9646 66.3452 47.997 66.2805C48.9891 64.2638 48.1587 61.8158 46.1421 60.8236C44.1254 59.8315 41.6774 60.6618 40.6852 62.6785C40.2107 63.6491 40.1352 64.7599 40.4803 65.7844C40.8685 66.9383 42.1842 67.9844 42.9176 68.4913C43.0685 68.5991 43.1117 68.804 43.0038 68.955C42.9715 69.0089 42.9176 69.0413 42.8636 69.0736L34.4627 72.8373L32.2734 67.9413C39.3803 62.7217 44.1146 53.3824 44.1146 42.7275C44.1146 42.253 44.1038 41.7785 44.0823 41.304L45.8617 40.506C46.4764 40.2364 47.1881 40.506 47.4685 41.1207C48.3852 43.1589 50.143 47.106 50.8872 48.7668C50.9411 48.8962 51.0921 48.9501 51.2215 48.8962C51.2862 48.8638 51.3401 48.8099 51.3617 48.7344C51.9656 46.5668 54.2195 45.2942 56.3872 45.9089C58.5548 46.5236 59.8273 48.7668 59.2126 50.9344C58.9107 51.9589 58.2313 52.8324 57.293 53.3717Z" fill="#C11F2F"/>
<path d="M44.5355 40.3765L35.8865 44.2481L34.7972 43.7412C34.5923 44.1834 34.3659 44.6147 34.1394 45.0245C34.107 45.0892 34.0639 45.1432 34.0316 45.2079C33.8374 45.5422 33.611 45.8334 33.3737 46.0706C32.6943 46.7608 31.9718 47.0736 31.961 47.0736L31.4865 47.2677L31.5404 47.602L31.5727 47.7745C31.5835 47.8177 32.2306 51.7539 32.4355 53.0589C32.5541 53.8353 32.4139 54.6226 32.0257 55.3128C31.7453 55.7118 31.2923 55.9598 30.807 55.9598C30.5914 55.9706 30.3865 55.852 30.2786 55.6687L28.1757 49.101L27.9816 48.4755L27.7874 47.85L27.4531 46.8147L29.2325 40.1285C29.2865 39.9343 29.4051 39.6647 29.5129 39.4922L29.5237 39.4706C29.5237 39.4598 29.8472 38.9422 30.2247 38.3491L43.3384 38.2412C43.8992 38.8775 44.309 39.6 44.5355 40.3765Z" fill="#EFCDB1"/>
<path d="M58.5786 50.7725C58.3414 51.6028 57.7806 52.347 56.9826 52.7999C56.0443 53.3283 54.4159 53.1989 53.7581 53.1234C53.5747 53.1019 53.4022 53.1234 53.2404 53.1989C53.0679 53.2744 52.9384 53.393 52.8414 53.5332C52.6257 53.7166 52.4963 53.997 52.4963 54.2774C52.4963 54.4068 52.5179 54.5362 52.5718 54.6548L55.8286 62.4519C55.7532 62.5489 55.6561 62.6244 55.5375 62.6783C53.7688 63.4764 50.7708 64.8136 48.9267 65.644C49.1532 64.7597 49.1208 63.8323 48.8296 62.9695C47.9992 60.4999 45.3139 59.1626 42.8443 60.0038C40.3747 60.8342 39.0375 63.5195 39.8786 65.9891C40.2453 67.0675 41.2159 68.0166 42.111 68.696L34.7992 71.9636L25.7404 51.7215C25.4277 51.0205 25.7404 50.2117 26.4414 49.8989L27.013 49.6401L29.1051 56.1862L29.1375 56.2401C29.461 56.8548 30.0865 57.243 30.7767 57.2646H30.8845C31.8012 57.2538 32.6532 56.7793 33.16 56.0136L33.1708 55.9921C33.71 55.043 33.9149 53.943 33.7532 52.8646C33.5914 51.8185 33.1492 49.1225 32.9659 48.0332C33.8287 47.5479 34.5512 46.8577 35.0904 46.0274L44.7747 41.6921L46.0365 41.1313L46.1551 41.0774C46.2306 41.045 46.3061 41.0234 46.3924 41.0234C46.6188 41.0234 46.8237 41.1528 46.91 41.3578C47.4816 42.6303 48.3767 44.647 49.1532 46.3725V46.3832C49.6061 47.4617 50.0159 48.4538 50.2855 49.0901C50.3934 49.3381 50.5983 49.5215 50.8571 49.6077C51.3316 49.7587 51.8384 49.4891 51.9894 49.0146C52.259 48.1519 52.8522 47.4185 53.6502 46.9979C55.3218 46.1028 57.4032 46.7283 58.2983 48.3999C58.6541 49.1764 58.7404 50.0068 58.5786 50.7725Z" fill="#D22732"/>
<path d="M79.3155 50.8803L70.3968 29.5598L61.8125 33.1509C61.9096 32.1372 61.9204 30.7029 61.3704 29.6676C60.939 28.8588 60.2812 28.2009 59.4831 27.7588C57.1968 26.497 54.3282 27.3274 53.0665 29.6137C51.8047 31.8999 52.6351 34.7686 54.9214 36.0303L46.2831 39.6431L46.3263 39.7509C46.1214 39.7509 45.9165 39.7833 45.7223 39.8588C45.5174 39.2117 45.2047 38.597 44.8057 38.047C44.9135 37.9823 45.0214 37.896 45.1184 37.8097C45.3557 37.5725 45.4851 37.2597 45.4851 36.9254L45.4419 33.399L46.1753 33.3882C46.5312 33.3882 46.8223 33.0862 46.8116 32.7303L46.6929 23.2941L45.3988 23.3156L45.5067 32.1048L44.2341 32.1156C44.1155 32.0941 43.9968 32.0833 43.8782 32.0833L29.8586 32.1911C29.7292 32.1911 29.6106 32.2019 29.492 32.2343L28.2194 32.245L28.1116 23.2941L26.8174 23.3156L26.9361 32.9029C26.9361 33.2588 27.2272 33.5392 27.5831 33.5392H28.3272L28.3812 37.0656C28.3812 37.4646 28.5861 37.8097 28.8988 38.047C28.6508 38.446 28.4567 38.748 28.4243 38.8127C28.241 39.0931 28.0576 39.4921 27.9714 39.8156L26.0949 46.8793L26.5802 48.4107L25.8792 48.7235C24.5312 49.3274 23.9272 50.9127 24.5312 52.2607L34.1184 73.6784L43.1017 69.6558C43.2635 69.5803 43.4037 69.4725 43.5008 69.3215C43.8135 68.8793 43.7057 68.2646 43.2635 67.9519C42.1096 67.1431 41.3116 66.2695 41.0743 65.5578C40.7831 64.695 40.8478 63.7676 41.2468 62.948C42.0772 61.244 44.137 60.5431 45.841 61.3735C47.5449 62.2038 48.2459 64.2637 47.4155 65.9676C47.2968 66.2156 47.2861 66.496 47.3939 66.744C47.5988 67.197 48.1272 67.4019 48.5802 67.197C50.187 66.4744 53.9615 64.7813 56.0429 63.8539C56.4096 63.6921 56.7008 63.4333 56.9165 63.1205L58.0596 62.6568C58.189 63.7352 58.5988 64.7597 59.2243 65.6333C59.1164 65.698 59.0086 65.7735 58.9115 65.8705C58.6743 66.097 58.5449 66.4205 58.5449 66.744L58.5988 70.2705H57.8655C57.5096 70.2813 57.2184 70.5725 57.2292 70.9284L57.3478 79.0705L58.6419 79.0489L58.5341 71.5538L59.8066 71.5431C59.9145 71.5646 60.0331 71.5754 60.1625 71.5754H60.1733L74.1929 71.4676C74.3223 71.4676 74.441 71.4568 74.5596 71.4244L75.8321 71.4137L75.94 79.0705L77.2341 79.0489L77.1155 70.7558C77.1155 70.3999 76.8243 70.1195 76.4684 70.1195L75.7243 70.1303V70.1195L75.6704 66.5931C75.6704 66.194 75.4655 65.8489 75.1527 65.6117C75.4008 65.2127 75.5949 64.9107 75.6272 64.846C75.8106 64.5548 75.9939 64.1666 76.0802 63.8431L77.9566 56.7901L77.2664 54.6333L77.8919 54.3744C79.24 53.8029 79.887 52.2392 79.3155 50.8803ZM31.541 47.6127L31.5733 47.7852C31.5841 47.8284 32.2312 51.7646 32.4361 53.0695C32.5547 53.846 32.4145 54.6333 32.0263 55.3235C31.7459 55.7225 31.2929 55.9705 30.8076 55.9705C30.592 55.9813 30.387 55.8627 30.2792 55.6793L28.1763 49.1117L27.9821 48.4862L27.788 47.8607L27.4537 46.8254L29.2331 40.1392C29.287 39.945 29.4057 39.6754 29.5135 39.5029L29.5243 39.4813C29.5243 39.4705 29.8478 38.9529 30.2253 38.3597L43.339 38.2519C43.8998 38.8558 44.3096 39.5784 44.5361 40.3548L35.887 44.2264L34.7978 43.7195C34.5929 44.1617 34.3665 44.5931 34.14 45.0029C34.1076 45.0676 34.0645 45.1215 34.0321 45.1862C33.838 45.5205 33.6116 45.8117 33.3743 46.049C32.6949 46.7392 31.9723 47.0519 31.9616 47.0519L31.487 47.246L31.541 47.6127ZM29.6861 33.5176L44.0723 33.399C44.0939 33.4097 44.1263 33.4205 44.1478 33.4421L44.191 36.8931C44.1155 36.947 44.0292 36.9686 43.9429 36.9686H43.9106L29.9233 37.0764C29.8263 37.0872 29.74 37.0548 29.6645 37.0009V36.8715L29.6214 33.5499C29.6429 33.5392 29.6645 33.5284 29.6861 33.5176ZM55.5253 62.6784C53.7566 63.4764 50.7586 64.8137 48.9145 65.644C49.141 64.7597 49.1086 63.8323 48.8174 62.9695C47.987 60.4999 45.3017 59.1627 42.8321 60.0038C40.3625 60.8342 39.0253 63.5195 39.8665 65.9891C40.2331 67.0676 41.2037 68.0166 42.0988 68.696L34.787 71.9636L25.7282 51.7215C25.4155 51.0205 25.7282 50.2117 26.4292 49.899L27.0008 49.6401L29.0929 56.1862L29.1253 56.2401C29.4488 56.8548 30.0743 57.2431 30.7645 57.2646H30.8723C31.789 57.2539 32.641 56.7793 33.1478 56.0137L33.1586 55.9921C33.6978 55.0539 33.9027 53.9539 33.741 52.8862C33.741 52.8754 33.741 52.8754 33.741 52.8646C33.5792 51.8186 33.137 49.1225 32.9537 48.0333C33.8165 47.548 34.539 46.8578 35.0782 46.0274L44.7625 41.6921L45.3988 41.4117L46.0243 41.1313L46.1429 41.0774C46.2184 41.045 46.2939 41.0235 46.3802 41.0235C46.6066 41.0235 46.8116 41.1529 46.8978 41.3578C47.4694 42.6303 48.3645 44.647 49.141 46.3725V46.3833C49.5939 47.4617 50.0037 48.4539 50.2733 49.0901C50.3812 49.3382 50.5861 49.5215 50.8449 49.6078C51.3194 49.7588 51.8263 49.4892 51.9772 49.0146C52.2468 48.1519 52.84 47.4186 53.638 46.998C55.3096 46.1029 57.391 46.7284 58.2861 48.3999C58.6851 49.1548 58.7821 49.9852 58.6096 50.7617C58.3723 51.5921 57.8115 52.3362 57.0135 52.7892C56.0753 53.3176 54.4468 53.1882 53.789 53.1127C53.6057 53.0911 53.4331 53.1127 53.2714 53.1882C53.0988 53.2637 52.9694 53.3823 52.8723 53.5225C52.6566 53.7058 52.5272 53.9862 52.5272 54.2666C52.5272 54.396 52.5488 54.5254 52.6027 54.6441L55.8596 62.4411C55.7517 62.5489 55.6439 62.6244 55.5253 62.6784ZM74.3547 70.1519L59.9684 70.2705C59.9468 70.2597 59.9253 70.2489 59.9037 70.2274L59.8498 66.7764C59.9253 66.7225 60.0115 66.7009 60.0978 66.7009H60.1302L74.1174 66.5931C74.2037 66.5931 74.3008 66.6146 74.3762 66.6686V66.798L74.4194 70.1195C74.3978 70.1303 74.3762 70.1411 74.3547 70.1519ZM74.8076 63.5195C74.7537 63.7137 74.6351 63.9833 74.5272 64.1558L74.5164 64.1774C74.5164 64.1882 74.1929 64.7166 73.8155 65.2989L60.7125 65.4068C59.8713 64.5225 59.3861 63.3686 59.3214 62.1499L68.6498 58.246C68.4557 58.6127 68.2615 59.0009 68.0782 59.3891L69.2537 59.9391C69.491 59.4323 69.7498 58.9362 70.0194 58.4617C70.3213 57.9333 70.7204 57.5235 71.087 57.2323C71.6155 56.8009 72.09 56.596 72.09 56.596L72.5645 56.4019L72.489 55.9382L72.4782 55.8842C72.4782 55.8735 72.4351 55.647 72.3811 55.2803C72.187 54.1156 71.7772 51.5921 71.6155 50.5999C71.4968 49.8235 71.637 49.0254 72.0253 48.346C72.3057 47.947 72.7586 47.699 73.2439 47.699C73.4596 47.6882 73.6645 47.8068 73.7723 47.9901L75.6704 53.9107L75.8645 54.5254L76.0586 55.1401L76.5978 56.8333L74.8076 63.5195ZM77.3851 53.1774L76.8566 53.3931L74.9586 47.4725L74.937 47.4186C74.6135 46.8039 73.988 46.4156 73.2978 46.3941C72.3488 46.3725 71.4537 46.847 70.9253 47.6343L70.9145 47.6558C70.3753 48.5941 70.1704 49.6833 70.3321 50.7617V50.7833C70.4939 51.8186 70.9361 54.5254 71.1194 55.6146C70.8713 55.7548 70.6233 55.9166 70.3968 56.0891L59.2782 60.7372L58.6419 61.0068L57.9949 61.2764L57.2615 61.5891L56.9272 61.7293L53.9615 54.6548C54.0478 54.6656 54.1341 54.6656 54.2312 54.6764C55.288 54.7627 56.5282 54.698 57.4449 54.2127C57.5851 54.1372 57.7145 54.0617 57.8439 53.9754C58.0704 53.8244 58.2861 53.6519 58.4802 53.4578C58.7174 53.2313 58.9223 52.9833 59.1164 52.7137C59.1704 52.6382 59.2135 52.5735 59.2566 52.498C59.289 52.444 59.3214 52.3793 59.3537 52.3254C59.44 52.1637 59.5155 52.0019 59.591 51.8401C59.6772 51.6244 59.7527 51.4088 59.8066 51.1823C59.8174 51.1392 59.8282 51.096 59.839 51.0421C59.839 51.0421 59.839 51.0313 59.839 51.0205C60.2596 49.0362 59.3645 46.9225 57.4988 45.898C55.2125 44.6362 52.3331 45.4666 51.0821 47.7529C50.8557 47.2137 50.5968 46.5882 50.3165 45.9195V45.9088C49.4753 43.8813 48.4831 41.5088 47.987 40.3333L56.291 36.8607C56.6468 36.7097 56.8625 36.3646 56.841 35.9764C56.8194 35.599 56.5714 35.2754 56.2047 35.1676C55.3419 34.898 54.6086 34.3048 54.188 33.5068C53.2929 31.8352 53.9184 29.7539 55.59 28.8588C57.2615 27.9637 59.3429 28.5892 60.238 30.2607C60.7449 31.2097 60.5723 32.8382 60.4753 33.496C60.4537 33.6686 60.4753 33.8519 60.54 34.0137C60.7449 34.5097 61.3272 34.7578 61.8233 34.5421L69.7066 31.2529L78.1184 51.3764C78.4096 52.0774 78.0861 52.8862 77.3851 53.1774Z" fill="black"/>
<path d="M37.6094 74.5981L38.7598 74.0054L40.2515 76.9008L39.101 77.4935L37.6094 74.5981Z" fill="black"/>
<path d="M28.3125 76.8929L29.8041 73.9976L30.9546 74.5903L29.463 77.4856L28.3125 76.8929Z" fill="black"/>
<path d="M33.6172 79.1575L33.6986 75.9006L34.9927 75.933L34.9113 79.1898L33.6172 79.1575Z" fill="black"/>
<path d="M65.0137 25.7388L66.1641 25.1461L67.6558 28.0414L66.5053 28.6341L65.0137 25.7388Z" fill="black"/>
<path d="M74.3086 28.0321L75.8002 25.1368L76.9507 25.7295L75.4591 28.6248L74.3086 28.0321Z" fill="black"/>
<path d="M70.2852 26.6772L70.3666 23.4204L71.6607 23.4527L71.5793 26.7096L70.2852 26.6772Z" fill="black"/>
</g>
<defs>
<clipPath id="clip0_1324_649">
<rect width="55.9059" height="55.9059" fill="white" transform="translate(23.957 23.2942)"/>
</clipPath>
</defs>
</svg>
