<svg width="109" height="109" viewBox="0 0 109 109" fill="none" xmlns="http://www.w3.org/2000/svg">
<ellipse cx="57.4789" cy="57.4788" rx="51.2308" ry="51.2311" fill="#82BC29"/>
<path d="M101.962 51.2311C101.962 79.2492 79.2487 101.962 51.2308 101.962C23.213 101.962 0.5 79.2492 0.5 51.2311C0.5 23.2131 23.213 0.5 51.2308 0.5C79.2487 0.5 101.962 23.2131 101.962 51.2311Z" fill="#F3FFE0" stroke="#82BC29"/>
<g clip-path="url(#clip0_1324_617)">
<path d="M83.0878 57.0259L79.6348 54.5572L79.5883 44.829C79.5841 43.9404 78.9422 43.324 78.0212 43.324H67.3268L60.7598 67.8327H79.1412C80.2691 67.8327 81.4286 66.9183 81.7308 65.7904L83.61 58.7771C83.8023 58.0598 83.6041 57.395 83.0878 57.0259Z" fill="#FFA95F"/>
<path d="M67.4342 64.7694C67.2873 64.7694 67.0892 64.7392 66.9791 64.5956C66.8802 64.4667 66.8606 64.2542 66.9254 64.0124L68.0907 59.6633H62.9487L60.7598 67.8329H79.1412C80.2692 67.8329 81.4285 66.9185 81.7308 65.7905L82.0045 64.7694H67.4342Z" fill="#FF8B5A"/>
<path d="M83.0889 57.0259L79.636 54.5572L79.5895 44.829C79.5853 43.9404 78.9433 43.324 78.0223 43.324H72.4699L68.0918 59.6631H83.3738L83.6112 58.7771C83.8035 58.0598 83.6052 57.395 83.0889 57.0259Z" fill="#FFC269"/>
<path d="M40.3005 41.2817H68.8939C69.4579 41.2817 69.7926 41.739 69.6415 42.3029L62.8008 67.8329H33.1862C32.6222 67.8329 32.2875 67.3756 32.4386 66.8117L39.0057 42.3029C39.1568 41.739 39.7365 41.2817 40.3005 41.2817Z" fill="#E5646E"/>
<path d="M62.8009 67.8329L63.6218 64.7693H63.3482H37.3901C36.7321 64.7693 36.2531 64.1452 36.4235 63.5095L37.2249 60.5178C37.3763 59.9525 37.9736 59.6559 38.5298 59.8382C40.5964 60.5155 42.7799 60.7912 44.9947 60.6473C53.0102 60.1265 59.412 53.868 60.9393 45.9822C61.2573 44.3405 61.2945 43.0924 61.0782 41.2816H40.3005C39.7365 41.2816 39.1568 41.7388 39.0057 42.3028L32.4386 66.8116C32.2875 67.3755 32.6221 67.8327 33.1862 67.8327H62.8009V67.8329Z" fill="#DB4655"/>
<path d="M76.437 70.5165C78.3785 68.8173 78.8979 66.2349 77.5971 64.7486C76.2963 63.2622 73.6679 63.4348 71.7264 65.1339C69.7849 66.8331 69.2654 69.4155 70.5662 70.9018C71.867 72.3882 74.4954 72.2156 76.437 70.5165Z" fill="#5D5360"/>
<path d="M44.767 70.5328C46.7086 68.8337 47.228 66.2513 45.9272 64.7649C44.6264 63.2786 41.998 63.4511 40.0565 65.1503C38.1149 66.8495 37.5955 69.4318 38.8963 70.9182C40.1971 72.4045 42.8255 72.232 44.767 70.5328Z" fill="#5D5360"/>
<path d="M72.4857 54.5573H79.6341L79.6 47.4088H74.4012C73.2732 47.4088 72.1138 48.3233 71.8115 49.4512L70.9906 52.5148C70.6883 53.6429 71.3576 54.5573 72.4857 54.5573Z" fill="#DBEAFF"/>
<path d="M43.8534 57.621C51.7492 57.621 58.1501 51.2201 58.1501 43.3241C58.1501 35.4282 51.7492 29.0273 43.8534 29.0273C35.9575 29.0273 29.5566 35.4282 29.5566 43.3241C29.5566 51.2201 35.9575 57.621 43.8534 57.621Z" fill="#ECEAEC"/>
<path d="M43.8542 54.5572C50.058 54.5572 55.0872 49.528 55.0872 43.3241C55.0872 37.1202 50.058 32.0909 43.8542 32.0909C37.6503 32.0909 32.6211 37.1202 32.6211 43.3241C32.6211 49.528 37.6503 54.5572 43.8542 54.5572Z" fill="white"/>
<path d="M43.8568 45.3665C44.9848 45.3665 45.8992 44.4521 45.8992 43.3241C45.8992 42.1961 44.9848 41.2817 43.8568 41.2817C42.7289 41.2817 41.8145 42.1961 41.8145 43.3241C41.8145 44.4521 42.7289 45.3665 43.8568 45.3665Z" fill="#5D5360"/>
<path d="M79.634 54.5573L79.6195 51.4937H75.0754C74.9286 51.4937 74.7305 51.4635 74.6205 51.32C74.5215 51.191 74.5019 50.9785 74.5667 50.7367L75.3876 47.673L75.4585 47.4088H74.4012C73.2732 47.4088 72.1137 48.3233 71.8116 49.4512L70.9905 52.5148C70.6883 53.6427 71.3578 54.5572 72.4857 54.5572L79.634 54.5573Z" fill="#C3DDFF"/>
<path d="M74.0355 66.8774C73.5079 66.8774 73.0801 67.3052 73.0801 67.8329C73.0801 68.3606 73.5079 68.7884 74.0355 68.7884H74.0457C74.5734 68.7884 74.9961 68.3606 74.9961 67.8329C74.9961 67.3052 74.5633 66.8774 74.0355 66.8774Z" fill="black"/>
<path d="M42.3773 66.8774C41.8497 66.8774 41.4219 67.3052 41.4219 67.8329C41.4219 68.3606 41.8497 68.7884 42.3773 68.7884H42.3875C42.9152 68.7884 43.3379 68.3606 43.3379 67.8329C43.3379 67.3052 42.9051 66.8774 42.3773 66.8774Z" fill="black"/>
<path d="M83.6421 56.2488L80.5866 54.0642L80.5425 44.8245C80.5357 43.4016 79.4747 42.3687 78.0199 42.3687H70.603C70.6899 41.8649 70.5784 41.3696 70.2847 40.9867C69.9626 40.5671 69.4557 40.3263 68.8941 40.3263H62.2358C61.7081 40.3263 61.2803 40.7541 61.2803 41.2817C61.2803 41.8094 61.7081 42.2372 62.2358 42.2372L68.67 42.2373L62.0676 66.8774H47.5575C47.5771 65.9204 47.3053 65.0236 46.7599 64.3129C46.0077 63.3326 44.8399 62.7926 43.4715 62.7926C41.0124 62.7926 38.5713 64.5372 37.6097 66.8774L33.4102 66.8773L35.277 59.9103C35.4136 59.4006 35.1112 58.8767 34.6013 58.7401C34.0925 58.604 33.5678 58.9059 33.4311 59.4157L31.5158 66.5644C31.3644 67.129 31.4665 67.699 31.7957 68.1279C32.1177 68.5475 32.6246 68.7883 33.1863 68.7883H37.1966C37.177 69.7453 37.4487 70.642 37.9941 71.3527C38.7463 72.3331 39.9141 72.873 41.2824 72.873C43.7416 72.873 46.1827 71.1284 47.1443 68.7883H68.8535C68.8339 69.7453 69.1057 70.642 69.651 71.3527C70.4033 72.3331 71.5711 72.873 72.9394 72.873C75.3986 72.873 77.8397 71.1284 78.8012 68.7883H79.14C80.6963 68.7883 82.2393 67.5801 82.6525 66.0376L84.5317 59.0245C84.8284 57.9167 84.4876 56.8531 83.6421 56.2488ZM45.5389 67.5856C45.0484 69.4158 43.0993 70.9621 41.2824 70.9621C40.5219 70.9621 39.8925 70.6877 39.51 70.1895C39.0988 69.6537 38.9941 68.9046 39.2151 68.0801C39.7054 66.2497 41.6547 64.7035 43.4715 64.7035C44.2321 64.7035 44.8615 64.9779 45.2439 65.4761C45.655 66.012 45.7599 66.7611 45.5389 67.5856ZM78.6734 53.6018H72.4851C72.3236 53.6018 72.1045 53.5673 71.978 53.4024C71.8665 53.2572 71.8428 53.0238 71.913 52.7621L72.7338 49.6986C72.9242 48.9879 73.7031 48.3644 74.4005 48.3644H78.6483L78.6734 53.6018ZM77.1958 67.5856C76.7054 69.4158 74.7563 70.9621 72.9394 70.9621C72.1789 70.9621 71.5494 70.6877 71.167 70.1895C70.7558 69.6537 70.651 68.9046 70.8721 68.0801C71.3624 66.2497 73.3116 64.7035 75.1285 64.7035C75.889 64.7035 76.5185 64.9779 76.9009 65.4761C77.312 66.012 77.4168 66.7611 77.1958 67.5856ZM80.8066 65.5432C80.6229 66.2287 79.892 66.8314 79.2145 66.8735C79.2332 65.918 78.9614 65.0227 78.4168 64.313C77.6645 63.3327 76.4967 62.7927 75.1284 62.7927C72.6692 62.7927 70.2281 64.5373 69.2666 66.8775H64.0459L65.7229 60.6188H77.244C77.7716 60.6188 78.1994 60.1911 78.1994 59.6634C78.1994 59.1357 77.7716 58.708 77.244 58.708H66.2349L70.1008 44.2797H78.0197C78.2975 44.2797 78.6292 44.3759 78.6314 44.8338L78.6392 46.4536H74.4003C72.844 46.4536 71.301 47.6618 70.8877 49.2042L70.067 52.2677C69.8419 53.1078 69.9858 53.9454 70.4619 54.5658C70.9237 55.1677 71.6611 55.5128 72.485 55.5128H79.327L82.5306 57.8033C82.803 57.998 82.7181 58.4088 82.6857 58.5301L82.638 58.708H81.3288C80.8011 58.708 80.3734 59.1357 80.3734 59.6634C80.3734 60.1911 80.8011 60.6188 81.3288 60.6188H82.126L80.8066 65.5432Z" fill="black"/>
<path d="M43.8537 58.5764C52.2638 58.5764 59.1059 51.7344 59.1059 43.3242C59.1059 34.9139 52.2638 28.0719 43.8537 28.0719C35.4437 28.0719 28.6016 34.914 28.6016 43.3242C28.6016 51.7343 35.4437 58.5764 43.8537 58.5764ZM43.8537 29.9828C51.2101 29.9828 57.195 35.9677 57.195 43.3242C57.195 50.6806 51.2102 56.6655 43.8537 56.6655C36.4972 56.6655 30.5124 50.6806 30.5124 43.3242C30.5124 35.9677 36.4973 29.9828 43.8537 29.9828Z" fill="black"/>
<path d="M39.77 48.3643C40.0145 48.3643 40.259 48.271 40.4456 48.0844L42.5218 46.0081C42.9236 46.2085 43.3761 46.3219 43.8547 46.3219C45.5077 46.3219 46.8525 44.977 46.8525 43.3241C46.8525 42.8455 46.7391 42.393 46.5387 41.9912L51.6786 36.8514C52.0517 36.4782 52.0517 35.8732 51.6786 35.5002C51.3055 35.127 50.7005 35.1271 50.3275 35.5002L45.1876 40.64C44.7858 40.4396 44.3333 40.3264 43.8547 40.3264C42.2017 40.3264 40.8569 41.6713 40.8569 43.3242C40.8569 43.8028 40.9703 44.2553 41.1705 44.6571L39.0943 46.7334C38.7212 47.1065 38.7212 47.7115 39.0943 48.0845C39.2809 48.271 39.5254 48.3643 39.77 48.3643ZM43.8547 42.2372C44.4541 42.2372 44.9416 42.7248 44.9416 43.3241C44.9416 43.9233 44.4539 44.411 43.8547 44.411C43.2554 44.411 42.7678 43.9233 42.7678 43.3241C42.7678 42.7248 43.2554 42.2372 43.8547 42.2372Z" fill="black"/>
<path d="M43.8558 35.0886C44.3835 35.0886 44.8113 34.6608 44.8113 34.1331V33.112C44.8113 32.5843 44.3835 32.1565 43.8558 32.1565C43.3282 32.1565 42.9004 32.5843 42.9004 33.112V34.1331C42.9004 34.6609 43.3282 35.0886 43.8558 35.0886Z" fill="black"/>
<path d="M43.8558 51.5594C43.3282 51.5594 42.9004 51.9872 42.9004 52.5149V53.5361C42.9004 54.0638 43.3282 54.4916 43.8558 54.4916C44.3835 54.4916 44.8113 54.0638 44.8113 53.5361V52.5149C44.8113 51.9872 44.3835 51.5594 43.8558 51.5594Z" fill="black"/>
<path d="M53.0453 44.2796H54.0665C54.5942 44.2796 55.0219 43.8518 55.0219 43.3241C55.0219 42.7964 54.5942 42.3687 54.0665 42.3687H53.0453C52.5176 42.3687 52.0898 42.7964 52.0898 43.3241C52.0898 43.8518 52.5176 44.2796 53.0453 44.2796Z" fill="black"/>
<path d="M35.6196 43.3241C35.6196 42.7964 35.1918 42.3687 34.6641 42.3687H33.643C33.1153 42.3687 32.6875 42.7964 32.6875 43.3241C32.6875 43.8518 33.1153 44.2796 33.643 44.2796H34.6641C35.1918 44.2796 35.6196 43.8518 35.6196 43.3241Z" fill="black"/>
<path d="M30.5794 55.6442H20.3676C19.8399 55.6442 19.4121 56.072 19.4121 56.5996C19.4121 57.1273 19.8399 57.5551 20.3676 57.5551H30.5794C31.1071 57.5551 31.5349 57.1273 31.5349 56.5996C31.5349 56.072 31.1071 55.6442 30.5794 55.6442Z" fill="black"/>
<path d="M29.5593 59.729H23.432C22.9044 59.729 22.4766 60.1568 22.4766 60.6845C22.4766 61.2121 22.9044 61.6399 23.432 61.6399H29.5593C30.0869 61.6399 30.5147 61.2121 30.5147 60.6845C30.5147 60.1568 30.0869 59.729 29.5593 59.729Z" fill="black"/>
<path d="M28.5388 63.8137H26.4965C25.9688 63.8137 25.541 64.2415 25.541 64.7692C25.541 65.2968 25.9688 65.7246 26.4965 65.7246H28.5388C29.0665 65.7246 29.4943 65.2968 29.4943 64.7692C29.4943 64.2415 29.0665 63.8137 28.5388 63.8137Z" fill="black"/>
</g>
<defs>
<clipPath id="clip0_1324_617">
<rect width="65.2256" height="65.226" fill="white" transform="translate(19.4121 17.8595)"/>
</clipPath>
</defs>
</svg>
