<svg width="109" height="109" viewBox="0 0 109 109" fill="none" xmlns="http://www.w3.org/2000/svg">
<ellipse cx="57.4789" cy="57.4788" rx="51.2308" ry="51.2311" fill="#82BC29"/>
<path d="M101.962 51.2311C101.962 79.2492 79.2487 101.962 51.2308 101.962C23.213 101.962 0.5 79.2492 0.5 51.2311C0.5 23.2131 23.213 0.5 51.2308 0.5C79.2487 0.5 101.962 23.2131 101.962 51.2311Z" fill="#F3FFE0" stroke="#82BC29"/>
<g clip-path="url(#clip0_1324_554)">
<path d="M49.9478 73.8503C52.922 73.8503 55.3331 71.4431 55.3331 68.4737C55.3331 65.5043 52.922 63.0972 49.9478 63.0972C46.9736 63.0972 44.5625 65.5043 44.5625 68.4737C44.5625 71.4431 46.9736 73.8503 49.9478 73.8503Z" fill="#F7C92B"/>
<path d="M49.9461 63.0972C49.4015 63.0972 48.8763 63.1786 48.3809 63.3286C50.5915 63.9981 52.201 66.048 52.201 68.4738C52.201 70.8996 50.5915 72.9495 48.3809 73.619C48.8763 73.7691 49.4015 73.8505 49.9461 73.8505C52.9202 73.8505 55.3314 71.4433 55.3314 68.4739C55.3314 65.5045 52.9202 63.0972 49.9461 63.0972Z" fill="#F2B51D"/>
<path d="M50.5759 37.0941C48.8464 37.4411 47.1627 36.3226 46.8152 34.5959C46.4677 32.8693 47.5879 31.1882 49.3174 30.8413C51.0469 30.4944 52.7306 31.6129 53.0781 33.3395C53.4257 35.0662 52.3053 36.7471 50.5759 37.0941Z" fill="#F7C92B"/>
<path d="M53.0805 33.3395C52.733 31.6128 51.0493 30.4944 49.3198 30.8413C49.1588 30.8736 49.0032 30.9175 48.8535 30.9718C49.8632 31.3409 50.6625 32.2099 50.8899 33.3395C51.2051 34.9055 50.3129 36.4338 48.8539 36.9635C49.3877 37.1585 49.9801 37.214 50.5782 37.094C52.3076 36.7471 53.428 35.0662 53.0805 33.3395Z" fill="#F2B51D"/>
<path d="M63.2861 67.5739H36.609C34.2221 67.5739 32.2871 65.6421 32.2871 63.259C32.2871 61.9397 32.8851 60.6913 33.9137 59.863L34.7708 59.1729C36.7531 57.5766 37.9056 55.1706 37.9056 52.628V48.0932C37.9056 41.4027 43.338 35.979 50.0393 35.979C56.7406 35.979 62.173 41.4027 62.173 48.0932V52.7118C62.173 55.2065 63.2826 57.5723 65.2017 59.1698L66.0364 59.8646C67.0322 60.6935 67.6079 61.9211 67.6079 63.2156V63.259C67.608 65.6421 65.673 67.5739 63.2861 67.5739Z" fill="#F7E249"/>
<path d="M66.0369 59.8647L65.2022 59.1699C63.2831 57.5723 62.1735 55.2065 62.1735 52.7118V48.0932C62.1735 41.4027 56.7411 35.979 50.0398 35.979C48.8526 35.979 47.7055 36.15 46.6211 36.4673C51.6577 37.9412 55.3361 42.5879 55.3361 48.0931V52.7117C55.3361 55.2064 56.4457 57.5722 58.3649 59.1698L59.1995 59.8646C60.1953 60.6935 60.771 61.9211 60.771 63.2156V63.259C60.771 65.6421 58.836 67.5739 56.4491 67.5739H63.2865C65.6734 67.5739 67.6084 65.6421 67.6084 63.259V63.2156C67.6085 61.9212 67.0328 60.6936 66.0369 59.8647Z" fill="#F7C92B"/>
<path d="M61.3495 48.6656C67.101 48.6656 71.7635 44.0106 71.7635 38.2685C71.7635 32.5263 67.101 27.8713 61.3495 27.8713C55.5981 27.8713 50.9355 32.5263 50.9355 38.2685C50.9355 44.0106 55.5981 48.6656 61.3495 48.6656Z" fill="#F33759"/>
<path d="M64.1424 28.2505C66.7981 30.1347 68.5308 33.2311 68.5308 36.7315C68.5308 42.4737 63.8683 47.1286 58.1168 47.1286C57.1486 47.1286 56.2116 46.9962 55.3223 46.7495C57.0231 47.9562 59.1024 48.6656 61.3478 48.6656C67.0992 48.6656 71.7618 44.0107 71.7618 38.2684C71.7619 33.4928 68.5367 29.4697 64.1424 28.2505Z" fill="#CC2B5A"/>
<path d="M71.0686 38.2685C71.0686 38.6517 71.3791 38.9623 71.7624 38.9623C72.1457 38.9623 72.4563 38.6517 72.4563 38.2685C72.4563 32.1528 67.4732 27.1775 61.3483 27.1775C57.8812 27.1775 54.7803 28.7722 52.7418 31.2653C51.8385 30.3302 50.5087 29.8955 49.1824 30.1608C48.1641 30.3654 47.2867 30.9534 46.7113 31.8166C46.1359 32.6801 45.9316 33.7156 46.1362 34.7331C46.2104 35.1006 46.3362 35.4512 46.5079 35.7769C41.0625 37.3303 37.2117 42.3497 37.2117 48.0928C37.2117 48.4761 37.5223 48.7867 37.9056 48.7867C38.2889 48.7867 38.5994 48.4761 38.5994 48.0928C38.5994 42.6542 42.472 37.9429 47.8073 36.8895C47.8081 36.8894 47.8088 36.8892 47.8096 36.889H47.8097C48.5409 36.7454 49.2911 36.6726 50.0393 36.6726C50.1449 36.6726 50.2503 36.6745 50.3554 36.6773C50.2803 37.1972 50.2406 37.7282 50.2406 38.2685C50.2406 44.384 55.2235 49.3595 61.3483 49.3595C61.3921 49.3595 61.4354 49.3574 61.479 49.3569V52.712C61.479 55.42 62.6742 57.9681 64.7579 59.7028L65.5926 60.3978C66.4329 61.0972 66.9148 62.1243 66.9148 63.2158V63.2594C66.9148 65.2562 65.2871 66.8807 63.2865 66.8807H36.6097C34.609 66.8807 32.9813 65.2562 32.9813 63.2594C32.9813 62.7139 33.1056 62.1669 33.3407 61.677C33.5762 61.1855 33.9248 60.7454 34.3495 60.4038L35.206 59.7131C37.3626 57.9768 38.5994 55.3943 38.5994 52.6278V51.1069C38.5994 50.7236 38.2889 50.4131 37.9056 50.4131C37.5223 50.4131 37.2117 50.7236 37.2117 51.1069V52.6278C37.2117 54.9722 36.1635 57.1607 34.3353 58.6324L33.4791 59.323C32.8945 59.7932 32.4138 60.3999 32.0894 61.0769C31.7651 61.7527 31.5938 62.5074 31.5938 63.2594C31.5938 66.0212 33.8439 68.2684 36.6098 68.2684H43.8733C43.871 68.3368 43.869 68.4052 43.869 68.4736C43.869 71.821 46.5962 74.5442 49.9482 74.5442C53.3003 74.5442 56.0275 71.8209 56.0275 68.4736C56.0275 68.4053 56.0255 68.3368 56.0231 68.2684H63.2868C66.0526 68.2684 68.3027 66.0213 68.3027 63.2594V63.2158C68.3027 61.7109 67.6386 60.2951 66.4807 59.3313L65.6462 58.6364C63.8799 57.166 62.867 55.0068 62.867 52.712V49.2556C64.753 49.0003 66.5273 48.2702 68.0651 47.1029C69.947 45.6745 71.3476 43.6468 72.0092 41.3934C72.1172 41.0257 71.9066 40.6401 71.5389 40.5322C71.1713 40.4243 70.7857 40.6348 70.6777 41.0025C70.0991 42.9732 68.8733 44.7471 67.226 45.9974C65.5245 47.289 63.4921 47.9717 61.3485 47.9717C55.9888 47.9717 51.6284 43.6187 51.6284 38.2683C51.6283 32.9181 55.9887 28.5652 61.3483 28.5652C66.7081 28.5652 71.0686 32.9181 71.0686 38.2685ZM54.6397 68.4734C54.6397 71.0555 52.5351 73.1563 49.9482 73.1563C47.3612 73.1563 45.2566 71.0555 45.2566 68.4734C45.2566 68.4051 45.2583 68.3367 45.2613 68.2682H54.635C54.6381 68.3367 54.6397 68.4051 54.6397 68.4734ZM50.0393 35.2849C49.3373 35.2849 48.6338 35.343 47.9418 35.4563C47.7226 35.1632 47.5702 34.824 47.4966 34.4592C47.3653 33.8059 47.4966 33.1408 47.8662 32.5862C48.236 32.0311 48.8006 31.6529 49.4553 31.5214C50.3945 31.333 51.3376 31.6906 51.9128 32.423C51.3616 33.3068 50.9314 34.2731 50.6455 35.299C50.4448 35.2896 50.2422 35.2849 50.0393 35.2849Z" fill="black"/>
<path d="M61.348 43.0926C61.7313 43.0926 62.0418 42.7821 62.0418 42.3988V33.7537C62.0418 33.479 61.8798 33.2302 61.6284 33.1191C61.3771 33.0082 61.084 33.0557 60.8809 33.2407L59.3928 34.5955C59.1094 34.8534 59.0889 35.2923 59.3468 35.5757C59.6047 35.8591 60.0435 35.8797 60.3269 35.6217L60.6542 35.3238V42.3989C60.6542 42.7821 60.9648 43.0926 61.348 43.0926Z" fill="black"/>
</g>
<defs>
<clipPath id="clip0_1324_554">
<rect width="47.3662" height="47.3665" fill="white" transform="translate(28.3418 27.1775)"/>
</clipPath>
</defs>
</svg>
