<svg width="140" height="140" viewBox="0 0 140 140" fill="none" xmlns="http://www.w3.org/2000/svg">
<circle cx="74.0239" cy="74.023" r="65.977" fill="#82BC29"/>
<circle cx="65.977" cy="65.977" r="65.477" fill="#F3FFE0" stroke="#82BC29"/>
<g clip-path="url(#clip0_510_2973)">
<path d="M72.8485 95.9833C70.5987 95.9833 68.8034 94.0303 69.0555 91.7219C69.2491 89.9495 70.6791 88.528 72.4472 88.3462C73.345 88.2539 74.1867 88.4756 74.8792 88.9132V74.9062H64.4958C63.9578 74.9062 63.6014 75.4466 63.7928 75.9493C64.0294 76.571 64.1389 77.2555 64.0889 77.9715C63.9259 80.3023 62.0419 82.1889 59.7182 82.3472C56.967 82.5348 54.6772 80.3515 54.6772 77.6316C54.6772 77.037 54.7871 76.4683 54.9871 75.9443C55.1782 75.4439 54.8186 74.9062 54.2827 74.9062H50.2068C49.7879 74.9062 49.4482 75.2459 49.4482 75.6648V97.4672C49.4482 99.0972 50.7654 100.419 52.3903 100.419H74.8792V95.3958C74.291 95.7674 73.595 95.9833 72.8485 95.9833Z" fill="#7A6D79"/>
<path d="M92.5277 74.906C93.189 73.9406 93.5769 72.772 93.5769 71.512C93.577 68.1985 90.8458 65.4828 87.5431 65.511C84.2632 65.5389 81.613 68.2149 81.613 71.5119C81.613 72.7719 82.0009 73.9405 82.6621 74.906H74.8795V88.9131C74.187 88.4755 73.3453 88.2538 72.4476 88.3461C70.6794 88.5279 69.2496 89.9492 69.0559 91.7218C68.8037 94.0301 70.599 95.9832 72.8488 95.9832C73.5954 95.9832 74.2912 95.7673 74.8795 95.3957V100.418H97.3685C98.9932 100.418 100.31 99.0971 100.31 97.4671V74.906H92.5277Z" fill="#FFD15B"/>
<path d="M94.9044 74.9062V97.4672C94.9044 99.0972 93.5873 100.419 91.9624 100.419H97.3683C98.993 100.419 100.31 99.0972 100.31 97.4672V74.9062H94.9044Z" fill="#FFC344"/>
<path d="M56.1661 41.3258C56.686 41.2951 57.1886 41.3496 57.662 41.4761C58.1476 41.606 58.6272 41.2549 58.6272 40.7521V33.9561C58.6272 33.5371 58.2876 33.1975 57.8686 33.1975H36.1383C34.5134 33.1975 33.1963 34.5188 33.1963 36.1489V57.9512C33.1963 58.3702 33.5359 58.7098 33.9549 58.7098H39.2885C38.6853 59.5654 38.357 60.6301 38.4372 61.7751C38.6002 64.1058 40.4841 65.9924 42.8078 66.1507C45.559 66.3382 47.8488 64.1549 47.8488 61.4352C47.8488 60.42 47.5287 59.4801 46.9856 58.7098H57.8688C58.2877 58.7098 58.6274 58.3702 58.6274 57.9512V51.3414C58.6274 50.8417 58.153 50.4803 57.6705 50.6103C57.2812 50.7152 56.8719 50.7713 56.4496 50.7713C53.7404 50.7713 51.5654 48.4775 51.7486 45.7203C51.9049 43.3657 53.818 41.4645 56.1661 41.3258Z" fill="#C8EFFE"/>
<path d="M56.1661 41.3258C56.686 41.2951 57.1886 41.3496 57.662 41.4761C58.1477 41.606 58.6272 41.2549 58.6272 40.7521V33.9561C58.6272 33.5371 58.2876 33.1975 57.8686 33.1975H52.4627C52.8817 33.1975 53.2212 33.5371 53.2212 33.9561V40.7522C53.2212 41.255 52.7417 41.6061 52.256 41.4762C51.7826 41.3497 51.2799 41.2953 50.76 41.3259C48.412 41.4646 46.4988 43.3659 46.3423 45.7203C46.1591 48.4775 48.3341 50.7712 51.0433 50.7712C51.4656 50.7712 51.8749 50.7152 52.2642 50.6103C52.7468 50.4803 53.2211 50.8417 53.2211 51.3414V57.9512C53.2211 58.3702 52.8814 58.7098 52.4626 58.7098H57.8685C58.2875 58.7098 58.6271 58.3702 58.6271 57.9512V51.3414C58.6271 50.8417 58.1527 50.4803 57.6702 50.6103C57.2809 50.7152 56.8717 50.7712 56.4493 50.7712C53.7402 50.7712 51.5651 48.4775 51.7484 45.7203C51.9049 43.3657 53.818 41.4645 56.1661 41.3258Z" fill="#99E6FC"/>
<path d="M74.8789 50.1524V58.0493C74.1497 57.6671 73.309 57.4695 72.4177 57.5222C70.0697 57.6609 68.1565 59.5621 68 61.9165C67.8168 64.6738 69.9918 66.9675 72.701 66.9675C73.4869 66.9675 74.2274 66.7735 74.8788 66.4321V74.9062H82.6614C82.0001 73.9409 81.6122 72.7722 81.6122 71.5123C81.6121 68.1987 84.3433 65.4831 87.6461 65.5112C90.926 65.5392 93.5763 68.2152 93.5763 71.5121C93.5763 72.7721 93.1885 73.9407 92.5271 74.9062H100.31V52.3451C100.31 50.7151 98.9926 49.3938 97.3677 49.3938H75.6375C75.2185 49.3938 74.8789 49.7334 74.8789 50.1524Z" fill="#FD8087"/>
<path d="M97.3683 49.3938H91.9624C93.5871 49.3938 94.9044 50.7151 94.9044 52.3451V74.906H100.31V52.3451C100.31 50.7151 98.9932 49.3938 97.3683 49.3938Z" fill="#FE646F"/>
<path d="M54.1442 68.4835C55.5692 68.4835 56.7244 67.3283 56.7244 65.9032C56.7244 64.4782 55.5692 63.323 54.1442 63.323C52.7192 63.323 51.564 64.4782 51.564 65.9032C51.564 67.3283 52.7192 68.4835 54.1442 68.4835Z" fill="#6FD7A3"/>
<path d="M93.7599 43.5604C95.1849 43.5604 96.3401 42.4052 96.3401 40.9801C96.3401 39.5551 95.1849 38.3999 93.7599 38.3999C92.3349 38.3999 91.1797 39.5551 91.1797 40.9801C91.1797 42.4052 92.3349 43.5604 93.7599 43.5604Z" fill="#6FD7A3"/>
<path d="M65.5519 38.358C66.9769 38.358 68.1321 37.2028 68.1321 35.7777C68.1321 34.3527 66.9769 33.1975 65.5519 33.1975C64.1269 33.1975 62.9717 34.3527 62.9717 35.7777C62.9717 37.2028 64.1269 38.358 65.5519 38.358Z" fill="#FFD15B"/>
<path d="M33.1963 44.3435V57.9512C33.1963 58.3702 33.5359 58.7098 33.9549 58.7098H39.2885C38.6853 59.5654 38.357 60.6301 38.4372 61.7751C38.6002 64.1058 40.4841 65.9925 42.8078 66.1507C45.559 66.3382 47.8488 64.155 47.8488 61.4352C47.8488 60.42 47.5287 59.4801 46.9856 58.7098H57.8688C58.2877 58.7098 58.6274 58.3702 58.6274 57.9512V51.3414C58.6274 50.8417 58.153 50.4803 57.6705 50.6103C57.2812 50.7152 56.8719 50.7713 56.4496 50.7713C53.7404 50.7713 51.5654 48.4775 51.7486 45.7203C51.9051 43.3659 53.8183 41.4646 56.1663 41.3259C56.6862 41.2953 57.1888 41.3497 57.6623 41.4762C58.148 41.6061 58.6275 41.255 58.6275 40.7522V33.9561C58.6275 33.5371 58.2879 33.1975 57.8689 33.1975H36.1383C34.5134 33.1975 33.1963 34.5188 33.1963 36.1489V40.2961" stroke="white" stroke-width="1.25977" stroke-miterlimit="10" stroke-linecap="round" stroke-linejoin="round"/>
<path d="M72.9017 95.9304C70.6519 95.9304 68.8566 93.9774 69.1088 91.6691C69.3023 89.8966 70.7323 88.4752 72.5004 88.2934C73.3982 88.2011 74.2399 88.4227 74.9324 88.8603V74.8533H64.549C64.011 74.8533 63.6546 75.3936 63.846 75.8963C64.0826 76.518 64.1921 77.2025 64.1421 77.9185C63.9791 80.2493 62.0952 82.136 59.7714 82.2942C57.0202 82.4818 54.7304 80.2985 54.7304 77.5786C54.7304 76.984 54.8403 76.4153 55.0403 75.8913C55.2314 75.3909 54.8718 74.8533 54.336 74.8533H50.26C49.8411 74.8533 49.5015 75.1929 49.5015 75.6118V97.4142C49.5015 99.0442 50.8186 100.366 52.4435 100.366H74.9324V95.3428C74.3442 95.7145 73.6482 95.9304 72.9017 95.9304Z" stroke="white" stroke-width="1.25977" stroke-miterlimit="10" stroke-linecap="round" stroke-linejoin="round"/>
<path d="M100.365 87.681V74.8533H92.5819C93.2432 73.8879 93.6309 72.7191 93.6311 71.4593C93.6311 68.1458 90.9 65.4301 87.5973 65.4582C84.3174 65.4862 81.6672 68.1621 81.6672 71.4592C81.6672 72.7191 82.055 73.8878 82.7163 74.8533H74.9337V88.8603C74.2412 88.4227 73.3995 88.2012 72.5017 88.2934C70.7336 88.475 69.3038 89.8965 69.1101 91.6691C68.858 93.9774 70.6532 95.9304 72.903 95.9304C73.6495 95.9304 74.3454 95.7146 74.9337 95.3429V100.365H97.4226C99.0474 100.365 100.365 99.0441 100.365 97.4141V91.7261" stroke="white" stroke-width="1.25977" stroke-miterlimit="10" stroke-linecap="round" stroke-linejoin="round"/>
<path d="M74.9336 50.0995V57.9964C74.2043 57.6142 73.3637 57.4167 72.4724 57.4694C70.1244 57.608 68.2112 59.5093 68.0547 61.8637C67.8715 64.6209 70.0465 66.9147 72.7557 66.9147C73.5416 66.9147 74.2821 66.7206 74.9335 66.3792V74.8534H82.7161C82.0548 73.888 81.6669 72.7194 81.6669 71.4594C81.6668 68.1459 84.398 65.4302 87.7008 65.4583C90.9807 65.4863 93.631 68.1623 93.631 71.4593C93.631 72.7192 93.2432 73.8879 92.5818 74.8534H100.365V52.2924C100.365 50.6624 99.0474 49.3411 97.4225 49.3411H75.6922C75.2732 49.3409 74.9336 49.6806 74.9336 50.0995Z" stroke="white" stroke-width="1.25977" stroke-miterlimit="10" stroke-linecap="round" stroke-linejoin="round"/>
<path d="M70.1592 52.1406V47.4642L76.6434 40.98H91.107" stroke="white" stroke-width="1.25977" stroke-miterlimit="10" stroke-linecap="round" stroke-linejoin="round"/>
<path d="M93.7594 43.5601C95.1845 43.5601 96.3397 42.4049 96.3397 40.9799C96.3397 39.5549 95.1845 38.3997 93.7594 38.3997C92.3344 38.3997 91.1792 39.5549 91.1792 40.9799C91.1792 42.4049 92.3344 43.5601 93.7594 43.5601Z" stroke="white" stroke-width="1.25977" stroke-miterlimit="10" stroke-linecap="round" stroke-linejoin="round"/>
<path d="M65.5518 53.7625V38.3557" stroke="white" stroke-width="1.25977" stroke-miterlimit="10" stroke-linecap="round" stroke-linejoin="round"/>
<path d="M65.5519 38.358C66.9769 38.358 68.1321 37.2028 68.1321 35.7777C68.1321 34.3527 66.9769 33.1975 65.5519 33.1975C64.1269 33.1975 62.9717 34.3527 62.9717 35.7777C62.9717 37.2028 64.1269 38.358 65.5519 38.358Z" stroke="white" stroke-width="1.25977" stroke-miterlimit="10" stroke-linecap="round" stroke-linejoin="round"/>
<path d="M59.3474 76.5121V71.1062L55.9688 67.7275" stroke="white" stroke-width="1.25977" stroke-miterlimit="10" stroke-linecap="round" stroke-linejoin="round"/>
<path d="M54.1442 68.4835C55.5692 68.4835 56.7244 67.3283 56.7244 65.9032C56.7244 64.4782 55.5692 63.323 54.1442 63.323C52.7192 63.323 51.564 64.4782 51.564 65.9032C51.564 67.3283 52.7192 68.4835 54.1442 68.4835Z" stroke="white" stroke-width="1.25977" stroke-miterlimit="10" stroke-linecap="round" stroke-linejoin="round"/>
</g>
<defs>
<clipPath id="clip0_510_2973">
<rect width="69.1954" height="69.1954" fill="white" transform="translate(32.1826 32.1838)"/>
</clipPath>
</defs>
</svg>
