<svg width="140" height="140" viewBox="0 0 140 140" fill="none" xmlns="http://www.w3.org/2000/svg">
<circle cx="74.0239" cy="74.023" r="65.977" fill="#82BC29"/>
<circle cx="65.977" cy="65.977" r="65.477" fill="#F3FFE0" stroke="#82BC29"/>
<g clip-path="url(#clip0_510_2938)">
<path fill-rule="evenodd" clip-rule="evenodd" d="M65.4444 61.9829C80.9599 81.2512 88.7177 90.8853 88.7177 90.8853C90.2964 92.4642 90.2962 95.0466 88.7175 96.6255C87.1386 98.2042 84.5562 98.2045 82.9773 96.6256C84.5559 98.2042 84.5559 100.787 82.9773 102.365C81.3988 103.944 78.8158 103.944 77.2373 102.366L74.1062 99.2347C75.6849 100.813 75.6846 103.396 74.1062 104.975C72.5276 106.553 69.9447 106.553 68.3662 104.975L62.8411 99.4496C64.4196 101.028 64.4196 103.611 62.8409 105.19C61.2625 106.768 58.6795 106.768 57.1011 105.19L34.4604 82.5494C34.4604 82.5494 35.9909 75.6939 39.0515 61.9829H65.4444Z" fill="#FFD6BD"/>
<path fill-rule="evenodd" clip-rule="evenodd" d="M65.4443 61.9829L68.6423 65.9543H38.165L39.0516 61.9829H65.4443Z" fill="#F9C6AA"/>
<path fill-rule="evenodd" clip-rule="evenodd" d="M69.7295 85.7025C69.0877 85.0607 69.0877 84.0199 69.7295 83.3781C70.3713 82.7363 71.4121 82.7363 72.0541 83.3781L83.2353 94.5593C83.8771 95.2011 83.8771 96.2421 83.2353 96.8839C82.5935 97.5257 81.5527 97.5257 80.9108 96.8839L69.7295 85.7025ZM56.8803 95.8135C56.2385 95.1716 56.2385 94.1309 56.8803 93.4889C57.5221 92.8471 58.5629 92.8471 59.2048 93.4889L63.1267 97.4108C63.7685 98.0526 63.7685 99.0933 63.1267 99.7353C62.4849 100.377 61.4441 100.377 60.8021 99.7353L56.8803 95.8135ZM63.3049 90.7579L72.04 99.4929C72.6819 100.135 73.7225 100.135 74.3645 99.4929C75.0063 98.8511 75.0063 97.8104 74.3645 97.1684L65.6294 88.4333C64.9875 87.7915 63.9467 87.7915 63.3049 88.4333C62.6631 89.0753 62.6631 90.1161 63.3049 90.7579Z" fill="#F9C6AA"/>
<path fill-rule="evenodd" clip-rule="evenodd" d="M42.519 59.7754L35.4154 58.3602C34.6528 58.2083 33.9045 58.7079 33.7526 59.4706L28.2323 87.1805C28.0804 87.9431 28.58 88.6913 29.3428 88.8432L36.4464 90.2585C37.2091 90.4104 37.9573 89.9108 38.1093 89.1481L43.6295 61.4381C43.7813 60.6756 43.2817 59.9274 42.519 59.7754Z" fill="#64B5F6"/>
<path fill-rule="evenodd" clip-rule="evenodd" d="M42.5192 59.7757L41.6152 59.5957L36.1941 86.8083C36.0422 87.5708 35.2941 88.0706 34.5314 87.9186L28.3314 86.6834L28.2323 87.1807C28.0804 87.9432 28.5798 88.6914 29.3426 88.8433L36.4464 90.2586C37.2089 90.4105 37.9572 89.9107 38.1091 89.1482L43.6294 61.4382C43.7813 60.6757 43.2817 59.9275 42.5192 59.7757Z" fill="#42A5F5"/>
<path fill-rule="evenodd" clip-rule="evenodd" d="M100.375 80.9199C100.179 80.9945 92.6181 61.8936 92.425 61.9657C85.1625 64.6796 79.5947 65.6691 72.112 59.4956C69.7446 57.5426 66.5531 57.3257 64.1976 59.2924L54.6725 67.2452C53.5341 68.1956 52.9102 69.517 53.2265 70.9659L56.1159 84.2062C63.462 82.3959 63.4275 77.1685 63.9451 71.6721C64.1942 69.567 67.5959 70.1433 71.8656 74.0334L89.4354 91.8592L100.375 80.9199Z" fill="#F9C6AA"/>
<path fill-rule="evenodd" clip-rule="evenodd" d="M93.0659 63.3473L93.0472 63.3032L93.0286 63.2597L93.0101 63.2169L92.9741 63.1331L92.9564 63.0922L92.9391 63.0518L92.922 63.0121L92.9212 63.0103L92.8885 62.9348L92.8721 62.8972L92.8561 62.8601L92.8402 62.8237L92.8247 62.788L92.7942 62.7186L92.7795 62.6849L92.765 62.6519L92.7508 62.6197L92.7477 62.6128L92.7245 62.5604L92.6703 62.4397L92.6546 62.4052L92.6046 62.2964L92.5943 62.2744C92.577 62.2374 92.5608 62.2036 92.5461 62.1728L92.5438 62.1678L92.5426 62.1654C92.5272 62.1339 92.5132 62.1058 92.5006 62.0816L92.4974 62.0755C92.4717 62.0261 92.4522 61.9931 92.4393 61.9771L92.439 61.9766C92.4324 61.9686 92.4278 61.9651 92.4247 61.9662L92.276 62.0216L92.2625 62.0266L92.2491 62.0316L92.2354 62.0366L92.222 62.0415L92.2085 62.0465L92.195 62.0515L92.1835 62.0558L92.1814 62.0564L92.168 62.0614L92.1545 62.0664L92.141 62.0713L92.1276 62.0763L92.1141 62.0813L92.1006 62.0862L92.0872 62.0912L92.0737 62.0962L92.0602 62.1012L92.0468 62.1061L92.0199 62.1159L92.0064 62.1209C91.8588 62.1749 91.7118 62.2281 91.5656 62.2812C86.782 64.0033 82.6952 64.8524 78.2182 63.1884C83.1025 65.8734 87.352 65.4684 92.2367 63.8874C94.4888 69.3251 98.6081 79.6197 98.7519 79.565L87.9563 90.3598L89.4345 91.8595L100.375 80.9201C100.212 80.9821 94.9307 67.7203 93.0659 63.3473ZM57.9473 83.6277C63.4592 81.4398 63.4744 76.6673 63.9447 71.6724C64.1613 69.8421 66.7617 70.0394 70.2435 72.6792L70.2426 72.6783C65.9729 68.7883 62.5712 68.2119 62.3221 70.317C61.8917 74.8872 61.8417 79.2709 57.614 81.6594L55.5104 72.0193C55.1941 70.5704 55.8181 69.249 56.9564 68.2986L66.4815 60.3458C68.0073 59.0718 69.884 58.7145 71.6602 59.1513C69.3501 57.5242 66.406 57.4485 64.1972 59.2927L54.6721 67.2455C53.5337 68.1961 52.9098 69.5175 53.2259 70.9662L56.1153 84.2066C56.2286 84.1787 56.3402 84.1498 56.45 84.1203L56.4582 84.1181C56.5632 84.0897 56.6667 84.0607 56.7687 84.0309L56.7954 84.023C56.891 83.9948 56.9851 83.9661 57.0779 83.9368L57.1218 83.9227C57.2072 83.8953 57.2914 83.8674 57.3746 83.8388L57.4438 83.815C57.5179 83.7892 57.5911 83.7629 57.6636 83.7363L57.7463 83.7055C57.8141 83.68 57.8811 83.654 57.9473 83.6277Z" fill="#EAAB92"/>
<path fill-rule="evenodd" clip-rule="evenodd" d="M91.0448 59.7754L98.1485 58.3602C98.9113 58.2083 99.6594 58.7079 99.8113 59.4706L105.332 87.1805C105.484 87.9431 104.984 88.6913 104.221 88.8432L97.1176 90.2585C96.3548 90.4104 95.6067 89.9108 95.4548 89.1481L89.9345 61.4381C89.7824 60.6756 90.282 59.9274 91.0448 59.7754Z" fill="#FFDA2D"/>
<path fill-rule="evenodd" clip-rule="evenodd" d="M91.0445 59.7757L91.9486 59.5957L97.3698 86.8085C97.5217 87.571 98.2698 88.0707 99.0325 87.9188L105.233 86.6836L105.332 87.1808C105.484 87.9433 104.984 88.6916 104.221 88.8435L97.1175 90.2587C96.355 90.4107 95.6067 89.9109 95.4548 89.1484L89.9345 61.4384C89.7824 60.6757 90.282 59.9275 91.0445 59.7757Z" fill="#FFC700"/>
<path fill-rule="evenodd" clip-rule="evenodd" d="M73.4794 50.3466C73.9256 44.3975 78.933 39.668 84.9912 39.668C91.0494 39.668 96.0565 44.3975 96.5029 50.3466C96.5382 50.8165 96.1711 51.2121 95.6999 51.2121H74.2825C73.8112 51.212 73.4441 50.8165 73.4794 50.3466Z" fill="#64B5F6"/>
<path fill-rule="evenodd" clip-rule="evenodd" d="M83.9766 39.7133C84.3111 39.6838 84.6495 39.668 84.9914 39.668C91.0496 39.668 96.0567 44.3975 96.5031 50.3466C96.5384 50.8165 96.1713 51.2121 95.7001 51.2121H93.6705C94.1417 51.2121 94.5088 50.8167 94.4735 50.3466C94.0523 44.7332 89.5704 40.2064 83.9766 39.7133Z" fill="#42A5F5"/>
<path fill-rule="evenodd" clip-rule="evenodd" d="M84.9916 39.6679C88.4281 39.6679 91.2308 36.8651 91.2308 33.4286C91.2308 29.9923 88.4281 27.1895 84.9916 27.1895C81.5551 27.1895 78.7524 29.9923 78.7524 33.4286C78.7524 36.8651 81.5551 39.6679 84.9916 39.6679Z" fill="#FFD6BD"/>
<path fill-rule="evenodd" clip-rule="evenodd" d="M84.9917 27.1895C84.7014 27.1895 84.4159 27.2098 84.1362 27.2481C87.1773 27.6652 89.5201 30.2731 89.5201 33.4288C89.5201 36.5844 87.1773 39.1922 84.1362 39.6093C84.4159 39.6477 84.7014 39.6679 84.9917 39.6679C88.4375 39.6679 91.2309 36.8746 91.2309 33.4286C91.2309 29.9827 88.4375 27.1895 84.9917 27.1895Z" fill="#F9C6AA"/>
<path fill-rule="evenodd" clip-rule="evenodd" d="M37.06 50.3466C37.5064 44.3975 42.5135 39.668 48.5717 39.668C54.6299 39.668 59.6373 44.3975 60.0835 50.3466C60.1188 50.8165 59.7517 51.2121 59.2805 51.2121H37.863C37.3916 51.212 37.0247 50.8165 37.06 50.3466Z" fill="#72D561"/>
<path fill-rule="evenodd" clip-rule="evenodd" d="M47.5566 39.7133C47.8912 39.6838 48.2295 39.668 48.5714 39.668C54.6296 39.668 59.637 44.3975 60.0832 50.3466C60.1185 50.8165 59.7514 51.2121 59.2802 51.2121H57.2504C57.7217 51.2121 58.0887 50.8167 58.0535 50.3466C57.6324 44.7332 53.1503 40.2064 47.5566 39.7133Z" fill="#3CBE52"/>
<path fill-rule="evenodd" clip-rule="evenodd" d="M48.5712 39.6679C52.0077 39.6679 54.8104 36.8651 54.8104 33.4286C54.8104 29.9923 52.0077 27.1895 48.5712 27.1895C45.1347 27.1895 42.332 29.9923 42.332 33.4286C42.332 36.8651 45.1347 39.6679 48.5712 39.6679Z" fill="#FFD6BD"/>
<path fill-rule="evenodd" clip-rule="evenodd" d="M48.5713 27.1895C48.281 27.1895 47.9955 27.2098 47.7158 27.2481C50.7569 27.6652 53.0995 30.2731 53.0995 33.4288C53.0995 36.5844 50.7567 39.1924 47.7158 39.6093C47.9955 39.6477 48.281 39.6679 48.5713 39.6679C52.0171 39.6679 54.8105 36.8746 54.8105 33.4286C54.8105 29.9827 52.0171 27.1895 48.5713 27.1895Z" fill="#F9C6AA"/>
<path fill-rule="evenodd" clip-rule="evenodd" d="M53.6838 53.5372C54.1916 46.7686 59.8887 41.3875 66.7815 41.3875C73.6743 41.3875 79.3714 46.7686 79.8792 53.5372C79.9193 54.0719 79.5017 54.522 78.9655 54.522H54.5976C54.0613 54.522 53.6437 54.0721 53.6838 53.5372Z" fill="#FC685B"/>
<path fill-rule="evenodd" clip-rule="evenodd" d="M65.627 41.4391C66.0076 41.4054 66.3927 41.3875 66.7817 41.3875C73.6745 41.3875 79.3716 46.7684 79.8794 53.5372C79.9195 54.0719 79.5019 54.522 78.9657 54.522H76.6564C77.1926 54.522 77.6103 54.0719 77.5701 53.5372C77.0908 47.1506 71.9915 42.0002 65.627 41.4391Z" fill="#F35244"/>
<path d="M73.8586 34.5389C73.988 30.6223 70.9178 27.3423 67.0011 27.213C63.0845 27.0836 59.8046 30.1538 59.6752 34.0704C59.5458 37.987 62.616 41.267 66.5326 41.3964C70.4493 41.5257 73.7292 38.4556 73.8586 34.5389Z" fill="#FFD6BD"/>
<path fill-rule="evenodd" clip-rule="evenodd" d="M66.7819 27.1902C66.4517 27.1902 66.1268 27.2133 65.8086 27.2569C69.2686 27.7313 71.9341 30.6986 71.9341 34.2888C71.9341 37.8792 69.2686 40.8463 65.8086 41.321C66.1268 41.3646 66.4517 41.3876 66.7819 41.3876C70.7024 41.3876 73.8807 38.2094 73.8807 34.2888C73.8807 30.3684 70.7024 27.1902 66.7819 27.1902Z" fill="#F9C6AA"/>
<path fill-rule="evenodd" clip-rule="evenodd" d="M104.056 87.5277C104.041 87.5489 104.011 87.5761 103.973 87.5845L96.8678 88.9995C96.8225 89.0078 96.7922 88.9926 96.7696 88.979C96.747 88.9646 96.7242 88.9389 96.7167 88.8966L91.1911 61.1863C91.1836 61.144 91.1987 61.1098 91.2139 61.0888C91.229 61.0677 91.2517 61.0404 91.2971 61.0321L98.4025 59.6162C98.41 59.6148 98.4175 59.614 98.4252 59.614C98.4555 59.614 98.4781 59.626 98.5009 59.6374C98.5159 59.6518 98.5462 59.6775 98.5538 59.7198L104.072 87.4301C104.087 87.4718 104.071 87.5066 104.056 87.5277ZM89.4449 90.0382L93.5117 85.967L89.2409 64.5336C84.5846 66.0106 78.5299 66.4506 71.296 60.4836C69.3306 58.8645 66.8136 58.7805 65.022 60.2757L55.4979 68.2285C55.0066 68.6382 54.2203 69.503 54.4774 70.692L57.0777 82.5867C61.8473 80.9131 62.1573 77.3749 62.5731 72.6165C62.6034 72.2627 62.6335 71.9075 62.6714 71.5515C62.6714 71.5409 62.6714 71.5312 62.6714 71.5206C62.7924 70.5008 63.3895 69.72 64.3041 69.3776C66.2391 68.6557 69.3912 70.042 72.7322 73.0845C72.7472 73.1004 72.7625 73.1163 72.7775 73.1321L89.4449 90.0382ZM87.8122 95.7178C87.2906 96.2386 86.5953 96.5258 85.8469 96.5258C85.1062 96.5258 84.4031 96.2386 83.8891 95.7178L71.8023 83.6326C71.296 83.1314 70.4871 83.1314 69.9882 83.6326C69.4818 84.1331 69.4818 84.9449 69.9882 85.446L82.0674 97.5313C83.1559 98.6138 83.1559 100.375 82.0674 101.458C81.5533 101.979 80.8503 102.266 80.1096 102.266C79.3612 102.266 78.6658 101.979 78.1442 101.458L65.3772 88.6881C64.8707 88.1868 64.062 88.1876 63.5631 88.6881C63.0565 89.1885 63.0565 90.0002 63.5631 90.5014L73.2007 100.141L73.2082 100.145C74.2817 101.228 74.2817 102.986 73.2007 104.067C72.1197 105.149 70.3586 105.149 69.2701 104.067L58.9521 93.7433C58.4456 93.2421 57.6368 93.2421 57.138 93.7433C56.6391 94.2437 56.6391 95.0563 57.138 95.5567L61.9379 100.355V100.356C62.4595 100.878 62.7392 101.574 62.7392 102.318C62.7392 103.064 62.4595 103.761 61.9379 104.282C60.8493 105.365 59.0882 105.365 58.0072 104.282L39.9945 86.2646L44.5752 63.2637H57.4404L53.8499 66.26C52.255 67.5896 51.5747 69.4046 51.9753 71.2383L54.8628 84.4785C54.9383 84.8172 55.1425 85.1105 55.4373 85.2934C55.732 85.4771 56.0873 85.533 56.4199 85.4507C59.9046 84.5928 62.2326 82.9155 63.5403 80.3204C64.6667 78.0806 64.8933 75.5355 65.1277 72.8407C65.158 72.4991 65.1881 72.1552 65.2184 71.8104C65.2259 71.7931 65.2259 71.7794 65.2259 71.7689C65.6871 71.6108 67.8036 72.0705 70.9783 74.9572L88.3713 92.6059C88.8403 93.6489 88.621 94.9061 87.8122 95.7178ZM36.797 88.9791C36.8121 88.9647 36.8424 88.9391 36.8499 88.8968L42.3679 61.1865C42.383 61.1183 42.3377 61.0459 42.2697 61.0323L35.1643 59.6164C35.1568 59.615 35.1492 59.6142 35.1417 59.6142C35.1114 59.6142 35.0813 59.6262 35.0661 59.6376C35.0435 59.652 35.0207 59.6776 35.0132 59.72L29.4876 87.4303C29.4801 87.4718 29.4951 87.5066 29.5102 87.5277C29.5253 87.5489 29.548 87.5761 29.5934 87.5845L36.6988 88.9995C36.7366 89.0078 36.7744 88.9928 36.797 88.9791ZM106.589 86.929L101.07 59.2189C100.927 58.5144 100.519 57.9059 99.9215 57.5052C99.3243 57.1046 98.6063 56.961 97.8958 57.1016L90.7979 58.5166C90.0874 58.6572 89.4827 59.0647 89.082 59.6648C88.6815 60.2643 88.5378 60.983 88.6815 61.6875L88.7419 62.0012C84.4937 63.4034 79.3386 63.795 72.9287 58.5053C69.9808 56.0751 66.1409 55.9958 63.3742 58.3065L60.5094 60.6997H44.8927C44.7112 59.6347 43.8949 58.7404 42.7687 58.5166L35.6633 57.1016C34.9604 56.961 34.2422 57.1046 33.6451 57.5052C33.0403 57.9058 32.6322 58.5144 32.4961 59.2189L26.9704 86.9284C26.8343 87.6337 26.9779 88.3524 27.3785 88.9519C27.7792 89.552 28.3914 89.9595 29.0944 90.1001L36.1923 91.5151C36.3737 91.5499 36.5475 91.5672 36.7289 91.5672C37.2505 91.5672 37.7721 91.4122 38.218 91.1113C38.8153 90.7108 39.2234 90.1021 39.367 89.3977L39.3897 89.2888L56.1932 106.095C57.2364 107.136 58.6045 107.657 59.9727 107.657C61.3408 107.657 62.709 107.136 63.7445 106.095C64.4551 105.392 64.9313 104.526 65.1581 103.581L67.4636 105.881C69.5422 107.962 72.9287 107.962 75.0149 105.88C75.733 105.161 76.2017 104.286 76.4283 103.363C77.4184 104.311 78.7187 104.831 80.1096 104.831C81.5382 104.831 82.8762 104.277 83.8891 103.271C85.0305 102.123 85.5444 100.579 85.4311 99.0744C85.5672 99.085 85.7108 99.0903 85.8469 99.0903C87.2755 99.0903 88.621 98.5362 89.6264 97.5302C91.0323 96.1265 91.5085 94.0312 90.9416 92.1672L94.1163 88.9902L94.1995 89.3977C94.3356 90.1021 94.7437 90.7106 95.3484 91.1113C95.7944 91.4122 96.3084 91.5672 96.8375 91.5672C97.0115 91.5672 97.1927 91.5497 97.3667 91.5151L104.472 90.1001C105.175 89.9595 105.787 89.552 106.188 88.9519C106.589 88.3524 106.732 87.6337 106.589 86.929ZM48.6116 40.9497C51.6201 40.9497 54.4547 42.2793 56.4048 44.5515C54.946 46.0648 53.8121 47.894 53.1243 49.9281H38.4298C39.0724 44.8539 43.449 40.9505 48.6116 40.9497ZM43.6605 33.4279C43.6605 30.6946 45.883 28.4707 48.6116 28.4707C51.3479 28.4707 53.5702 30.6946 53.5702 33.4279C53.5702 36.1604 51.3479 38.3835 48.6116 38.3851C45.8753 38.3835 43.6605 36.1604 43.6605 33.4279ZM78.5676 53.2391C77.9174 47.2804 72.8152 42.6687 66.7833 42.6687C60.7514 42.6687 55.649 47.2804 54.9989 53.2391H78.5676ZM60.963 34.2872C60.963 31.08 63.5783 28.4706 66.7833 28.4706C69.9883 28.4706 72.5961 31.08 72.5961 34.2872C72.5961 37.4945 69.9882 40.1039 66.7833 40.1039C63.5783 40.1039 60.963 37.4945 60.963 34.2872ZM84.9473 40.9497H84.9548C90.1177 40.9505 94.4942 44.8539 95.1367 49.9281H80.4422C79.7544 47.894 78.6205 46.0648 77.1617 44.5515C79.1119 42.2793 81.9465 40.9497 84.9473 40.9497ZM79.9962 33.4279C79.9962 30.6946 82.2185 28.4707 84.9548 28.4707C87.6836 28.4707 89.9059 30.6946 89.9059 33.4279C89.9059 36.1604 87.6836 38.3835 84.9548 38.3851H84.9473C82.2187 38.3835 79.9962 36.1604 79.9962 33.4279ZM37.9006 52.4929H52.512C52.4666 52.8058 52.4288 53.1211 52.4062 53.4407C52.3608 54.05 52.5724 54.6556 52.9882 55.1015C53.3964 55.5474 53.986 55.8029 54.5983 55.8029H78.9683C79.5806 55.8029 80.1702 55.5474 80.5784 55.1007C80.9942 54.6548 81.2058 54.0492 81.1604 53.4407C81.1378 53.1209 81.1 52.8058 81.0546 52.4929H95.6584C96.2405 52.4929 96.7999 52.2502 97.1929 51.8263C97.5859 51.4029 97.7825 50.8285 97.7448 50.2495C97.3668 45.2455 94.0938 41.0578 89.6567 39.2891C91.3726 37.9096 92.4686 35.7954 92.4686 33.4279C92.4686 29.2804 89.0972 25.9067 84.955 25.9067C80.8052 25.9067 77.4338 29.2802 77.4338 33.4279C77.4338 35.7946 78.5299 37.908 80.2458 39.2883C78.3259 40.0495 76.6024 41.2709 75.2268 42.8668C74.1761 42.1003 73.0196 41.4729 71.7799 41.0111C73.8359 39.4819 75.1664 37.0373 75.1664 34.2875C75.1664 29.6667 71.4021 25.9062 66.7835 25.9062C62.165 25.9062 58.4006 29.6668 58.4006 34.2875C58.4006 37.0375 59.7308 39.4819 61.7869 41.0111C60.5472 41.4731 59.3907 42.1004 58.3324 42.8668C56.9644 41.2711 55.2409 40.0495 53.3209 39.2883C55.0369 37.908 56.1328 35.7946 56.1328 33.4279C56.1328 29.2804 52.7615 25.9067 48.6116 25.9067C44.4694 25.9067 41.0904 29.2802 41.0904 33.4279C41.0904 35.7954 42.194 37.9095 43.9099 39.2891C39.4729 41.0579 36.1998 45.2455 35.822 50.2488C35.7766 50.8278 35.9807 51.4023 36.3737 51.8264C36.7669 52.2502 37.3262 52.4929 37.9006 52.4929Z" fill="white"/>
</g>
<defs>
<clipPath id="clip0_510_2938">
<rect width="82.069" height="82.069" fill="white" transform="translate(25.7471 25.7471)"/>
</clipPath>
</defs>
</svg>
