<svg width="140" height="140" viewBox="0 0 140 140" fill="none" xmlns="http://www.w3.org/2000/svg">
<circle cx="74.0229" cy="74.023" r="65.977" fill="#82BC29"/>
<circle cx="65.977" cy="65.977" r="65.477" fill="#F3FFE0" stroke="#82BC29"/>
<g clip-path="url(#clip0_510_2919)">
<path fill-rule="evenodd" clip-rule="evenodd" d="M53.6139 89.3782H70.6512C71.8706 81.5844 80.6835 78.5434 80.6835 66.4917H74.8809C73.8591 66.4937 73.2488 67.623 73.808 68.4793C74.1016 68.929 74.2724 69.4663 74.2724 70.0435C74.2724 71.6255 72.99 72.908 71.4079 72.908C69.826 72.908 68.5436 71.6256 68.5436 70.0435C68.5436 69.4663 68.7144 68.929 69.0081 68.4793C69.5673 67.623 68.957 66.4937 67.9351 66.4917H62.1325V61.1191C62.1305 60.0973 61.0012 59.4869 60.1449 60.0461C59.6952 60.3398 59.1579 60.5106 58.5807 60.5106C56.9986 60.5106 55.7162 59.2282 55.7162 57.6461C55.7162 56.064 56.9986 54.7816 58.5807 54.7816C59.1579 54.7816 59.6952 54.9524 60.1449 55.2461C61.0012 55.8055 62.1305 55.1951 62.1325 54.1732V48.8005C51.8644 48.9268 43.5815 56.7982 43.5815 66.4914C43.5815 78.5434 52.3943 81.5845 53.6139 89.3782Z" fill="#FFD54F"/>
<path fill-rule="evenodd" clip-rule="evenodd" d="M70.0453 97.5256C69.6574 101.447 66.2641 104.514 62.1347 104.514C57.984 104.514 54.5768 101.415 54.2189 97.4645L53.0757 92.009H71.1881L70.0453 97.5256Z" fill="#E0DFE1"/>
<path fill-rule="evenodd" clip-rule="evenodd" d="M53.0758 86.5605H71.1881C72.6865 86.5605 73.9123 87.7864 73.9123 89.2847C73.9123 90.7831 72.6865 92.0089 71.1881 92.0089C72.6865 92.0089 73.9123 93.2348 73.9123 94.7331C73.9123 96.2315 72.6865 97.4573 71.1881 97.4573H53.0758C51.5774 97.4573 50.3516 96.2315 50.3516 94.7331C50.3516 93.2348 51.5774 92.0089 53.0758 92.0089C51.5774 92.0089 50.3516 90.7831 50.3516 89.2847C50.3516 87.7864 51.5774 86.5605 53.0758 86.5605Z" fill="#F0F0F0"/>
<path fill-rule="evenodd" clip-rule="evenodd" d="M94.5317 31.0151L99.1443 35.6262C101.396 39.5256 100.047 44.5579 96.1478 46.8093L84.7097 53.413L74.4468 52.5869L79.5776 36.3235C79.9039 35.2889 80.8103 34.6075 81.8948 34.5813C85.7304 34.4883 89.4592 33.9437 94.5317 31.0151Z" fill="#FEDFC5"/>
<path fill-rule="evenodd" clip-rule="evenodd" d="M90.2007 56.2923C90.2007 46.5991 81.9178 38.7276 71.6497 38.6013V43.9712C71.6497 44.9947 70.5192 45.6067 69.6621 45.0469C69.2124 44.7531 68.6751 44.5824 68.0979 44.5824C66.5158 44.5824 65.2334 45.8648 65.2334 47.4469C65.2334 49.0288 66.5158 50.3112 68.0979 50.3112C68.6751 50.3112 69.2124 50.1405 69.6621 49.8468C70.5192 49.287 71.6497 49.899 71.6497 50.9225V56.2923H77.4495C78.4732 56.2923 79.0852 57.4229 78.5253 58.2801C78.2314 58.7298 78.0608 59.2671 78.0608 59.8442C78.0608 61.4263 79.3432 62.7087 80.9253 62.7087C82.5072 62.7087 83.7898 61.4263 83.7898 59.8442C83.7898 59.2669 83.619 58.7296 83.3251 58.2801C82.7653 57.423 83.3773 56.2923 84.4009 56.2923H90.2007Z" fill="#FFD54F"/>
<path fill-rule="evenodd" clip-rule="evenodd" d="M85.139 40.4536C89.4084 40.721 91.5432 40.8546 91.5432 40.8546L87.1379 48.4853C86.3488 49.8521 84.5795 50.3261 83.2128 49.537C81.8443 48.7468 81.3708 46.9807 82.161 45.612L85.139 40.4536Z" fill="#FECBAA"/>
<path fill-rule="evenodd" clip-rule="evenodd" d="M99.8929 43.1504L93.1074 31.3975C92.8403 30.9348 93.0002 30.3376 93.463 30.0704L95.0044 29.1804C95.4672 28.9132 96.0644 29.0734 96.3315 29.536L103.117 41.2889C103.384 41.7515 103.224 42.3488 102.761 42.616L101.22 43.506C100.757 43.773 100.16 43.613 99.8929 43.1504Z" fill="#C9F0FF"/>
<path fill-rule="evenodd" clip-rule="evenodd" d="M100.798 42.4133L94.2015 30.9781L95.4208 30.272L102.025 41.7072L100.798 42.4133ZM95.5731 45.8083C96.7923 45.1022 97.7502 44.0716 98.3598 42.8081L92.8298 33.2227C88.773 35.172 85.4999 35.6488 81.9221 35.7359C81.3342 35.7498 80.8553 36.1082 80.6811 36.6706L79.8755 39.2288C81.102 39.7722 82.2777 40.4349 83.3662 41.21L84.1427 39.8754C84.4547 39.3232 85.1659 39.1337 85.7175 39.453C86.269 39.7722 86.4578 40.4785 86.1384 41.0308L83.163 46.1892C82.9308 46.5839 82.8727 47.0462 82.9961 47.4919C83.1122 47.9374 83.3953 48.3083 83.7871 48.5362C84.6071 49.0101 85.6667 48.7286 86.1384 47.9077L90.5436 40.2768C90.8628 39.7245 91.5668 39.5351 92.1184 39.8537C92.6699 40.1731 92.8586 40.8792 92.5466 41.4323L89.0485 47.487C89.346 48.016 89.6146 48.5575 89.8541 49.1097L95.5731 45.8083ZM84.4042 55.1367C83.5043 55.1367 82.6769 55.6266 82.256 56.4146C81.8278 57.2028 81.864 58.1592 82.3576 58.9112C82.539 59.1877 82.6334 59.5106 82.6334 59.8437C82.6334 60.7864 81.8714 61.5529 80.928 61.5529C79.9845 61.5529 79.2153 60.7864 79.2153 59.8437C79.2153 59.5106 79.3097 59.1877 79.4911 58.9112C79.9845 58.1594 80.0209 57.2028 79.6 56.4146C79.1719 55.6264 78.3445 55.1367 77.4519 55.1367H72.8073V50.9224C72.8073 50.0239 72.3137 49.2009 71.53 48.7749C70.739 48.3482 69.7809 48.3882 69.0335 48.8795C68.7505 49.0601 68.4312 49.1561 68.0973 49.1561C67.1539 49.1561 66.3919 48.389 66.3919 47.4469C66.3919 46.5035 67.1539 45.7372 68.0973 45.7372C68.4312 45.7372 68.7505 45.833 69.0335 46.0136C69.7811 46.5049 70.739 46.5448 71.53 46.118C72.3137 45.692 72.8073 44.869 72.8073 43.9706V39.8066C76.2254 40.0627 79.4985 41.253 82.2054 43.2226L81.1604 45.034C80.6233 45.9629 80.4855 47.0485 80.7612 48.0901C81.0442 49.1314 81.7046 50.0009 82.6336 50.5372C83.265 50.9022 83.9617 51.0758 84.6438 51.0758C85.7542 51.0758 86.8427 50.6134 87.6193 49.7695C88.3958 51.4677 88.8675 53.2842 89.0055 55.137H84.4042V55.1367ZM104.115 40.7107L97.3294 28.9577C96.7415 27.9423 95.4425 27.5926 94.4264 28.1797L92.8878 29.0694C92.1331 29.502 91.7485 30.3256 91.8355 31.1363C88.1343 32.9113 85.1443 33.3468 81.864 33.4258C80.2819 33.4643 78.9539 34.4651 78.4748 35.9752L77.7056 38.4115C75.7679 37.8019 73.7285 37.4709 71.6603 37.4455C71.3555 37.4404 71.0579 37.5624 70.8402 37.7786C70.6152 37.9956 70.4918 38.2916 70.4918 38.6009V43.9706C70.4918 43.9944 70.4918 44.0497 70.4265 44.0867C70.3612 44.1229 70.3104 44.0925 70.2959 44.0795C69.6428 43.6521 68.8808 43.4271 68.097 43.4271C65.8835 43.4271 64.0764 45.2299 64.0764 47.4469C64.0764 49.6626 65.8835 51.466 68.097 51.466C68.8808 51.466 69.6428 51.2404 70.2959 50.8136C70.3104 50.8005 70.3612 50.77 70.4265 50.8064C70.4918 50.8427 70.4918 50.8985 70.4918 50.9225V56.2922C70.4918 56.9301 71.0144 57.4468 71.653 57.4468H77.4515C77.4732 57.4468 77.5312 57.4468 77.5676 57.5142C77.6039 57.5811 77.5676 57.6282 77.5603 57.6478C77.1321 58.3017 76.9072 59.0608 76.9072 59.8439C76.9072 62.0602 78.7071 63.8637 80.9277 63.8637C83.1412 63.8637 84.941 62.0603 84.941 59.8439C84.941 59.0608 84.716 58.3017 84.2951 57.6478C84.2807 57.6282 84.2516 57.5811 84.2807 57.5142C84.3242 57.4468 84.3751 57.4468 84.404 57.4468H90.2025C90.8411 57.4468 91.3564 56.9301 91.3564 56.2922C91.3564 54.6042 91.1169 52.9306 90.6452 51.3174L96.7267 47.8093C98.0549 47.0422 99.1725 45.9485 99.9779 44.6502C100.217 44.7417 100.479 44.7902 100.74 44.7902C101.096 44.7902 101.466 44.6987 101.8 44.5057L103.338 43.6161C103.832 43.3322 104.18 42.8736 104.325 42.3243C104.478 41.7746 104.398 41.202 104.115 40.7107ZM90.7906 83.8653C90.5801 84.2353 90.1883 84.4429 89.7891 84.4429C89.5932 84.4429 89.3972 84.3929 89.2157 84.2883L84.3897 81.5001C83.831 81.1808 83.6422 80.4745 83.9616 79.9223C84.281 79.3692 84.9848 79.1798 85.5437 79.4992L90.3697 82.2875C90.9212 82.6069 91.1099 83.313 90.7906 83.8653ZM95.2175 67.3515C95.2175 67.9894 94.7022 68.5068 94.0635 68.5068H88.4827C87.8513 68.5068 87.3289 67.9894 87.3289 67.3515C87.3289 66.7136 87.8514 66.1961 88.4827 66.1961H94.0635C94.7022 66.196 95.2175 66.7134 95.2175 67.3515ZM40.418 79.9224C40.7373 80.4747 40.5486 81.1808 39.9971 81.5002L35.1638 84.2885C34.9824 84.393 34.7865 84.4431 34.5905 84.4431C34.1913 84.4431 33.7995 84.2355 33.589 83.8654C33.2697 83.3132 33.4584 82.6063 34.0099 82.2876L38.8359 79.4994C39.3876 79.1807 40.0986 79.3694 40.418 79.9224ZM35.8895 68.5068H30.3159C29.6773 68.5068 29.1621 67.9894 29.1621 67.3515C29.1621 66.7136 29.6774 66.1969 30.3159 66.1969H35.8895C36.5282 66.1969 37.0507 66.7136 37.0507 67.3515C37.0507 67.9894 36.5282 68.5068 35.8895 68.5068ZM40.418 54.7811C40.2003 55.1512 39.8157 55.3588 39.4165 55.3588C39.2205 55.3588 39.0174 55.3087 38.8359 55.2035L34.0099 52.4161C33.4584 52.0968 33.2697 51.3905 33.589 50.8383C33.9082 50.2852 34.6122 50.0958 35.1638 50.4152L39.9971 53.2035C40.5486 53.522 40.7373 54.2281 40.418 54.7811ZM45.2513 40.3268C44.9321 39.7746 45.1207 39.0677 45.6722 38.749C46.2311 38.4298 46.9351 38.6192 47.2543 39.1721L50.041 44.0003C50.3604 44.5526 50.1716 45.2594 49.6201 45.5781C49.4387 45.6833 49.2354 45.7335 49.0395 45.7335C48.6404 45.7335 48.2558 45.5259 48.038 45.1558L45.2513 40.3268ZM61.0359 41.0548V35.479C61.0359 34.8412 61.5512 34.3245 62.1897 34.3245C62.8284 34.3245 63.3437 34.8412 63.3437 35.479V41.0548C63.3437 41.6927 62.8284 42.2101 62.1897 42.2101C61.5511 42.2101 61.0359 41.6927 61.0359 41.0548ZM74.0262 80.4079C76.5735 77.0419 79.1934 73.5671 79.4982 67.6459H74.8827C74.8609 67.6459 74.8029 67.6459 74.7665 67.7134C74.7302 67.7802 74.7593 67.8266 74.7738 67.8469C75.2019 68.5008 75.4269 69.2599 75.4269 70.043C75.4269 72.2595 73.6271 74.0629 71.4063 74.0629C69.1929 74.0629 67.3858 72.2595 67.3858 70.043C67.3858 69.2599 67.6108 68.5002 68.039 67.8469C68.0535 67.8266 68.0826 67.7802 68.0462 67.7134C68.0099 67.6459 67.9518 67.6459 67.9301 67.6459H62.1317C61.493 67.6459 60.9777 67.1292 60.9777 66.4913V61.1189C60.9777 61.0972 60.9777 61.042 60.9124 61.0057C60.8399 60.9695 60.7963 60.9998 60.7744 61.0123C60.1213 61.4397 59.3665 61.6654 58.5755 61.6654C56.3622 61.6654 54.5623 59.862 54.5623 57.6456C54.5623 55.4292 56.3622 53.6265 58.5755 53.6265C59.3667 53.6265 60.1214 53.8522 60.7744 54.2789C60.7963 54.292 60.8397 54.3217 60.9124 54.2861C60.9777 54.2498 60.9777 54.1939 60.9777 54.1708V50.0059C51.9207 50.6837 44.736 57.8597 44.736 66.4913C44.736 73.1267 47.5301 76.8286 50.2371 80.4079C51.4781 82.0545 52.661 83.6199 53.5319 85.4052H70.7316C71.6024 83.6199 72.7853 82.0545 74.0262 80.4079ZM71.1887 90.8533H53.0746C52.211 90.8533 51.507 90.1493 51.507 89.2842C51.507 88.4192 52.211 87.7152 53.0746 87.7152H71.1887C72.0524 87.7152 72.7563 88.4192 72.7563 89.2842C72.7563 90.1493 72.0524 90.8533 71.1887 90.8533ZM71.1887 96.302H53.0746C52.211 96.302 51.507 95.598 51.507 94.7329C51.507 93.8671 52.211 93.1632 53.0746 93.1632H71.1887C72.0524 93.1632 72.7563 93.8671 72.7563 94.7329C72.7563 95.598 72.0524 96.302 71.1887 96.302ZM62.1317 103.358C59.0908 103.358 56.4419 101.354 55.6146 98.6119H68.6632C67.8431 101.387 65.2233 103.358 62.1317 103.358ZM80.6813 65.336C81.3199 65.336 81.8352 65.8535 81.8352 66.4913C81.8352 73.901 78.671 78.0978 75.8698 81.8005C74.832 83.1809 73.8377 84.501 73.0757 85.8972C74.2659 86.5619 75.0642 87.8306 75.0642 89.2841C75.0642 90.3444 74.6361 91.3074 73.9466 92.0084C74.6361 92.7095 75.0642 93.6719 75.0642 94.7328C75.0642 96.8715 73.3297 98.6119 71.1888 98.6119H71.0436C70.1727 102.696 66.5079 105.668 62.1318 105.668C59.853 105.668 57.6686 104.838 55.9849 103.33C54.5697 102.065 53.619 100.417 53.2271 98.6119H53.0746C50.9338 98.6119 49.1992 96.8716 49.1992 94.7328C49.1992 93.6717 49.6274 92.7095 50.3169 92.0084C49.6274 91.3074 49.1992 90.3444 49.1992 89.2841C49.1992 87.8304 49.9976 86.5619 51.1878 85.8972C50.4257 84.5009 49.4315 83.1809 48.3938 81.8005C45.5924 78.0978 42.4284 73.901 42.4284 66.4913C42.4284 61.4868 44.4822 56.7747 48.2051 53.2215C51.9136 49.6902 56.8558 47.7097 62.1173 47.645C62.4221 47.6399 62.7269 47.7611 62.9447 47.9781C63.1624 48.1951 63.2858 48.4912 63.2858 48.8003V54.1728C63.2858 55.072 62.7922 55.8935 62.0085 56.3189C61.2175 56.7441 60.2668 56.7034 59.512 56.2129C59.2362 56.0322 58.917 55.9365 58.5758 55.9365C57.6396 55.9365 56.8704 56.7028 56.8704 57.6455C56.8704 58.5881 57.6396 59.3546 58.5758 59.3546C58.917 59.3546 59.2362 59.2596 59.512 59.0788C60.2596 58.5875 61.2175 58.5476 62.0085 58.9728C62.7922 59.3974 63.2858 60.2189 63.2858 61.116V65.336H67.9304C68.8303 65.3382 69.6576 65.828 70.0786 66.6162C70.5068 67.4037 70.4633 68.3594 69.977 69.1105C69.7956 69.3871 69.7012 69.7099 69.7012 70.043C69.7012 70.9857 70.4632 71.752 71.4066 71.752C72.35 71.752 73.1193 70.9857 73.1193 70.043C73.1193 69.7099 73.0177 69.3877 72.8435 69.1105C72.35 68.3594 72.3065 67.4037 72.7346 66.6162C73.1555 65.828 73.9828 65.3383 74.8756 65.336H80.6813Z" fill="white"/>
</g>
<defs>
<clipPath id="clip0_510_2919">
<rect width="78.8506" height="78.8506" fill="white" transform="translate(27.3564 27.3562)"/>
</clipPath>
</defs>
</svg>
